<svg width="559" height="306" viewBox="0 0 559 306" fill="none" xmlns="http://www.w3.org/2000/svg">
<path d="M392.96 100.483L391.364 201.864L384.417 256.441L369.073 256.281L363.891 256.224L339.257 255.959L337.181 222.678L334.228 106.442L392.96 100.483Z" fill="#D5D6DA"/>
<path d="M455.887 257.034H444.244L410.858 256.719L411.34 210.763L412.482 107.47L451.873 116.895L454.495 210.763L455.887 257.034Z" fill="#D5D6DA"/>
<path d="M331.222 174.776V255.715L310.331 255.447L268.523 254.915L265.533 161.191L331.222 174.776Z" fill="#D5D6DA"/>
<path d="M287.114 255.152L270.123 254.948L253.548 254.744L246.015 254.654L246.44 202.423L247.485 73.0909L283.481 87.2826L285.878 202.423L287.114 255.152Z" fill="#D5D6DA"/>
<path d="M322.732 107.47L322.729 107.788L321.681 255.591L319.906 255.567L310.331 255.437L304.208 255.353L294.164 255.219L294.871 190.625L295.681 116.054L322.732 107.47Z" fill="#D5D6DA"/>
<path d="M437.163 139.988L433.092 139.413L432.871 131.434L437.163 131.143V139.988Z" fill="white"/>
<path d="M424.2 125.442L420.132 124.863L419.908 116.885L424.2 116.593V125.442Z" fill="white"/>
<path d="M379.237 176.032L375.166 175.345L374.945 165.894L379.237 165.549V176.032Z" fill="white"/>
<path d="M261.726 104.039L257.659 103.356L257.434 93.9013L261.726 93.5565V104.039Z" fill="white"/>
<path d="M317.13 128.291L313.063 127.608L312.842 118.157L317.13 117.809V128.291Z" fill="white"/>
<path d="M345.163 150.099L341.092 149.413L340.871 139.962L345.163 139.617V150.099Z" fill="white"/>
<path d="M280.059 306C413.127 306 521 293.015 521 276.997C521 260.979 413.127 247.994 280.059 247.994C146.992 247.994 39.1187 260.979 39.1187 276.997C39.1187 293.015 146.992 306 280.059 306Z" fill="#EAEAEA"/>
<path d="M492.935 41.1888C492.935 41.1888 488.181 29.2937 476.159 30.7869C464.136 32.28 465.566 44.1985 459.841 43.0803C454.116 41.9621 446.098 43.0803 444.38 50.5327C442.663 57.9851 434.933 53.8806 434.648 60.2215C434.363 66.5624 443.523 71.0285 454.116 65.4375C464.709 59.8465 469.851 69.7898 484.746 67.9819C499.641 66.1741 501.485 63.9477 510.287 65.0659C519.088 66.1841 518.891 58.3299 514.884 53.1139C510.876 47.8979 494.652 48.3934 492.935 41.1888Z" fill="#EAEAEA"/>
<path d="M288.744 10.8703C288.744 10.8703 283.839 -1.40637 271.429 0.133656C259.018 1.67368 260.498 13.9772 254.589 12.8222C248.68 11.6671 240.407 12.8222 238.633 20.5223C236.858 28.2224 228.884 23.9807 228.589 30.5191C228.294 37.0575 237.745 41.6709 248.676 35.9025C259.607 30.1341 264.927 40.3853 280.29 38.5272C295.654 36.6692 297.559 34.3658 306.652 35.5141C315.745 36.6625 315.53 28.5639 311.392 23.1805C307.254 17.7971 290.515 18.306 288.744 10.8703Z" fill="#EAEAEA"/>
<path d="M343.097 50.121C343.097 50.121 339.435 43.0904 330.168 43.9609C320.901 44.8313 322.005 51.9021 317.593 51.2426C313.18 50.583 307.003 51.2425 305.681 55.6517C304.359 60.0609 298.399 57.6571 298.185 61.39C297.971 65.1229 305.025 67.7878 313.187 64.4767C321.349 61.1657 325.32 67.0479 336.793 65.9833C348.266 64.9187 349.686 63.5963 356.475 64.2558C363.265 64.9153 363.104 60.2685 360.017 57.1817C356.931 54.095 344.419 54.3862 343.097 50.121Z" fill="#EAEAEA"/>
<path d="M89.3707 73.285C87.3619 76.9074 85.611 77.356 84.1814 76.576C82.7519 75.7959 82.1727 74.0919 84.1814 70.4661C87.8273 63.8674 92.1862 62.0964 92.1862 62.0964C92.1862 62.0964 93.0734 66.5892 89.3707 73.285Z" fill="#D5D6DA"/>
<path d="M137.694 156.999L136.984 157.334C136.931 157.223 131.524 146.339 118.839 133.229C107.121 121.123 86.659 104.581 55.5906 94.5307L55.8383 93.7875C87.0741 103.891 107.66 120.534 119.448 132.713C132.194 145.914 137.641 156.888 137.694 156.999Z" fill="#D5D6DA"/>
<path d="M89.9463 109.506L89.1562 109.482C90.0434 81.1024 67.03 60.9146 66.7957 60.7137L67.3146 60.1245C67.5422 60.3354 90.8368 80.7575 89.9463 109.506Z" fill="#D5D6DA"/>
<path d="M73.1804 104.658C66.3039 108.732 59.0523 108.398 58.9686 108.394L59.0088 107.614C59.1025 107.614 68.3829 108.036 75.7282 101.903L76.2371 102.502C75.2769 103.301 74.2549 104.021 73.1804 104.658Z" fill="#D5D6DA"/>
<path d="M52.8852 91.0556C58.3958 92.1336 59.7784 93.7339 59.4637 95.3309C59.149 96.9278 57.2474 97.8886 51.7368 96.8073C41.6932 94.8387 37.4146 91.0087 37.4146 91.0087C37.4146 91.0087 42.6942 89.0569 52.8852 91.0556Z" fill="#D5D6DA"/>
<path d="M59.4809 105.147C65.0652 104.531 66.8731 105.652 67.0538 107.259C67.2346 108.866 65.7147 110.359 60.1371 110.975C49.9629 112.1 44.7368 109.73 44.7368 109.73C44.7368 109.73 49.1527 106.288 59.4809 105.147Z" fill="#D5D6DA"/>
<path d="M73.659 89.8637C76.555 92.8333 76.4679 94.6311 75.2928 95.756C74.1177 96.8809 72.3065 96.911 69.4072 93.9414C64.131 88.5312 63.7158 83.8978 63.7158 83.8978C63.7158 83.8978 68.3058 84.3765 73.659 89.8637Z" fill="#D5D6DA"/>
<path d="M67.0972 56.5623C71.0243 60.5463 71.2452 62.6487 70.0768 63.7803C68.9084 64.9119 66.7925 64.6441 62.8655 60.6601C55.711 53.4019 54.3685 47.8444 54.3685 47.8444C54.3685 47.8444 59.839 49.1969 67.0972 56.5623Z" fill="#D5D6DA"/>
<path d="M154.407 210.284C154.407 210.284 100.238 101.297 70.9605 116.982C41.6833 132.667 123.579 182.038 138.333 214.258L154.407 210.284Z" fill="#D5D6DA"/>
<path d="M126.569 193.642C126.569 193.642 50.7426 98.4376 19.8349 120.972C-11.0728 143.507 87.9812 172.968 108.979 201.415L126.569 193.642Z" fill="#EAEAEA"/>
<path d="M116.766 198.078C102.628 178.181 80.4784 161.529 64.3885 151.063C46.946 139.727 32.6739 133.025 32.5333 132.958L32.9518 132.081C33.0924 132.148 47.4247 138.877 64.9275 150.25C81.0878 160.749 103.341 177.475 117.57 197.505L116.766 198.078Z" fill="white"/>
<path d="M134.473 247.867C122.143 247.633 135.089 260.027 120.338 260.425C101.925 258.822 94.3519 250.295 91.7239 246.13C90.3678 243.962 88.7447 241.974 86.8928 240.211C81.2449 234.884 79.6815 236.367 62.1185 239.458C47.2237 242.072 45.4761 229.079 39.152 219.651L38.8172 219.139C36.3766 215.654 33.2463 212.725 28.4822 211.369C23.3138 209.905 18.3608 207.766 13.7515 205.008C13.3766 204.783 13.0049 204.549 12.6367 204.311C3.67771 198.566 -2.36186 190.655 0.892283 182.47C0.965937 182.276 1.04963 182.081 1.13667 181.891C1.81974 180.416 2.70668 179.044 3.77146 177.816C15.8004 163.671 27.9934 168.703 42.068 170.883C49.8518 172.085 60.9534 162.269 71.8642 157.602L72.3329 157.404C80.9905 153.815 89.4942 153.628 96.0728 164.94L96.4711 165.61C111.175 190.528 118.457 181.559 139.163 186.173C143.013 187.036 146.482 187.987 148.772 190.019C170.128 208.948 155.796 235.129 134.473 247.867Z" fill="#D5D6DA"/>
<path d="M136.271 223.541L137.011 222.594C136.589 222.259 93.7729 190.12 0.95267 181.86L0.842163 183.052C93.3175 191.298 135.852 223.22 136.271 223.541Z" fill="white"/>
<path d="M80.8135 184.14C93.81 174.006 96.5486 165.462 96.659 165.104L95.504 164.753C95.4772 164.84 92.7286 173.323 80.0669 183.196L80.8135 184.14Z" fill="white"/>
<path d="M77.8235 196.902C81.6736 191.111 81.928 182.413 78.5634 171.756C76.9573 166.756 74.8614 161.926 72.3062 157.337L71.2583 157.936C71.4056 158.184 85.6542 182.925 76.8158 196.243L77.8235 196.902Z" fill="white"/>
<path d="M53.4978 193.213C55.0379 192.098 55.8782 191.362 55.9184 191.328L55.1115 190.434C54.9341 190.592 37.197 206.052 12.7005 203.702L12.5867 204.897C32.3225 206.789 47.7629 197.365 53.4978 193.213Z" fill="white"/>
<path d="M39.5875 220.073C45.6137 214.248 47.6225 208.161 48.2485 204.084C48.9181 199.644 48.1883 196.611 48.1582 196.484L46.983 196.775C47.0132 196.892 49.7584 208.55 38.7439 219.206L39.5875 220.073Z" fill="white"/>
<path d="M126.234 273.526L114.925 273.452C108.149 274.286 102.267 267.76 102.267 259.391V57.9416C102.267 49.6054 108.099 43.077 114.848 43.8537H128.842C134.758 44.5233 219.59 61.4871 219.59 68.7888V247.77C219.59 255.039 132.13 272.799 126.234 273.526Z" fill="#364154"/>
<path d="M223.219 261.848L128.916 273.452C122.14 274.286 116.261 267.76 116.261 259.391V57.9416C116.261 49.6054 122.089 43.077 128.842 43.8537L223.145 54.7042C229.058 55.3738 233.581 61.4871 233.581 68.7888V247.77C233.571 255.039 229.101 261.125 223.219 261.848Z" fill="#364154"/>
<path d="M227.909 72.053V233.98C227.909 240.556 223.952 246.063 218.756 246.702L171.444 252.665L135.477 257.208C129.491 257.961 124.299 252.046 124.299 244.486V62.2303C124.299 54.6908 129.448 48.7852 135.41 49.4849L199.69 57.0645L218.699 59.3009C223.202 59.8332 226.791 64.0147 227.695 69.3948C227.842 70.2731 227.914 71.1624 227.909 72.053Z" fill="#EAEAEA"/>
<path d="M221.518 109.958V230.629C221.518 235.53 218.15 239.635 213.721 240.124L173.406 244.566L142.742 247.944C137.644 248.507 133.218 244.098 133.218 238.453V102.643C133.218 97.0249 137.607 92.6224 142.686 93.1447L197.47 98.7926L213.664 100.467C217.504 100.862 220.564 103.978 221.331 107.986C221.458 108.636 221.52 109.296 221.518 109.958Z" fill="#B8C1C9"/>
<path d="M127.777 273.639C125.263 273.612 122.846 272.659 120.991 270.961C117.978 268.283 116.157 263.954 116.157 259.381V57.9416C116.157 53.3885 117.951 49.0731 120.954 46.3948C123.238 44.3559 126.046 43.4151 128.869 43.7399L128.842 43.9709C126.09 43.6361 123.345 44.5769 121.108 46.5689C118.152 49.2036 116.388 53.4555 116.388 57.9517V259.384C116.388 263.894 118.165 268.156 121.145 270.79C123.395 272.779 126.167 273.686 128.916 273.348L128.942 273.579C128.556 273.622 128.166 273.643 127.777 273.639Z" fill="#131F2D"/>
<path d="M161.547 245.872L157.001 246.374C158.303 228.828 162.933 212.671 169.79 199.979C175.307 189.771 182.579 181.231 191.407 174.639C206.473 163.367 220.912 161.408 221.508 161.341V165.656C221.371 165.656 207.849 167.277 193.64 177.973C185.321 184.241 178.458 192.329 173.248 202.015C166.703 214.177 162.803 228.955 161.547 245.872Z" fill="#EAEAEA"/>
<path d="M185.552 181.81C185.418 181.609 172 161.478 166.114 156.416C156.74 148.381 133.439 150.213 133.208 150.233V146.195C134.212 146.112 158.096 144.233 168.729 153.377C175.033 158.797 188.328 178.743 188.89 179.59L185.552 181.81Z" fill="#EAEAEA"/>
<path d="M198.446 143.016L194.828 144.738L206.08 168.392L209.698 166.67L198.446 143.016Z" fill="#EAEAEA"/>
<path d="M133.208 202.413V198.399L171.361 196.792L171.528 200.799L133.208 202.413Z" fill="#EAEAEA"/>
<path d="M201.589 241.46L197.544 241.905L197.672 172.018H201.682L201.589 241.46Z" fill="#EAEAEA"/>
<path d="M199.579 218.621L163.251 220.029L163.407 224.033L199.734 222.625L199.579 218.621Z" fill="#EAEAEA"/>
<path d="M148.618 148.007H144.61V199.842H148.618V148.007Z" fill="#EAEAEA"/>
<path d="M137.513 137.21C134.879 137.21 133.362 137.21 133.208 137.21V133.135C133.563 133.135 169.171 134.441 188.364 123.808C193.992 120.691 197.149 115.713 197.739 109.014C198.006 105.872 197.73 102.708 196.922 99.6597L200.762 98.5013C201.724 102.043 202.055 105.726 201.739 109.382C201.03 117.377 197.079 123.584 190.31 127.333C181.803 132.047 169.579 135.131 153.978 136.503C147.195 137.082 141.286 137.21 137.513 137.21Z" fill="#EAEAEA"/>
<path d="M168.304 133.269L164.296 133.179L165.1 95.4581L169.298 95.89L168.304 133.269Z" fill="#EAEAEA"/>
<path d="M171.21 158.02L167.3 153.645L221.509 132.513V138.7L171.21 158.02Z" fill="#EAEAEA"/>
<path d="M203.865 94.986C197.086 95.3944 193.768 100.507 193.302 107.289C192.837 113.985 200.079 123.791 203.657 128.18C203.891 128.469 204.186 128.703 204.52 128.864C204.855 129.025 205.221 129.109 205.593 129.111C205.964 129.113 206.331 129.032 206.668 128.875C207.004 128.717 207.301 128.487 207.538 128.2C211.006 123.999 217.883 114.842 217.883 108.297C217.883 101.514 212.282 94.4838 203.865 94.986ZM204.722 115.13C200.812 114.97 197.896 112.184 197.896 108.267C197.896 104.35 199.546 101.545 205.167 100.584C209.978 99.7634 212.282 104.142 212.586 108.049C212.955 112.787 210.089 115.358 204.722 115.13Z" fill="#131F2D"/>
<path d="M202.013 141.073L191.31 124.32L195.763 121.441L206.858 139.181L202.013 141.073Z" fill="#EAEAEA"/>
<path d="M178.575 169.44C178.418 169.44 178.263 169.403 178.123 169.333C177.983 169.263 177.862 169.16 177.768 169.035L176.971 167.963C176.83 167.749 176.777 167.489 176.822 167.237C176.867 166.984 177.006 166.758 177.212 166.606C177.418 166.453 177.675 166.384 177.929 166.415C178.184 166.445 178.417 166.571 178.582 166.768L179.378 167.839C179.488 167.989 179.555 168.165 179.571 168.35C179.586 168.535 179.551 168.72 179.467 168.886C179.384 169.052 179.257 169.191 179.099 169.289C178.942 169.387 178.76 169.439 178.575 169.44Z" fill="#0466E1"/>
<path d="M176.221 166.273C176.065 166.272 175.911 166.235 175.772 166.165C175.632 166.095 175.511 165.993 175.418 165.867L173.861 163.775C173.72 163.561 173.667 163.301 173.712 163.048C173.756 162.796 173.896 162.57 174.102 162.417C174.308 162.264 174.564 162.196 174.819 162.226C175.073 162.257 175.307 162.383 175.471 162.58L177.028 164.672C177.138 164.822 177.205 164.999 177.22 165.184C177.236 165.369 177.2 165.555 177.116 165.72C177.033 165.886 176.905 166.026 176.747 166.123C176.589 166.22 176.407 166.272 176.221 166.273ZM173.114 162.088C172.958 162.088 172.803 162.051 172.663 161.981C172.523 161.911 172.401 161.808 172.307 161.683L170.754 159.587C170.663 159.482 170.595 159.36 170.553 159.228C170.512 159.096 170.498 158.957 170.513 158.819C170.527 158.682 170.571 158.549 170.639 158.428C170.708 158.308 170.801 158.204 170.912 158.121C171.023 158.038 171.15 157.98 171.285 157.948C171.42 157.917 171.56 157.914 171.696 157.94C171.832 157.965 171.961 158.018 172.076 158.096C172.19 158.174 172.287 158.274 172.361 158.392L173.918 160.487C174.076 160.701 174.143 160.969 174.104 161.232C174.065 161.495 173.923 161.731 173.71 161.89C173.538 162.018 173.329 162.087 173.114 162.088Z" fill="#0466E1"/>
<path d="M170.005 157.9C169.848 157.9 169.693 157.863 169.553 157.793C169.413 157.722 169.291 157.62 169.198 157.494L168.401 156.423C168.309 156.299 168.247 156.155 168.22 156.003C168.192 155.851 168.201 155.694 168.244 155.546C168.285 155.395 168.361 155.256 168.466 155.14C168.57 155.024 168.701 154.933 168.846 154.876L170.095 154.394C170.339 154.317 170.603 154.336 170.834 154.446C171.065 154.557 171.244 154.752 171.336 154.991C171.428 155.23 171.425 155.495 171.328 155.732C171.231 155.969 171.048 156.16 170.815 156.266C170.925 156.415 170.991 156.592 171.007 156.776C171.023 156.961 170.987 157.147 170.904 157.312C170.821 157.478 170.693 157.617 170.536 157.715C170.378 157.813 170.197 157.865 170.011 157.866L170.005 157.9Z" fill="#0466E1"/>
<path d="M173.061 155.345C172.828 155.343 172.603 155.261 172.424 155.111C172.245 154.961 172.124 154.754 172.081 154.525C172.039 154.296 172.077 154.059 172.19 153.855C172.303 153.651 172.483 153.492 172.7 153.407L175.308 152.402C175.433 152.342 175.569 152.308 175.708 152.303C175.846 152.298 175.985 152.322 176.114 152.373C176.243 152.424 176.36 152.501 176.458 152.6C176.555 152.698 176.632 152.816 176.682 152.946C176.731 153.075 176.754 153.214 176.748 153.352C176.741 153.491 176.706 153.627 176.645 153.751C176.583 153.876 176.497 153.986 176.391 154.076C176.284 154.165 176.161 154.231 176.028 154.27L173.42 155.275C173.305 155.319 173.184 155.343 173.061 155.345ZM178.274 153.336C178.041 153.335 177.816 153.252 177.637 153.102C177.458 152.953 177.337 152.745 177.294 152.516C177.251 152.287 177.29 152.05 177.403 151.846C177.515 151.642 177.696 151.484 177.912 151.398L180.52 150.394C180.764 150.316 181.029 150.335 181.259 150.446C181.49 150.557 181.67 150.751 181.762 150.99C181.853 151.229 181.851 151.494 181.754 151.731C181.657 151.968 181.473 152.159 181.24 152.265L178.632 153.269C178.518 153.315 178.397 153.339 178.274 153.34V153.336ZM183.487 151.328C183.253 151.326 183.028 151.243 182.849 151.093C182.671 150.944 182.55 150.737 182.507 150.507C182.464 150.278 182.502 150.041 182.615 149.837C182.728 149.633 182.908 149.475 183.125 149.389L185.733 148.385C185.976 148.311 186.239 148.331 186.467 148.443C186.696 148.555 186.873 148.749 186.964 148.986C187.055 149.224 187.053 149.487 186.957 149.723C186.862 149.958 186.68 150.149 186.45 150.256L183.845 151.261C183.731 151.308 183.61 151.333 183.487 151.334V151.328ZM188.699 149.319C188.468 149.315 188.244 149.232 188.067 149.082C187.89 148.933 187.77 148.727 187.728 148.499C187.685 148.271 187.723 148.036 187.834 147.833C187.945 147.629 188.123 147.471 188.338 147.384L190.942 146.379C191.186 146.302 191.451 146.321 191.681 146.432C191.912 146.543 192.092 146.737 192.184 146.976C192.275 147.215 192.273 147.48 192.176 147.717C192.079 147.954 191.895 148.145 191.662 148.251L189.058 149.255C188.947 149.301 188.829 149.326 188.709 149.329L188.699 149.319ZM193.912 147.31C193.679 147.308 193.454 147.226 193.275 147.076C193.096 146.926 192.975 146.719 192.932 146.49C192.889 146.261 192.928 146.024 193.041 145.82C193.153 145.616 193.334 145.457 193.55 145.372L196.155 144.367C196.28 144.311 196.415 144.28 196.552 144.277C196.689 144.275 196.825 144.3 196.951 144.352C197.078 144.404 197.193 144.481 197.289 144.579C197.385 144.677 197.459 144.793 197.509 144.921C197.558 145.049 197.58 145.185 197.575 145.322C197.569 145.459 197.536 145.593 197.476 145.717C197.417 145.84 197.333 145.95 197.23 146.04C197.126 146.13 197.005 146.197 196.875 146.239L194.27 147.243C194.157 147.292 194.035 147.32 193.912 147.327V147.31ZM199.121 145.301C198.888 145.299 198.664 145.216 198.485 145.066C198.307 144.916 198.187 144.709 198.144 144.48C198.102 144.251 198.141 144.014 198.254 143.81C198.366 143.607 198.546 143.449 198.763 143.363L201.368 142.359C201.493 142.298 201.629 142.264 201.768 142.259C201.906 142.254 202.045 142.278 202.174 142.329C202.303 142.38 202.42 142.457 202.518 142.556C202.615 142.655 202.692 142.772 202.742 142.902C202.791 143.032 202.814 143.17 202.808 143.309C202.801 143.447 202.766 143.583 202.705 143.708C202.643 143.832 202.557 143.943 202.451 144.032C202.344 144.121 202.221 144.188 202.087 144.227L199.483 145.231C199.369 145.283 199.246 145.313 199.121 145.321V145.301Z" fill="#0466E1"/>
<path d="M204.334 143.316C204.101 143.314 203.876 143.23 203.698 143.08C203.52 142.931 203.399 142.723 203.357 142.494C203.315 142.265 203.353 142.029 203.466 141.825C203.579 141.621 203.759 141.463 203.976 141.378L204.079 141.338L204.019 141.241C203.938 141.129 203.881 141.003 203.851 140.869C203.821 140.735 203.819 140.596 203.844 140.461C203.87 140.326 203.923 140.197 204.001 140.084C204.078 139.97 204.178 139.874 204.294 139.8C204.41 139.727 204.54 139.678 204.676 139.657C204.812 139.635 204.951 139.642 205.084 139.677C205.217 139.711 205.341 139.773 205.449 139.858C205.558 139.942 205.648 140.048 205.713 140.169L206.43 141.297C206.509 141.423 206.559 141.564 206.577 141.712C206.595 141.859 206.58 142.009 206.533 142.149C206.487 142.29 206.409 142.419 206.307 142.526C206.204 142.634 206.079 142.717 205.941 142.77L204.695 143.249C204.58 143.294 204.457 143.316 204.334 143.316Z" fill="#0466E1"/>
<path d="M203.256 139.168C203.087 139.168 202.92 139.125 202.772 139.044C202.624 138.963 202.499 138.845 202.408 138.703L200.798 136.162C200.671 135.937 200.636 135.673 200.698 135.423C200.761 135.173 200.917 134.957 201.134 134.819C201.352 134.681 201.614 134.632 201.867 134.682C202.12 134.732 202.343 134.877 202.492 135.087L204.103 137.628C204.244 137.853 204.291 138.125 204.232 138.384C204.174 138.643 204.015 138.868 203.791 139.011C203.632 139.114 203.446 139.169 203.256 139.168ZM200.035 134.086C199.866 134.086 199.7 134.043 199.552 133.962C199.404 133.881 199.279 133.763 199.188 133.621L197.578 131.08C197.493 130.969 197.433 130.842 197.401 130.707C197.368 130.571 197.364 130.431 197.389 130.294C197.414 130.157 197.466 130.027 197.544 129.912C197.622 129.796 197.722 129.698 197.84 129.624C197.957 129.549 198.089 129.5 198.226 129.479C198.364 129.458 198.504 129.466 198.638 129.502C198.773 129.538 198.898 129.602 199.006 129.689C199.115 129.776 199.204 129.885 199.268 130.008L200.879 132.546C200.974 132.697 201.027 132.872 201.033 133.051C201.038 133.23 200.996 133.407 200.91 133.564C200.824 133.721 200.697 133.853 200.543 133.944C200.39 134.036 200.214 134.085 200.035 134.086Z" fill="#0466E1"/>
<path d="M196.814 129.007C196.645 129.007 196.479 128.964 196.331 128.882C196.183 128.8 196.058 128.682 195.967 128.539L195.251 127.41C195.167 127.3 195.107 127.173 195.074 127.037C195.042 126.902 195.038 126.762 195.062 126.625C195.087 126.488 195.14 126.358 195.218 126.242C195.295 126.127 195.396 126.029 195.513 125.955C195.631 125.88 195.762 125.831 195.9 125.81C196.037 125.789 196.178 125.797 196.312 125.833C196.446 125.869 196.572 125.933 196.68 126.02C196.788 126.107 196.877 126.216 196.942 126.339L197.658 127.467C197.8 127.692 197.847 127.963 197.789 128.222C197.732 128.481 197.574 128.707 197.35 128.85C197.19 128.951 197.004 129.005 196.814 129.007Z" fill="#0466E1"/>
<path d="M192.616 123.534C192.616 123.197 192.716 122.867 192.903 122.587C193.091 122.307 193.357 122.088 193.668 121.959C193.979 121.83 194.322 121.796 194.653 121.862C194.983 121.928 195.287 122.09 195.525 122.329C195.763 122.567 195.926 122.871 195.992 123.201C196.057 123.532 196.024 123.874 195.895 124.186C195.766 124.497 195.547 124.763 195.267 124.95C194.987 125.138 194.657 125.238 194.32 125.238C193.868 125.238 193.435 125.058 193.115 124.739C192.796 124.419 192.616 123.985 192.616 123.534Z" fill="#131F2D"/>
<path d="M179.218 171.043C179.219 170.77 179.3 170.503 179.453 170.276C179.605 170.049 179.821 169.872 180.074 169.768C180.327 169.664 180.604 169.637 180.872 169.691C181.14 169.745 181.386 169.877 181.579 170.07C181.773 170.264 181.904 170.51 181.957 170.778C182.01 171.046 181.982 171.324 181.878 171.577C181.773 171.829 181.596 172.045 181.368 172.197C181.141 172.348 180.874 172.429 180.601 172.429C180.419 172.429 180.239 172.394 180.071 172.324C179.903 172.254 179.75 172.152 179.622 172.023C179.493 171.894 179.391 171.742 179.322 171.574C179.253 171.405 179.217 171.225 179.218 171.043Z" fill="#131F2D"/>
<path d="M368.413 143.008H368.36C367.154 143.004 365.965 142.731 364.878 142.21C363.791 141.689 362.834 140.932 362.076 139.995C356.251 132.847 347.867 121.823 341.011 109.864C332.708 95.3978 328.821 83.3823 329.461 74.1488C330.217 63.1008 333.405 53.7702 338.681 47.1615C344.496 39.8698 352.655 35.8623 362.926 35.2497C368.772 34.863 374.634 35.7153 380.128 37.7505C385.168 39.6479 389.778 42.5334 393.687 46.2374C402.21 54.2724 407.299 65.8929 407.299 77.336C407.299 86.3451 403.191 97.8418 395.089 111.505C388.36 122.847 380.295 133.286 374.714 140.045C373.947 140.973 372.985 141.72 371.895 142.232C370.806 142.744 369.617 143.009 368.413 143.008ZM362.96 35.8021C352.849 36.4047 344.828 40.3452 339.113 47.5197C333.907 54.0447 330.76 63.2715 330.01 74.2023C329.38 83.3253 333.241 95.2371 341.49 109.606C348.326 121.518 356.693 132.519 362.504 139.65C363.21 140.526 364.102 141.234 365.115 141.721C366.129 142.209 367.239 142.465 368.363 142.469H368.413C369.536 142.471 370.644 142.225 371.66 141.748C372.676 141.271 373.574 140.575 374.289 139.71C379.873 132.954 387.908 122.539 394.604 111.223C402.639 97.6476 406.74 86.2447 406.74 77.336C406.74 66.0436 401.718 54.5703 393.298 46.6392C389.438 42.983 384.885 40.1371 379.907 38.2695C374.486 36.2591 368.702 35.4171 362.933 35.7987L362.96 35.8021ZM367.647 99.124C366.991 99.124 366.321 99.1095 365.638 99.0805C359.568 98.8361 354.054 96.5529 350.111 92.6492C346.093 88.6887 343.91 83.2216 343.91 77.2489C343.91 63.0907 351.031 55.5647 367.011 52.8395C372.461 51.9121 377.225 53.0002 381.172 56.0769C386.432 60.1747 389.977 67.8246 390.663 76.5459C391.203 83.5229 389.565 89.0368 385.799 92.9505C381.859 96.9981 375.608 99.124 367.633 99.124H367.647ZM370.66 53.0705C369.468 53.0742 368.279 53.1784 367.104 53.3818C358.708 54.8114 352.852 57.5901 349.207 61.8721C346.019 65.6184 344.469 70.6469 344.469 77.2456C344.469 83.0709 346.615 88.4041 350.496 92.2575C354.339 96.0641 359.726 98.2837 365.658 98.5315C374.43 98.9031 381.253 96.8341 385.391 92.5488C389.04 88.769 390.627 83.3957 390.098 76.5827C389.428 68.0155 385.96 60.5128 380.821 56.4954C377.92 54.2261 374.329 53.0175 370.646 53.0705H370.66Z" fill="#131F2D"/>
<path d="M368.742 35.5276C347.432 36.7998 336.994 52.8596 335.534 74.1723C334.074 95.264 356.843 126.018 368.089 139.811C368.825 140.718 369.752 141.451 370.805 141.956C371.859 142.461 373.011 142.726 374.179 142.732C375.346 142.738 376.501 142.485 377.56 141.991C378.618 141.497 379.553 140.774 380.298 139.875C391.203 126.67 412.823 97.9054 412.823 77.3393C412.823 55.9999 395.21 33.944 368.742 35.5276ZM371.443 98.8027C359.143 98.3038 349.98 89.5457 349.98 77.2423C349.98 64.9388 355.166 56.1204 372.843 53.1073C387.972 50.5295 395.21 64.2893 396.171 76.5593C397.322 91.444 388.313 99.5057 371.443 98.806V98.8027Z" fill="#0466E1"/>
<path d="M209.466 203.799C209.961 202.01 210.663 200.284 211.558 198.657C211.558 198.657 218.669 198.697 219.014 199.326C219.807 200.766 220.731 203.96 221.498 205.416C221.833 206.049 222.8 208.248 222.215 208.66C221.709 209.018 220.102 207.632 219.419 206.883C218.83 211.546 215.877 218.088 216.406 208.222C216.262 209.226 215.455 214.737 214.2 214.02C213.095 213.391 213.507 209.414 213.728 207.78H213.681C213.312 209.42 212.318 213.364 211.461 212.423C210.386 211.248 210.731 206.879 210.731 206.879C210.731 206.879 210.165 212.45 208.756 211.231C207.795 210.408 208.964 205.959 209.295 204.395C209.328 204.19 209.385 203.99 209.466 203.799Z" fill="#FF7955"/>
<path d="M265.858 174.77C271.884 175.904 283.776 178.231 292.671 172.014C297.693 168.506 301.694 163.608 301.861 163.484L295.286 154.143L298.573 158.813L295.296 154.126C291.871 156.594 286.206 164.127 278.268 162.188C274.663 161.308 270.471 160.762 266.129 154.364L254.662 158.368C258.275 165.546 257.227 173.494 265.858 174.77Z" fill="#0466E1"/>
<path d="M286.3 164.723C286.3 164.723 290.04 159.195 293.843 157.491C297.646 155.787 300.053 157.203 300.053 157.203L304.131 155.586C304.131 155.586 304.717 170.943 294.114 168.235C293.277 168.024 286.3 164.723 286.3 164.723Z" fill="#FF7955"/>
<path d="M303.542 147.581L299.645 169.838C299.583 170.185 299.452 170.516 299.26 170.812C299.068 171.108 298.819 171.362 298.527 171.56C298.236 171.758 297.907 171.896 297.562 171.965C297.216 172.035 296.86 172.034 296.514 171.964L286.076 169.865C285.405 169.732 284.812 169.343 284.423 168.781C284.034 168.218 283.88 167.526 283.993 166.852L287.807 144.906C287.93 144.22 288.32 143.61 288.891 143.21C289.463 142.81 290.169 142.652 290.857 142.77L301.352 144.545C301.696 144.598 302.027 144.719 302.324 144.901C302.621 145.083 302.879 145.322 303.082 145.605C303.286 145.888 303.432 146.208 303.51 146.547C303.589 146.886 303.6 147.238 303.542 147.581Z" fill="#131F2D"/>
<path d="M301.891 147.29C301.887 147.07 301.817 146.855 301.691 146.675C301.565 146.494 301.388 146.355 301.183 146.275C300.977 146.195 300.753 146.178 300.538 146.226C300.323 146.274 300.127 146.384 299.975 146.544C299.823 146.703 299.722 146.905 299.684 147.122C299.647 147.339 299.675 147.562 299.764 147.764C299.854 147.965 300.002 148.135 300.189 148.252C300.375 148.369 300.593 148.428 300.813 148.422C301.105 148.413 301.382 148.289 301.584 148.077C301.786 147.865 301.896 147.583 301.891 147.29Z" fill="white"/>
<path d="M305.928 156.108C305.928 156.108 307.301 153.119 304.542 151.893C301.027 150.333 295.138 151.733 297.355 152.754C299.316 153.658 302.413 154.277 302.413 154.277C302.413 154.277 294.516 152.807 294.77 154.538C295.024 156.269 301.831 157.444 301.831 157.444C301.831 157.444 294.007 156.731 294.777 158.291C295.547 159.851 301.727 160.953 301.727 160.953C301.727 160.953 294.117 159.848 295.058 161.639C295.999 163.43 300.05 163.209 301.787 163.504C303.431 163.782 304.131 162.834 304.301 161.231C304.301 161.231 305.386 159.737 305.225 158.673C305.162 158.264 305.6 157.943 305.684 157.668C305.804 157.155 305.886 156.634 305.928 156.108Z" fill="#FF7955"/>
<path d="M225.388 199.105C225.428 200.716 235.241 201.355 247.374 200.98C259.507 200.605 269.205 198.938 269.165 197.328C269.125 195.717 259.359 194.773 247.223 195.148C235.087 195.523 225.345 197.495 225.388 199.105Z" fill="#131F2D"/>
<path d="M228.358 153.521C228.358 153.521 230.504 145.084 246.336 144.997C269.165 144.873 267.053 165.69 269.165 197.328C269.165 197.328 255.322 191.596 225.388 199.105C225.388 199.105 223.4 166.417 228.358 153.521Z" fill="#0466E1"/>
<path d="M222.523 152.312L232.861 158.003C232.861 158.003 255.995 163.065 261.988 162.084C267.98 161.103 269.155 158.663 269.155 158.663C269.155 158.663 262.764 147.113 251.884 145.372C250.859 145.208 249.801 145.084 248.7 145.014C246.868 144.889 245.028 144.926 243.203 145.124C229.413 146.647 222.523 152.312 222.523 152.312Z" fill="#0466E1"/>
<path d="M244.16 143.065L245.355 139.238L245.69 138.123L247.736 131.572L248.007 138.09L248.168 142L248.218 143.239C248.251 144.079 248.77 144.243 249.396 144.987C249.651 145.281 251.281 147.076 249.433 147.886C247.13 148.89 242.824 147.367 241.187 145.365C241.211 145.372 243.772 144.3 244.16 143.065Z" fill="#FF7955"/>
<path d="M219.459 201.884C220.413 191.486 222.596 176.618 227.594 164.84C228.753 162.115 229.235 161.087 230.136 159.597C230.865 158.398 229.563 155.764 227.511 154.508C225.582 153.33 222.583 153.524 222.107 154.106C221.3 155.111 220.433 156.999 219.094 160.022C214.434 170.511 211.645 184.067 210.514 201.536L219.459 201.884Z" fill="#FF7955"/>
<path d="M253.009 129.111C253.262 130.29 253.262 131.508 253.009 132.687C252.594 134.675 250.555 129.787 250.555 129.787L253.009 129.111Z" fill="#131F2D"/>
<path d="M248.395 140.935C251.605 140.496 253.78 137.025 253.254 133.184C252.728 129.342 249.699 126.585 246.49 127.024C243.28 127.464 241.105 130.934 241.631 134.776C242.157 138.617 245.186 141.375 248.395 140.935Z" fill="#FF7955"/>
<path d="M247.742 133.721C247.758 133.713 247.772 133.7 247.782 133.685C247.792 133.67 247.798 133.652 247.799 133.634C247.8 133.618 247.799 133.603 247.794 133.588C247.789 133.573 247.781 133.559 247.771 133.547C247.76 133.535 247.748 133.525 247.734 133.518C247.72 133.512 247.704 133.508 247.689 133.507C247.407 133.466 247.12 133.521 246.872 133.66C246.625 133.8 246.43 134.018 246.319 134.28C246.312 134.294 246.308 134.309 246.307 134.324C246.306 134.34 246.308 134.355 246.313 134.37C246.318 134.385 246.326 134.398 246.336 134.41C246.347 134.421 246.359 134.431 246.373 134.437C246.402 134.448 246.433 134.449 246.463 134.439C246.492 134.43 246.517 134.41 246.534 134.384C246.832 134.05 247.232 133.824 247.672 133.741C247.697 133.742 247.721 133.735 247.742 133.721Z" fill="#080435"/>
<path d="M247.227 135.238C247.304 135.509 247.525 135.686 247.723 135.633C247.829 135.583 247.913 135.494 247.954 135.384C247.996 135.274 247.994 135.152 247.947 135.043C247.873 134.769 247.652 134.595 247.451 134.648C247.346 134.699 247.264 134.789 247.222 134.898C247.18 135.008 247.182 135.129 247.227 135.238Z" fill="#080435"/>
<path d="M252.145 133.373C252.16 133.369 252.173 133.361 252.184 133.351C252.195 133.34 252.204 133.327 252.208 133.313C252.219 133.285 252.22 133.255 252.211 133.226C252.203 133.198 252.185 133.173 252.162 133.155C252.075 133.081 251.974 133.026 251.864 132.992C251.755 132.959 251.64 132.948 251.527 132.96C251.413 132.973 251.303 133.009 251.204 133.065C251.105 133.122 251.018 133.198 250.95 133.289C250.933 133.314 250.924 133.343 250.924 133.373C250.924 133.403 250.933 133.432 250.95 133.457C250.957 133.467 250.966 133.476 250.976 133.482C250.987 133.489 250.999 133.493 251.011 133.495C251.024 133.496 251.036 133.495 251.048 133.492C251.06 133.488 251.071 133.482 251.08 133.473C251.231 133.386 251.398 133.33 251.57 133.311C251.743 133.291 251.919 133.308 252.085 133.36C252.093 133.366 252.103 133.37 252.113 133.372C252.124 133.375 252.134 133.375 252.145 133.373Z" fill="#080435"/>
<path d="M251.06 134.581C251.023 134.863 251.161 135.107 251.365 135.134C251.569 135.161 251.763 134.953 251.8 134.675C251.837 134.397 251.696 134.146 251.492 134.123C251.288 134.099 251.094 134.304 251.06 134.581Z" fill="#080435"/>
<path d="M237.708 132.951C237.708 132.951 239.67 137.153 242.452 137.461C242.452 137.461 240.203 134.26 244.943 132.308C244.953 132.315 240.601 131.645 237.708 132.951Z" fill="#131F2D"/>
<path d="M241.629 135.268C241.889 135.448 242.209 135.521 242.522 135.47C242.834 135.418 243.115 135.248 243.303 134.993C243.38 134.856 243.429 134.704 243.448 134.547C243.466 134.39 243.453 134.232 243.41 134.08C243.367 133.928 243.294 133.786 243.196 133.663C243.098 133.539 242.976 133.436 242.838 133.36C242.578 133.179 242.258 133.106 241.945 133.158C241.633 133.209 241.353 133.38 241.164 133.634C241.087 133.772 241.038 133.923 241.019 134.08C241.001 134.237 241.014 134.396 241.057 134.548C241.1 134.699 241.173 134.841 241.271 134.965C241.37 135.088 241.491 135.191 241.629 135.268Z" fill="#FF7955"/>
<path d="M244.954 132.315C244.954 132.315 244.572 135.84 245.288 136.507C246.005 137.173 250.786 137.457 253.012 136.604C253.034 137.705 252.661 138.779 251.96 139.629C251.26 140.48 250.278 141.051 249.192 141.24C248.439 141.369 247.669 141.369 246.916 141.24C245.355 140.969 243.839 140.33 243.196 138.897C242.999 138.462 243.568 135.773 243.568 135.773C243.568 135.773 243.782 134.197 242.858 133.376C242.855 133.36 243.923 132.405 244.954 132.315Z" fill="#131F2D"/>
<path d="M244.953 132.315C244.953 132.315 244.562 129.851 246.507 129.673C248.452 129.496 250.675 129.175 251.438 129.673C252.202 130.172 253.112 132.141 253.112 132.141C253.112 132.141 254.18 128.458 252.222 126.865C250.263 125.271 244.026 123.202 240.046 125.954C236.065 128.706 237.702 132.958 237.702 132.958C237.702 132.958 240.554 132.091 244.953 132.315Z" fill="#131F2D"/>
<path d="M242.242 125.954C242.242 125.954 239.309 123.55 239.972 121.769C240.635 119.988 243.741 120.554 244.943 120.832C246.145 121.11 246.346 123.239 245.382 124.611C244.418 125.984 242.242 125.954 242.242 125.954Z" fill="#131F2D"/>
<path d="M246.761 276.689C247.447 276.652 248.13 276.807 248.732 277.137C249.334 277.467 249.832 277.959 250.169 278.557C250.495 279.172 251.019 279.658 251.656 279.937C253.775 280.814 259.915 281.611 257.622 283.619C256.306 284.764 250.102 284.025 248.348 284.025C246.594 284.025 244.953 284.781 243.661 283.619C242.881 282.923 242.951 280.717 243.176 278.852C243.252 278.201 243.583 277.606 244.097 277.199C244.611 276.792 245.266 276.605 245.917 276.679C246.122 276.707 246.328 276.719 246.533 276.716L246.761 276.689Z" fill="#131F2D"/>
<path d="M225.124 275.939C225.124 275.939 225.201 279.05 227.32 279.927C229.439 280.804 235.579 281.601 233.286 283.609C231.97 284.754 225.767 284.014 224.012 284.014C222.258 284.014 220.617 284.771 219.325 283.609C217.892 282.327 219.325 275.956 219.325 275.956C219.325 275.956 220.838 276.74 222.198 276.703C224.146 276.646 225.124 275.939 225.124 275.939Z" fill="#131F2D"/>
<path d="M262.597 197.773C263.06 197.82 263.494 198.024 263.827 198.35C264.159 198.676 264.372 199.105 264.428 199.567C264.659 201.459 264.696 205.453 263.555 213.746C261.881 225.929 255.52 270.385 254.475 276.311C254.1 278.43 253.668 279.733 250.571 280.181L246.46 280.101C243.112 280.583 241.823 277.017 241.8 274.744L244.478 206.263L233.765 198.161C239.433 197.506 245.133 197.171 250.839 197.157C254.766 197.165 258.691 197.37 262.597 197.773Z" fill="#657285"/>
<path d="M252.53 200.046L228.947 275.223C228.478 276.748 227.54 278.087 226.266 279.049C224.993 280.01 223.449 280.546 221.853 280.58L220.434 280.606C219.642 280.611 218.86 280.44 218.143 280.107C217.425 279.773 216.791 279.284 216.285 278.676C215.779 278.068 215.413 277.355 215.216 276.589C215.018 275.823 214.992 275.023 215.141 274.245L228.04 203.605C228.227 202.765 228.71 199.052 229.523 198.821C233.946 197.562 252.962 196.929 252.53 200.046Z" fill="#657285"/>
<path d="M241.987 233.649L241.612 233.522L246.684 218.222C247.839 214.71 250.256 211.751 253.467 209.919L253.665 210.254C250.536 212.037 248.182 214.918 247.059 218.339L241.987 233.649Z" fill="#020202"/>
<path d="M236.155 146.908C236.155 146.908 233.695 144.652 236.654 143.858C237.826 143.544 239.57 140.675 241.197 140.922C242.824 141.17 243.782 150.263 250.313 153.075C250.313 153.075 251.92 154.465 249.309 154.414C246.698 154.364 236.155 146.908 236.155 146.908Z" fill="#657285"/>
<path d="M250.31 153.072C250.31 153.072 253.578 149.881 253.008 146.905C252.439 143.929 254.1 141.384 254.91 142.727C255.72 144.069 256.654 143.236 256.838 144.923C257.022 146.61 254.495 154.893 252.212 154.893C249.928 154.893 250.31 153.072 250.31 153.072Z" fill="#657285"/>
<path d="M249.574 153.701C249.574 153.701 247.462 154.645 248.235 156.875C249.008 159.105 247.924 160.009 247.924 160.009C247.924 160.009 250.485 160.133 250.793 157.742C250.874 157.021 250.808 156.291 250.598 155.597C250.389 154.902 250.04 154.257 249.574 153.701Z" fill="#657285"/>
<path d="M250.772 153.701C250.772 153.701 253.45 154.609 253.571 156.339C253.691 158.07 252.148 158.485 251.609 157.454C251.07 156.423 249.935 154.404 249.935 154.404L250.772 153.701Z" fill="#657285"/>
<path d="M243.193 138.88C243.193 138.88 243.209 141.304 244.944 142.667C246.678 144.029 245.529 145.211 247.053 147.146C248.576 149.081 246.765 149.121 249.463 150.528C252.162 151.934 254.197 150.658 253.665 148.519C253.133 146.379 255.479 146.939 254.375 144.217C253.27 141.495 252.463 143.162 253.397 140.263C254.331 137.364 253.009 136.61 253.009 136.61C253.009 136.61 251.519 136.711 250.33 136.925C249.142 137.139 248.044 136.764 247.2 137.032C246.356 137.3 243.193 138.88 243.193 138.88Z" fill="#131F2D"/>
<path d="M251.834 137.869C250.582 138.172 249.29 138.273 248.007 138.167C248.007 138.167 248.302 140.005 250.324 139.64C251.499 139.426 251.834 137.869 251.834 137.869Z" fill="white"/>
<path d="M210.52 197.786C210.52 197.786 216.684 198.456 219.878 197.786C219.878 197.786 220.293 199.417 219.627 200.16C219.627 200.16 212.241 200.716 210.52 200.16C210.52 200.16 209.252 198.938 210.52 197.786Z" fill="#131F2D"/>
<path d="M214.525 196.685H214.414C213.196 196.685 212.208 197.673 212.208 198.891V199.303C212.208 200.521 213.196 201.509 214.414 201.509H214.525C215.743 201.509 216.731 200.521 216.731 199.303V198.891C216.731 197.673 215.743 196.685 214.525 196.685Z" fill="#131F2D"/>
<path d="M222.522 152.312C222.522 152.312 217.296 155.379 212.214 175.529C207.132 195.68 210.952 196.045 210.952 196.045C210.952 196.045 217.805 196.176 220.011 195.396C222.218 194.616 223.396 176.557 227.795 169.215C232.194 161.873 233.758 150.628 222.522 152.312Z" fill="#0466E1"/>
<path d="M250.843 166.741C250.841 166.587 250.885 166.435 250.969 166.305C251.054 166.176 251.175 166.074 251.317 166.014C251.459 165.953 251.617 165.936 251.769 165.965C251.921 165.994 252.06 166.068 252.171 166.176C252.281 166.285 252.356 166.424 252.387 166.575C252.418 166.727 252.403 166.884 252.344 167.027C252.286 167.171 252.186 167.293 252.057 167.379C251.929 167.465 251.777 167.511 251.623 167.511C251.417 167.512 251.22 167.432 251.074 167.287C250.927 167.143 250.844 166.947 250.843 166.741Z" fill="#131F2D"/>
<path d="M250.843 176.152C250.841 175.998 250.886 175.846 250.971 175.717C251.056 175.588 251.177 175.487 251.319 175.427C251.462 175.367 251.619 175.35 251.771 175.38C251.922 175.409 252.062 175.483 252.172 175.592C252.282 175.7 252.356 175.839 252.387 175.991C252.418 176.142 252.403 176.3 252.344 176.442C252.285 176.585 252.185 176.708 252.057 176.794C251.928 176.88 251.777 176.926 251.623 176.926C251.521 176.926 251.42 176.906 251.325 176.868C251.231 176.829 251.145 176.772 251.072 176.7C251 176.629 250.942 176.543 250.903 176.449C250.864 176.355 250.843 176.254 250.843 176.152Z" fill="#131F2D"/>
<path d="M250.843 187.307C250.841 187.153 250.886 187.001 250.971 186.872C251.056 186.743 251.177 186.642 251.319 186.582C251.462 186.522 251.619 186.506 251.771 186.535C251.922 186.564 252.062 186.638 252.172 186.747C252.282 186.856 252.356 186.995 252.387 187.146C252.418 187.298 252.403 187.455 252.344 187.598C252.285 187.741 252.185 187.863 252.057 187.949C251.928 188.035 251.777 188.081 251.623 188.081C251.521 188.081 251.42 188.062 251.325 188.023C251.231 187.984 251.145 187.927 251.072 187.856C251 187.784 250.942 187.698 250.903 187.604C250.864 187.51 250.843 187.409 250.843 187.307Z" fill="#131F2D"/>
<path d="M225.201 176.464L224.816 176.37C225.846 172.185 227.206 168.089 228.884 164.12L229.245 164.281C227.577 168.228 226.225 172.302 225.201 176.464Z" fill="#131F2D"/>
<path d="M267.689 175.392C267.254 168.382 263.745 159.373 263.708 159.286L264.077 159.142C264.113 159.232 267.645 168.295 268.094 175.365L267.689 175.392Z" fill="#131F2D"/>
<path d="M390.617 221.412C390.617 221.412 461.133 99.8404 499.989 120.617C538.845 141.394 431.083 191.392 411.903 227.452L390.617 221.412Z" fill="#EAEAEA"/>
<path d="M402.495 224.894C415.288 199.752 437.729 177.046 454.297 162.423C472.262 146.574 487.381 136.554 487.532 136.453L486.912 135.512C486.762 135.613 471.576 145.677 453.551 161.579C436.908 176.266 414.364 199.075 401.491 224.382L402.495 224.894Z" fill="white"/>
<path d="M530.689 215.383C513.889 219.216 516.963 244.673 497.729 240.157C481.455 236.327 480.072 234.847 474.505 239.585C472.605 241.218 470.947 243.113 469.58 245.212C467.926 247.72 464.722 251.423 459.804 252.343C429.75 257.961 388.079 213.886 419.224 188.998C421.471 187.2 424.768 186.48 428.418 185.868C448.214 182.55 454.494 191.586 469.858 168.04C485.221 144.495 506.802 177.769 520.076 176.444C533.35 175.118 545.038 170.997 555.564 184.974C566.089 198.951 547.489 211.563 530.689 215.383Z" fill="#D5D6DA"/>
<g opacity="0.5">
<path d="M429.178 221.292L428.535 220.361C428.947 220.076 470.695 191.958 558.001 188.951L558.042 190.086C471.063 193.079 429.586 221.011 429.178 221.292Z" fill="white"/>
<path d="M508.232 196.949C506.849 195.814 506.099 195.078 506.066 195.044L506.866 194.244C507.023 194.402 522.819 209.916 545.865 208.975L545.912 210.106C527.342 210.863 513.387 201.168 508.232 196.949Z" fill="white"/>
<path d="M519.845 223.043C514.519 217.231 512.952 211.382 512.577 207.498C512.168 203.273 513.022 200.448 513.059 200.331L514.14 200.665C514.107 200.773 510.93 211.636 520.682 222.279L519.845 223.043Z" fill="white"/>
</g>
<path d="M489.865 97.604C493.286 94.7416 495.221 94.9759 496.333 96.3184C497.444 97.6609 497.337 99.596 493.929 102.458C487.702 107.674 482.66 107.768 482.66 107.768C482.66 107.768 483.547 102.897 489.865 97.604Z" fill="#D5D6DA"/>
<g opacity="0.6">
<path d="M523.946 155.007C528.687 154.917 530.123 156.396 530.16 158.254C530.197 160.112 528.821 161.646 524.073 161.736C515.439 161.9 511.204 158.616 511.204 158.616C511.204 158.616 515.185 155.174 523.946 155.007Z" fill="#D5D6DA"/>
</g>
<path d="M458.978 272.397C458.978 272.397 446.537 272.789 445.004 270.007C439.362 259.772 445.225 236.043 451.883 230.103C458.542 224.164 463.467 234.526 463.467 234.526L458.978 272.397Z" fill="#131F2D"/>
<path d="M465.044 238.085C465.044 238.085 462.771 229.715 457.712 232.34C452.653 234.965 452.911 272.247 458.978 272.397C465.044 272.548 467.588 249.826 465.044 238.085Z" fill="#364154"/>
<path d="M463.346 241.239C463.346 241.239 461.964 234.76 458.884 236.769C455.803 238.778 455.964 267.71 459.654 267.828C463.343 267.945 464.883 250.348 463.346 241.239Z" fill="#B8C1C9"/>
<path d="M410.795 283.874C410.795 283.874 394.152 284.985 392.435 281.396C386.981 270.014 381.577 239.005 400.768 228.945C417.376 220.241 421.883 242.276 421.883 242.276L410.795 283.874Z" fill="#131F2D"/>
<path d="M418.843 241.553C418.843 241.553 415.83 231.248 409.117 234.469C402.405 237.69 402.757 283.683 410.791 283.874C418.826 284.065 422.198 256.046 418.843 241.553Z" fill="#364154"/>
<path d="M416.59 245.444C416.59 245.444 414.755 237.455 410.681 239.95C406.606 242.444 406.807 278.116 411.685 278.253C416.563 278.39 418.629 256.679 416.59 245.444Z" fill="#B8C1C9"/>
<path d="M410.768 277.828L410.557 277.436C412.395 276.432 413.905 271.637 414.601 264.6C415.254 257.958 415.08 250.633 414.146 245.484L414.585 245.403C416.426 255.551 415.234 275.4 410.768 277.828Z" fill="#131F2D"/>
<path d="M309.374 243.656C308.872 242.297 308.167 241.022 307.281 239.876C307.281 239.876 300.746 228.865 291.915 235.189C283.083 241.513 286.206 275.21 288.108 278.223C290.01 281.236 301.325 280.144 301.325 280.144C309.374 280.292 312.728 256.147 309.374 243.656Z" fill="#131F2D"/>
<path d="M304.308 194.9C304.308 194.9 276.856 206.283 279.219 232.333C279.219 232.333 276.672 232.725 275.694 237.82C274.716 242.916 279.809 266.826 283.531 267.416C287.254 268.005 394.46 271.138 397.206 269.572C399.951 268.005 402.693 264.279 402.495 255.266C402.298 246.254 404.779 227.479 412.686 228.265C419.452 228.935 421.056 251.285 419.452 265.36C418.646 272.34 428.562 262.518 437.196 261.731C445.83 260.944 451.475 262.25 451.867 257.348C452.258 252.447 451 231.53 458.462 231.201C465.509 230.893 466.028 245.336 466.028 245.336C466.812 244.355 467.769 233.214 465.613 228.262C463.457 223.311 466.594 203.129 461.499 200.19C456.403 197.251 460.126 166.872 430.926 160.993C401.725 155.114 342.337 157.33 330.774 163.768C319.21 170.206 304.308 194.9 304.308 194.9Z" fill="#0466E1"/>
<path d="M353.264 228.49H312.156C311.269 228.493 310.391 228.32 309.572 227.981C308.753 227.641 308.01 227.143 307.385 226.515L306.551 225.678C305.967 225.091 305.272 224.627 304.508 224.31C303.743 223.993 302.923 223.831 302.095 223.833H298.322V223.378H302.095C302.982 223.376 303.859 223.549 304.678 223.888C305.497 224.227 306.241 224.725 306.866 225.353L307.7 226.186C308.283 226.774 308.977 227.24 309.742 227.558C310.507 227.875 311.328 228.037 312.156 228.034H353.264C354.323 228.033 355.365 227.766 356.294 227.258L361.858 224.208C362.852 223.664 363.967 223.379 365.099 223.378H370.61V223.823H365.099C364.046 223.825 363.01 224.093 362.086 224.6L356.522 227.649C355.524 228.199 354.404 228.488 353.264 228.49Z" fill="#131F2D"/>
<path d="M411.367 163.132C411.805 163.174 412.229 163.307 412.613 163.523C412.996 163.739 413.329 164.034 413.591 164.388C413.853 164.741 414.038 165.146 414.132 165.576C414.227 166.006 414.231 166.451 414.142 166.882C413.187 171.527 412.635 176.246 412.492 180.987C412.294 190.002 416.998 195.49 402.113 196.467C387.229 197.445 305.915 197.806 306.501 195.058C307.087 192.309 327.64 166.155 333.518 164.327C338.731 162.7 396.308 161.746 411.367 163.132Z" fill="#131F2D"/>
<path d="M293.006 255.517C293.006 258.112 291.097 260.874 288.138 260.874C285.178 260.874 283.27 258.112 283.27 255.517C283.27 252.923 285.67 250.495 288.627 250.495C291.583 250.495 293.006 252.929 293.006 255.517Z" fill="#131F2D"/>
<path d="M386.981 255.517C386.981 258.112 385.073 260.874 382.113 260.874C379.154 260.874 377.249 258.112 377.249 255.517C377.249 252.923 379.646 250.495 382.605 250.495C385.565 250.495 386.981 252.929 386.981 255.517Z" fill="#131F2D"/>
<path d="M275.694 237.82C275.694 237.82 275.172 241.938 283.271 243.016C291.369 244.094 298.426 242.132 300.388 248.798C302.35 255.464 298.426 261.731 311.363 263.495C324.299 265.26 357.366 267.218 359.238 261.929C361.109 256.639 357.205 247.817 365.438 246.25C373.67 244.684 392.485 246.642 396.992 244.094C401.498 241.547 401.695 238.403 398.953 236.254C396.212 234.104 293.903 234.295 288.122 234.295C282.34 234.295 275.691 233.706 275.694 237.82Z" fill="#131F2D"/>
<path d="M312.069 241.911L351.675 241.61C351.987 241.608 352.295 241.676 352.577 241.81C352.859 241.944 353.107 242.14 353.302 242.383C353.498 242.626 353.636 242.91 353.707 243.214C353.778 243.518 353.779 243.833 353.71 244.138L352.809 248.155C352.706 248.612 352.451 249.02 352.087 249.314C351.722 249.607 351.269 249.769 350.801 249.772H313.063C312.605 249.773 312.159 249.623 311.796 249.343C311.432 249.064 311.172 248.672 311.055 248.229L310.077 244.509C309.997 244.204 309.988 243.884 310.05 243.574C310.112 243.265 310.245 242.974 310.437 242.723C310.629 242.472 310.876 242.269 311.159 242.128C311.442 241.988 311.753 241.913 312.069 241.911Z" fill="white"/>
<path d="M443.483 207.93C443.965 209.648 443.403 211.308 442.228 211.637C441.053 211.965 439.717 210.833 439.238 209.116C438.76 207.398 439.319 205.734 440.49 205.406C441.662 205.078 442.995 206.21 443.483 207.93Z" fill="#131F2D"/>
<path d="M459.912 206.076C460.39 207.796 459.828 209.454 458.656 209.782C457.484 210.11 456.142 208.982 455.663 207.261C455.184 205.54 455.744 203.879 456.919 203.551C458.094 203.223 459.43 204.355 459.912 206.076Z" fill="#131F2D"/>
<path d="M453.741 194.251C453.741 194.251 453.845 179.226 445.352 173.085C436.858 166.945 424.595 164.2 422.224 166.028C419.854 167.856 419.482 191.897 421.572 194.251C423.661 196.604 451.549 196.594 453.741 194.251Z" fill="#131F2D"/>
<path d="M427.581 200.682C427.581 200.682 423.761 197.056 425.72 190.973C427.678 184.89 442.77 189.015 444.341 192.051C445.911 195.088 439.734 200.284 435.636 201.164C431.538 202.045 432.402 209.494 429.275 209.102C426.148 208.711 423.651 206.554 425.187 205.182C426.724 203.809 429.543 201.857 427.581 200.682Z" fill="#364154"/>
<path d="M406.449 178.05C406.449 178.05 408.943 168.693 407.557 167.076C406.171 165.459 394.042 164.421 394.042 166.038C394.042 167.655 398.813 168.576 400.068 171.639C401.324 174.703 405.743 181.043 406.449 178.05Z" fill="#364154"/>
<path d="M387.534 215.768L387.122 215.597C388.146 213.17 390.731 209.865 394.805 205.781C397.818 202.748 400.597 200.391 400.624 200.368L400.912 200.702C400.805 200.799 389.917 210.093 387.534 215.768Z" fill="#131F2D"/>
<path d="M289.795 213.896H289.762C289.736 213.886 289.715 213.867 289.703 213.842C289.691 213.817 289.689 213.789 289.698 213.762C292.215 206.799 304.01 198.536 304.131 198.456C304.153 198.44 304.18 198.434 304.207 198.438C304.234 198.442 304.258 198.457 304.275 198.479C304.29 198.502 304.296 198.531 304.291 198.558C304.286 198.586 304.271 198.61 304.248 198.626C302.08 200.176 299.998 201.843 298.011 203.618C295.028 206.297 291.194 210.234 289.895 213.833C289.887 213.852 289.873 213.868 289.855 213.88C289.837 213.891 289.816 213.897 289.795 213.896Z" fill="#131F2D"/>
<path d="M300.161 224.787C305.085 220.81 306.967 214.976 304.366 211.755C301.765 208.535 295.665 209.148 290.741 213.125C285.818 217.102 283.935 222.936 286.536 226.157C289.137 229.377 295.237 228.764 300.161 224.787Z" fill="#E3EEEC"/>
<path d="M290.873 227.649C288.664 227.649 286.906 226.823 285.915 225.306C284.82 223.632 284.79 221.288 285.835 218.851C287.884 214.054 293.458 210.147 298.255 210.147C298.979 210.141 299.699 210.241 300.395 210.441C300.408 210.445 300.42 210.452 300.431 210.461C300.441 210.469 300.45 210.48 300.457 210.492C300.463 210.504 300.467 210.517 300.469 210.531C300.47 210.545 300.469 210.559 300.465 210.572C300.461 210.585 300.454 210.597 300.446 210.608C300.437 210.619 300.426 210.628 300.414 210.634C300.402 210.641 300.389 210.645 300.375 210.646C300.361 210.647 300.347 210.646 300.334 210.642C299.659 210.445 298.959 210.348 298.255 210.354C293.531 210.354 288.044 214.201 286.025 218.925C285.021 221.302 285.021 223.585 286.089 225.185C287.04 226.625 288.737 227.415 290.873 227.415C291.847 227.407 292.816 227.262 293.749 226.983C293.776 226.976 293.804 226.979 293.828 226.993C293.853 227.006 293.87 227.029 293.878 227.055C293.885 227.082 293.882 227.11 293.869 227.135C293.855 227.159 293.833 227.177 293.806 227.184C292.855 227.476 291.868 227.633 290.873 227.649Z" fill="#131F2D"/>
<path d="M384.249 224.662C389.157 220.692 391.03 214.871 388.434 211.661C385.837 208.451 379.754 209.067 374.846 213.037C369.938 217.007 368.064 222.828 370.661 226.038C373.258 229.248 379.341 228.632 384.249 224.662Z" fill="#E3EEEC"/>
<path d="M377.433 227.649C375.226 227.649 373.465 226.823 372.478 225.306C371.38 223.632 371.35 221.288 372.394 218.851C374.446 214.054 380.017 210.147 384.818 210.147C385.542 210.141 386.262 210.241 386.957 210.441C386.984 210.45 387.005 210.468 387.018 210.493C387.031 210.517 387.033 210.546 387.025 210.572C387.017 210.598 386.999 210.62 386.975 210.633C386.951 210.646 386.923 210.649 386.897 210.642C386.222 210.445 385.522 210.348 384.818 210.354C380.094 210.354 374.607 214.201 372.585 218.925C371.581 221.302 371.581 223.585 372.652 225.185C373.599 226.625 375.3 227.415 377.433 227.415C378.408 227.408 379.377 227.262 380.312 226.983C380.338 226.976 380.366 226.979 380.39 226.992C380.414 227.006 380.431 227.028 380.439 227.054C380.447 227.08 380.443 227.109 380.43 227.133C380.417 227.157 380.395 227.176 380.369 227.184C379.417 227.476 378.428 227.633 377.433 227.649Z" fill="#131F2D"/>
<path d="M448.656 238.577C448.629 238.573 448.605 238.558 448.588 238.536C448.572 238.514 448.565 238.487 448.569 238.46C448.916 235.977 449.859 233.614 451.316 231.574C452.774 229.534 454.703 227.876 456.939 226.742C457.548 226.429 458.059 225.954 458.417 225.369C458.774 224.785 458.963 224.113 458.964 223.428V215.677C458.964 215.65 458.975 215.623 458.995 215.604C459.014 215.585 459.041 215.574 459.068 215.574C459.096 215.574 459.122 215.585 459.141 215.604C459.161 215.623 459.172 215.65 459.172 215.677V223.411C459.171 224.134 458.971 224.843 458.595 225.46C458.218 226.077 457.679 226.578 457.036 226.91C454.829 228.031 452.925 229.669 451.487 231.684C450.049 233.699 449.12 236.032 448.777 238.483C448.775 238.498 448.771 238.511 448.764 238.524C448.758 238.537 448.748 238.548 448.737 238.557C448.726 238.565 448.713 238.572 448.699 238.575C448.685 238.579 448.67 238.579 448.656 238.577Z" fill="#131F2D"/>
<path d="M448.656 215.788C448.642 215.787 448.629 215.783 448.617 215.776C448.605 215.77 448.595 215.761 448.586 215.75C448.578 215.74 448.572 215.727 448.568 215.714C448.564 215.701 448.564 215.688 448.565 215.674C449.446 208.724 446.222 197.512 446.178 197.398C446.175 197.385 446.174 197.371 446.176 197.357C446.177 197.344 446.182 197.331 446.189 197.319C446.196 197.307 446.205 197.297 446.216 197.289C446.226 197.28 446.239 197.274 446.252 197.271C446.265 197.266 446.279 197.264 446.292 197.265C446.306 197.267 446.319 197.271 446.331 197.277C446.343 197.284 446.354 197.293 446.362 197.304C446.37 197.315 446.376 197.328 446.379 197.341C446.413 197.452 449.657 208.724 448.773 215.698C448.771 215.711 448.767 215.724 448.76 215.736C448.753 215.748 448.744 215.759 448.733 215.767C448.722 215.776 448.71 215.782 448.697 215.785C448.683 215.789 448.669 215.79 448.656 215.788Z" fill="#131F2D"/>
<path d="M332.695 223.254C332.695 223.953 331.533 224.516 330.097 224.516C328.661 224.516 327.499 223.953 327.499 223.254C327.499 222.554 328.664 221.991 330.097 221.991C331.53 221.991 332.695 222.557 332.695 223.254Z" fill="#E3EEEC"/>
<path d="M311.798 298.802C311.798 298.802 305.162 291.979 307.445 288.089C309.729 284.199 313.579 296.439 313.579 296.439C313.579 296.439 311.57 281.972 315.721 281.708C319.873 281.443 315.721 296.439 315.721 296.439C315.721 296.439 317.255 292.947 318.735 292.732C320.214 292.518 319.806 295.692 317.131 298.799L311.798 298.802Z" fill="#EAEAEA"/>
<path d="M312.27 298.973C310.976 297.597 309.814 296.103 308.798 294.51C306.682 291.129 306.176 288.444 307.298 286.532C307.717 285.819 308.222 285.491 308.795 285.554C309.956 285.688 311.265 287.459 312.792 290.971C313.251 292.023 313.656 293.074 313.974 293.948C313.609 290.151 313.187 282.602 315.263 280.067C315.454 279.814 315.697 279.604 315.976 279.453C316.255 279.301 316.563 279.212 316.88 279.19C317.163 279.164 317.449 279.21 317.71 279.323C317.971 279.437 318.199 279.614 318.373 279.84C320.244 282.146 318.564 290.355 317.64 294.195C318.309 293.074 319.314 291.822 320.298 291.678C320.504 291.634 320.719 291.659 320.91 291.749C321.101 291.838 321.257 291.987 321.356 292.173C321.965 293.285 321.138 296.127 318.698 298.959L318.329 298.625C320.726 295.839 321.379 293.214 320.927 292.391C320.877 292.292 320.793 292.214 320.691 292.169C320.589 292.124 320.475 292.117 320.368 292.147C319.083 292.331 317.586 295.14 317.117 296.204L316.659 296.043C316.659 296.01 317.576 292.696 318.185 289.09C318.982 284.366 318.915 281.266 317.995 280.131C317.869 279.966 317.703 279.837 317.514 279.754C317.324 279.671 317.116 279.639 316.91 279.659C316.66 279.677 316.416 279.75 316.197 279.871C315.977 279.992 315.786 280.16 315.638 280.362C313.016 283.559 314.69 295.95 314.71 296.074L314.235 296.181C313.368 293.429 310.693 286.244 308.741 286.023C308.369 285.983 308.038 286.224 307.72 286.763C305.252 290.961 312.544 298.538 312.618 298.615L312.27 298.973Z" fill="#364154"/>
<path d="M198.056 293.683C198.056 293.683 193.463 288.959 195.043 286.268C196.623 283.576 199.292 292.046 199.292 292.046C199.292 292.046 197.909 282.032 200.775 281.858C203.641 281.684 200.775 292.046 200.775 292.046C200.775 292.046 201.836 289.629 202.874 289.482C203.912 289.334 203.614 291.53 201.762 293.683H198.056Z" fill="#EAEAEA"/>
<path d="M198.384 293.8C197.489 292.848 196.684 291.813 195.981 290.71C194.514 288.367 194.166 286.512 194.943 285.186C195.234 284.691 195.582 284.463 195.981 284.517C196.784 284.607 197.688 285.836 198.746 288.266C199.064 288.996 199.345 289.723 199.566 290.325C199.312 287.701 199.017 282.471 200.457 280.717C200.589 280.541 200.757 280.396 200.95 280.291C201.143 280.186 201.356 280.123 201.575 280.107C201.772 280.09 201.97 280.123 202.151 280.202C202.333 280.281 202.491 280.404 202.613 280.559C203.905 282.156 202.74 287.841 202.101 290.499C202.579 289.723 203.252 288.856 203.945 288.755C204.087 288.725 204.234 288.741 204.366 288.801C204.498 288.861 204.606 288.963 204.675 289.09C205.097 289.857 204.525 291.825 202.834 293.777L202.579 293.559C204.253 291.628 204.692 289.81 204.381 289.241C204.346 289.172 204.288 289.117 204.217 289.086C204.146 289.055 204.067 289.049 203.992 289.07C203.102 289.2 202.067 291.142 201.742 291.882L201.424 291.768C201.448 291.678 203.912 282.682 202.348 280.75C202.263 280.635 202.149 280.543 202.017 280.485C201.886 280.426 201.742 280.402 201.598 280.416C201.425 280.428 201.257 280.478 201.105 280.562C200.953 280.646 200.821 280.761 200.718 280.901C198.9 283.117 200.048 291.695 200.072 291.782L199.737 291.855C199.138 289.95 197.286 284.975 195.934 284.825C195.679 284.795 195.445 284.962 195.227 285.337C193.52 288.243 198.575 293.492 198.619 293.543L198.384 293.8Z" fill="#364154"/>
<path d="M63.3072 267.389C63.3072 267.389 57.7564 261.697 59.6681 258.43C61.5797 255.162 64.797 265.414 64.797 265.414C64.797 265.414 63.1231 253.314 66.5881 253.103C70.0532 252.893 66.5881 265.414 66.5881 265.414C66.5881 265.414 67.8704 262.494 69.1258 262.314C70.3813 262.133 70.0197 264.791 67.7867 267.389H63.3072Z" fill="#EAEAEA"/>
<path d="M63.7022 267.53C63.4411 267.262 57.3412 260.904 59.5441 257.124C59.8789 256.528 60.3142 256.254 60.7963 256.307C61.7672 256.418 62.8619 257.901 64.1442 260.84C64.5258 261.718 64.8673 262.598 65.1318 263.328C64.8271 260.154 64.4622 253.837 66.2064 251.717C66.3668 251.505 66.5709 251.33 66.8048 251.204C67.0387 251.077 67.297 251.002 67.5624 250.984C67.7994 250.962 68.0382 251 68.2566 251.095C68.4749 251.19 68.6657 251.338 68.8111 251.527C70.3746 253.458 68.9685 260.325 68.1951 263.535C68.7709 262.598 69.5878 261.55 70.4215 261.43C70.5939 261.393 70.7737 261.413 70.9333 261.488C71.0929 261.563 71.2236 261.689 71.3053 261.845C71.8142 262.772 71.1245 265.153 69.0823 267.536L68.7743 267.268C70.783 264.925 71.3254 262.742 70.9471 262.052C70.9044 261.97 70.8351 261.905 70.7504 261.868C70.6658 261.831 70.5709 261.824 70.4817 261.848C69.407 262.002 68.1549 264.352 67.7599 265.243L67.3782 265.109C67.3782 265.079 68.1449 262.317 68.6538 259.294C69.3233 255.34 69.2664 252.749 68.4964 251.798C68.3908 251.66 68.2517 251.551 68.0923 251.482C67.933 251.413 67.7586 251.386 67.5858 251.403C67.3767 251.418 67.1736 251.479 66.9903 251.581C66.8071 251.682 66.6482 251.823 66.5245 251.992C64.3317 254.67 65.731 265.029 65.7444 265.136L65.3494 265.223C64.6263 262.923 62.3865 256.913 60.7528 256.726C60.4448 256.692 60.1635 256.893 59.899 257.345C57.8367 260.857 63.9366 267.198 63.9968 267.262L63.7022 267.53Z" fill="#364154"/>
<path d="M92.0153 289.713C92.0153 289.713 86.9934 284.554 88.7243 281.614C90.4551 278.675 93.3644 287.928 93.3644 287.928C93.3644 287.928 91.8512 276.987 94.9815 276.797C98.1118 276.606 94.9815 287.928 94.9815 287.928C94.9815 287.928 96.1432 285.287 97.2748 285.123C98.4064 284.959 98.085 287.362 96.0629 289.713H92.0153Z" fill="#EAEAEA"/>
<path d="M92.3738 289.843C92.1361 289.599 86.6054 283.847 88.6142 280.432C88.9289 279.893 89.3139 279.645 89.7457 279.692C90.6229 279.793 91.6139 281.135 92.7588 283.79C93.0936 284.587 93.4284 285.38 93.6527 286.04C93.3748 283.171 93.0568 277.459 94.627 275.544C94.7706 275.351 94.9541 275.192 95.165 275.076C95.3758 274.961 95.6091 274.892 95.8489 274.875C96.0637 274.855 96.2799 274.89 96.4776 274.976C96.6754 275.062 96.8483 275.197 96.9805 275.367C98.3933 277.111 97.1211 283.321 96.4248 286.227C96.9437 285.377 97.6802 284.43 98.4335 284.322C98.5895 284.289 98.752 284.308 98.8964 284.376C99.0408 284.444 99.1592 284.556 99.2336 284.697C99.6923 285.538 99.0663 287.687 97.2249 289.83L96.9471 289.589C98.7616 287.483 99.2537 285.498 98.9123 284.875C98.8737 284.8 98.8104 284.74 98.733 284.706C98.6555 284.671 98.5687 284.665 98.4871 284.687C97.5162 284.828 96.3846 286.951 96.0297 287.757L95.6949 287.634C95.6949 287.61 96.3879 285.113 96.8466 282.377C97.4492 278.802 97.399 276.458 96.7027 275.601C96.6077 275.477 96.4825 275.378 96.339 275.316C96.1955 275.253 96.0383 275.228 95.8824 275.243C95.6934 275.257 95.5096 275.312 95.3438 275.404C95.1779 275.496 95.0339 275.623 94.9216 275.775C92.9396 278.192 94.2051 287.563 94.2185 287.657L93.8603 287.741C93.1907 285.658 91.182 280.225 89.7056 280.041C89.4243 280.007 89.1699 280.191 88.9322 280.6C87.0674 283.777 92.5814 289.505 92.6383 289.565L92.3738 289.843Z" fill="#364154"/>
<path d="M172.475 277.151C172.475 277.151 165.535 270.014 167.922 265.949C170.309 261.885 174.34 274.681 174.34 274.681C174.34 274.681 172.251 259.551 176.576 259.28C180.902 259.009 176.576 274.681 176.576 274.681C176.576 274.681 178.18 271.031 179.747 270.804C181.314 270.576 180.868 273.9 178.073 277.165L172.475 277.151Z" fill="#EAEAEA"/>
<path d="M172.974 277.329C171.621 275.889 170.405 274.327 169.342 272.662C167.125 269.126 166.6 266.301 167.775 264.319C168.213 263.572 168.739 263.227 169.338 263.294C170.554 263.435 171.923 265.303 173.52 268.959C173.999 270.061 174.424 271.162 174.755 272.073C174.374 268.105 173.932 260.208 176.094 257.556C176.295 257.291 176.549 257.072 176.842 256.913C177.134 256.755 177.457 256.661 177.788 256.639C178.084 256.61 178.383 256.656 178.656 256.773C178.929 256.89 179.169 257.074 179.352 257.308C181.304 259.722 179.546 268.306 178.582 272.324C179.302 271.149 180.319 269.84 181.364 269.689C181.58 269.642 181.805 269.667 182.004 269.761C182.204 269.855 182.367 270.012 182.469 270.208C183.105 271.37 182.241 274.342 179.69 277.305L179.302 276.971C181.813 274.055 182.492 271.309 182.02 270.449C181.966 270.346 181.879 270.264 181.772 270.217C181.666 270.17 181.547 270.161 181.434 270.191C180.095 270.385 178.528 273.321 178.036 274.44L177.557 274.269C177.557 274.232 178.518 270.777 179.154 266.997C179.985 262.056 179.918 258.815 178.954 257.623C178.823 257.451 178.649 257.315 178.45 257.228C178.252 257.142 178.034 257.109 177.819 257.131C177.555 257.148 177.299 257.223 177.068 257.349C176.836 257.476 176.636 257.652 176.479 257.864C173.737 261.212 175.475 274.168 175.505 274.299L175.01 274.409C174.106 271.534 171.307 264.031 169.265 263.787C168.876 263.743 168.528 263.994 168.197 264.56C165.619 268.949 173.245 276.877 173.322 276.947L172.974 277.329Z" fill="#364154"/>
<path d="M482.138 264.768C482.138 264.768 477.116 259.605 478.847 256.666C480.578 253.726 483.487 262.98 483.487 262.98C483.487 262.98 481.977 252.039 485.107 251.851C488.238 251.664 485.107 262.98 485.107 262.98C485.107 262.98 486.266 260.342 487.397 260.178C488.529 260.014 488.208 262.417 486.185 264.768H482.138Z" fill="#EAEAEA"/>
<path d="M482.496 264.891C482.262 264.647 476.731 258.899 478.737 255.484C479.055 254.945 479.436 254.697 479.868 254.744C480.749 254.844 481.736 256.184 482.881 258.842C483.216 259.635 483.534 260.432 483.775 261.092C483.501 258.222 483.179 252.511 484.749 250.593C484.893 250.399 485.077 250.239 485.289 250.124C485.5 250.008 485.734 249.94 485.975 249.923C486.189 249.903 486.405 249.938 486.602 250.024C486.799 250.11 486.972 250.245 487.103 250.415C488.516 252.159 487.247 258.366 486.547 261.272C487.066 260.422 487.806 259.478 488.556 259.367C488.712 259.335 488.874 259.354 489.019 259.422C489.163 259.489 489.281 259.602 489.356 259.742C489.815 260.583 489.189 262.732 487.347 264.878L487.069 264.637C488.884 262.528 489.376 260.542 489.035 259.92C488.997 259.844 488.935 259.784 488.858 259.75C488.781 259.716 488.694 259.709 488.613 259.732C487.642 259.873 486.507 261.999 486.152 262.806L485.817 262.682C485.817 262.655 486.51 260.157 486.972 257.426C487.572 253.85 487.525 251.506 486.828 250.646C486.733 250.521 486.608 250.422 486.463 250.36C486.319 250.298 486.161 250.274 486.005 250.291C485.816 250.304 485.632 250.358 485.466 250.45C485.3 250.541 485.156 250.667 485.044 250.82C483.062 253.241 484.328 262.611 484.341 262.705L483.983 262.786C483.313 260.706 481.304 255.27 479.828 255.085C479.547 255.052 479.296 255.239 479.055 255.648C477.19 258.822 482.704 264.553 482.761 264.61L482.496 264.891Z" fill="#364154"/>
<path d="M432.871 289.05C432.871 289.05 427.849 283.887 429.58 280.948C431.311 278.008 434.22 287.262 434.22 287.262C434.22 287.262 432.71 276.321 435.84 276.13C438.971 275.939 435.84 287.262 435.84 287.262C435.84 287.262 436.999 284.624 438.134 284.46C439.269 284.296 438.941 286.7 436.918 289.05H432.871Z" fill="#EAEAEA"/>
<path d="M433.229 289.177C432.994 288.933 427.464 283.184 429.469 279.769C429.804 279.23 430.169 278.983 430.604 279.029C431.481 279.13 432.469 280.469 433.617 283.127C433.952 283.921 434.287 284.718 434.511 285.377C434.233 282.505 433.912 276.796 435.482 274.878C435.626 274.685 435.81 274.525 436.021 274.409C436.233 274.294 436.467 274.225 436.707 274.209C436.922 274.188 437.139 274.223 437.337 274.309C437.534 274.395 437.707 274.53 437.839 274.701C439.252 276.445 437.979 282.652 437.28 285.558C437.802 284.708 438.539 283.763 439.288 283.653C439.444 283.62 439.607 283.639 439.751 283.707C439.895 283.775 440.014 283.887 440.089 284.028C440.551 284.868 439.925 287.018 438.08 289.164L437.799 288.923C439.613 286.813 440.105 284.828 439.767 284.205C439.729 284.13 439.665 284.07 439.588 284.036C439.51 284.002 439.424 283.995 439.342 284.018C438.371 284.158 437.24 286.284 436.885 287.091L436.55 286.967C436.55 286.941 437.246 284.443 437.705 281.711C438.308 278.136 438.257 275.792 437.561 274.932C437.466 274.808 437.341 274.71 437.197 274.648C437.053 274.585 436.896 274.561 436.741 274.577C436.551 274.589 436.367 274.643 436.2 274.735C436.033 274.826 435.889 274.953 435.777 275.106C433.795 277.526 435.063 286.897 435.073 286.991L434.715 287.071C434.062 284.992 432.037 279.558 430.56 279.371C430.283 279.338 430.028 279.525 429.787 279.933C427.922 283.107 433.44 288.839 433.493 288.896L433.229 289.177Z" fill="#364154"/>
<path d="M195.07 52.6687C195.07 36.5319 180.734 25.4035 164.765 25.4035C141.641 25.4035 133.7 38.4871 133.7 54.6272C133.7 70.7674 152.026 82.1937 167.992 82.1937C183.958 82.1937 195.07 68.8089 195.07 52.6687Z" fill="#0466E1"/>
<path d="M200.132 78.5713C200.132 78.5713 190.025 76.9945 189.302 66.8537L181.361 72.7226C181.361 72.7226 185.151 82.0397 200.132 78.5713Z" fill="#0466E1"/>
<path d="M168.461 85.5718C160.483 85.5718 151.806 82.6725 145.254 77.8147C138.022 72.4581 134.042 65.3773 134.042 57.878C134.042 49.0731 136.362 42.0927 140.938 37.1211C146.198 31.4297 154.373 28.5237 165.234 28.5237C173.215 28.5237 180.752 31.2255 186.456 36.1335C192.392 41.239 195.663 48.2629 195.663 55.9128C195.663 62.3843 193.905 68.4774 190.581 73.5428C192.981 80.4261 200.534 81.6782 200.625 81.6916L201.264 81.792L200.635 81.936C196.071 82.9905 189.657 83.4793 184.916 79.8402C180.26 83.5968 174.444 85.6224 168.461 85.5718ZM165.234 28.7815C154.447 28.7815 146.332 31.6473 141.129 37.3019C136.596 42.2133 134.3 49.1367 134.3 57.878C134.3 65.2969 138.243 72.3041 145.408 77.6306C151.919 82.4582 160.54 85.3307 168.468 85.3307C174.422 85.3826 180.207 83.3582 184.829 79.6058L184.906 79.5422L184.983 79.6025C189.466 83.101 195.522 82.7964 200.012 81.8389C198.171 81.3902 192.369 79.5355 190.333 73.5863L190.313 73.5294L190.347 73.4758C193.664 68.454 195.419 62.3742 195.419 55.9329C195.419 48.3566 192.181 41.3997 186.299 36.3411C180.634 31.4632 173.155 28.7815 165.234 28.7815Z" fill="#131F2D"/>
<path d="M165.675 53.6831H165.625C165.486 53.6743 165.353 53.6206 165.247 53.5301C165.141 53.4395 165.067 53.3171 165.036 53.181V53.1575L164.494 48.283C164.233 47.1849 164.125 46.9137 163.054 46.5823L158.913 45.8457C158.782 45.8104 158.666 45.7354 158.58 45.6311C158.494 45.5268 158.442 45.3983 158.432 45.2634C158.422 45.1285 158.454 44.9939 158.524 44.8781C158.594 44.7623 158.698 44.6711 158.822 44.6171L169.063 40.161C169.304 40.0651 169.567 40.0407 169.82 40.0909C170.074 40.1412 170.308 40.2638 170.493 40.444C170.679 40.6243 170.808 40.8544 170.866 41.1066C170.923 41.3587 170.907 41.6222 170.818 41.8651L166.278 53.2714C166.232 53.3933 166.149 53.4981 166.041 53.5717C165.934 53.6453 165.806 53.6842 165.675 53.6831ZM165.404 53.104C165.419 53.1596 165.45 53.2091 165.495 53.2453C165.54 53.2815 165.595 53.3023 165.652 53.3048C165.711 53.3105 165.769 53.2965 165.819 53.2649C165.869 53.2334 165.907 53.1862 165.927 53.1307L170.476 41.7245C170.545 41.5504 170.561 41.3599 170.521 41.1769C170.482 40.9939 170.389 40.8267 170.255 40.6964C170.121 40.566 169.951 40.4784 169.767 40.4445C169.583 40.4105 169.393 40.4319 169.221 40.5059L158.98 44.9619C158.928 44.9846 158.885 45.0224 158.855 45.0704C158.825 45.1184 158.811 45.1743 158.814 45.2306C158.817 45.2869 158.837 45.341 158.871 45.3857C158.906 45.4304 158.953 45.4636 159.006 45.4808L163.144 46.2274C164.423 46.6224 164.584 47.0476 164.862 48.2194V48.2428L165.404 53.104Z" fill="white"/>
<path d="M151.407 58.109V58.3902C151.406 58.4271 151.398 58.4634 151.384 58.4974L149.432 62.555C149.411 62.597 149.38 62.6324 149.34 62.6573C149.3 62.6821 149.254 62.6954 149.208 62.6956H148.806C148.763 62.6958 148.721 62.6849 148.684 62.6642C148.647 62.6434 148.616 62.6134 148.594 62.5771C148.571 62.5407 148.559 62.4992 148.557 62.4567C148.556 62.4141 148.565 62.3719 148.585 62.334L150.44 58.6346H148.408C148.342 58.6346 148.279 58.6085 148.232 58.5621C148.186 58.5156 148.16 58.4526 148.16 58.3869V58.1258C148.16 58.06 148.186 57.997 148.232 57.9506C148.279 57.9041 148.342 57.878 148.408 57.878H151.159C151.222 57.8778 151.283 57.9016 151.329 57.9445C151.375 57.9874 151.403 58.0462 151.407 58.109Z" fill="white"/>
<path d="M153.777 60.1512C153.777 59.8465 153.777 59.5754 153.76 59.331C153.759 59.2976 153.764 59.2643 153.776 59.2331C153.788 59.2018 153.806 59.1733 153.829 59.1492C153.852 59.1252 153.88 59.106 153.911 59.093C153.942 59.0799 153.975 59.0731 154.008 59.0732H154.299C154.362 59.0722 154.422 59.0952 154.469 59.1376C154.515 59.1799 154.543 59.2384 154.547 59.3008L154.574 59.6088H154.594C154.706 59.414 154.869 59.2533 155.065 59.1442C155.262 59.035 155.484 58.9816 155.709 58.9895C155.925 58.9829 156.138 59.0439 156.318 59.1639C156.498 59.2839 156.636 59.4569 156.713 59.6591C156.823 59.4767 156.973 59.3221 157.152 59.2071C157.375 59.0579 157.64 58.984 157.908 58.9962C158.501 58.9962 159.11 59.408 159.11 60.5663V62.4546C159.11 62.5203 159.084 62.5833 159.038 62.6297C158.991 62.6762 158.928 62.7023 158.862 62.7023H158.467C158.402 62.7023 158.339 62.6762 158.292 62.6297C158.246 62.5833 158.22 62.5203 158.22 62.4546V60.7003C158.22 60.0976 158.012 59.7428 157.574 59.7428C157.43 59.7475 157.292 59.7964 157.178 59.8827C157.063 59.969 156.978 60.0885 156.934 60.2248C156.903 60.3234 156.889 60.4263 156.891 60.5295V62.4546C156.89 62.5206 156.863 62.5836 156.816 62.6299C156.769 62.6763 156.706 62.7023 156.639 62.7023H156.234C156.169 62.7023 156.106 62.6762 156.059 62.6297C156.013 62.5833 155.987 62.5203 155.987 62.4546V60.6032C155.987 60.0976 155.786 59.7428 155.364 59.7428C155.213 59.7489 155.068 59.8014 154.948 59.893C154.828 59.9847 154.74 60.1111 154.694 60.255C154.665 60.3538 154.65 60.4565 154.651 60.5596V62.4546C154.65 62.5206 154.623 62.5836 154.576 62.6299C154.529 62.6763 154.466 62.7023 154.4 62.7023H154.005C153.939 62.7023 153.876 62.6762 153.83 62.6297C153.783 62.5833 153.757 62.5203 153.757 62.4546L153.777 60.1512Z" fill="white"/>
<path d="M161.056 58.0622C161.056 58.1291 161.043 58.1955 161.017 58.257C160.99 58.3186 160.952 58.3741 160.903 58.42C160.854 58.4659 160.797 58.5013 160.733 58.5238C160.67 58.5463 160.603 58.5556 160.537 58.5509C160.471 58.5542 160.405 58.5438 160.343 58.5206C160.282 58.4974 160.225 58.4618 160.178 58.416C160.131 58.3702 160.093 58.3152 160.068 58.2543C160.043 58.1934 160.03 58.1281 160.031 58.0622C160.031 57.9263 160.085 57.796 160.181 57.7C160.277 57.6039 160.407 57.5499 160.543 57.5499C160.679 57.5499 160.809 57.6039 160.906 57.7C161.002 57.796 161.056 57.9263 161.056 58.0622ZM160.081 62.4479V59.331C160.081 59.2653 160.107 59.2023 160.154 59.1558C160.2 59.1094 160.263 59.0833 160.329 59.0833H160.748C160.813 59.0833 160.876 59.1094 160.923 59.1558C160.969 59.2023 160.995 59.2653 160.995 59.331V62.4579C160.995 62.5236 160.969 62.5867 160.923 62.6331C160.876 62.6796 160.813 62.7057 160.748 62.7057H160.329C160.296 62.7057 160.263 62.699 160.232 62.6859C160.201 62.6728 160.173 62.6537 160.15 62.6296C160.127 62.6055 160.109 62.577 160.097 62.5458C160.085 62.5146 160.08 62.4813 160.081 62.4479Z" fill="white"/>
<path d="M161.983 60.1512C161.983 59.8466 161.983 59.5754 161.966 59.331C161.965 59.2976 161.97 59.2643 161.982 59.2331C161.994 59.2019 162.012 59.1733 162.035 59.1493C162.058 59.1252 162.086 59.106 162.117 59.093C162.147 59.0799 162.18 59.0732 162.214 59.0732H162.522C162.584 59.073 162.644 59.0963 162.69 59.1385C162.736 59.1807 162.764 59.2387 162.77 59.3008L162.793 59.6155H162.816C162.939 59.4198 163.111 59.2592 163.315 59.1495C163.518 59.0398 163.747 58.9846 163.978 58.9895C164.608 58.9895 165.264 59.4013 165.264 60.5463V62.4479C165.263 62.5139 165.236 62.5769 165.189 62.6232C165.142 62.6696 165.079 62.6956 165.013 62.6956H164.604C164.538 62.6956 164.475 62.6695 164.429 62.623C164.383 62.5766 164.356 62.5136 164.356 62.4479V60.6501C164.356 60.1278 164.162 59.7361 163.663 59.7361C163.503 59.7393 163.348 59.7928 163.221 59.8889C163.093 59.9851 162.998 60.119 162.95 60.2717C162.919 60.3644 162.904 60.4619 162.907 60.5597V62.4479C162.906 62.5139 162.879 62.5769 162.832 62.6232C162.785 62.6696 162.722 62.6956 162.656 62.6956H162.241C162.175 62.6956 162.111 62.6696 162.064 62.6232C162.017 62.5769 161.99 62.5139 161.989 62.4479L161.983 60.1512Z" fill="white"/>
<path d="M169.479 61.6109C169.479 61.9223 169.479 62.1968 169.479 62.4379C169.48 62.4712 169.475 62.5045 169.463 62.5358C169.451 62.567 169.433 62.5955 169.41 62.6196C169.387 62.6437 169.359 62.6628 169.328 62.6759C169.298 62.689 169.265 62.6957 169.231 62.6956H168.957C168.895 62.6951 168.835 62.6715 168.789 62.6295C168.743 62.5874 168.715 62.5299 168.709 62.468L168.686 62.1533H168.662C168.538 62.3501 168.366 62.5113 168.161 62.621C167.956 62.7308 167.726 62.7854 167.494 62.7793C166.841 62.7793 166.238 62.3843 166.238 61.1992V59.331C166.238 59.2653 166.264 59.2023 166.311 59.1558C166.357 59.1094 166.42 59.0833 166.486 59.0833H166.905C166.97 59.0833 167.033 59.1094 167.08 59.1558C167.126 59.2023 167.152 59.2653 167.152 59.331V61.0552C167.152 61.6578 167.346 62.0596 167.822 62.0596C167.974 62.0594 168.123 62.0124 168.248 61.925C168.374 61.8376 168.469 61.714 168.522 61.5708C168.559 61.4807 168.576 61.3836 168.572 61.2862V59.331C168.573 59.265 168.599 59.202 168.646 59.1556C168.693 59.1093 168.757 59.0833 168.823 59.0833H169.238C169.304 59.0833 169.367 59.1093 169.414 59.1556C169.461 59.202 169.488 59.265 169.489 59.331L169.479 61.6109Z" fill="white"/>
<path d="M171.514 58.4706V58.8255C171.514 58.8912 171.54 58.9542 171.587 59.0007C171.633 59.0471 171.696 59.0732 171.762 59.0732H172.133C172.199 59.0732 172.263 59.0992 172.31 59.1456C172.357 59.1919 172.384 59.2549 172.385 59.321V59.5085C172.384 59.5745 172.357 59.6375 172.31 59.6838C172.263 59.7302 172.199 59.7562 172.133 59.7562H171.762C171.696 59.7571 171.633 59.7839 171.586 59.8309C171.54 59.8779 171.514 59.9413 171.514 60.0073V61.3464C171.514 61.7917 171.631 62.016 171.983 62.016H172.09C172.123 62.0147 172.155 62.0199 172.186 62.0313C172.216 62.0428 172.244 62.0603 172.268 62.0828C172.292 62.1053 172.311 62.1323 172.324 62.1622C172.337 62.1921 172.344 62.2244 172.344 62.2571V62.478C172.345 62.5372 172.324 62.5944 172.286 62.6397C172.248 62.685 172.195 62.7155 172.137 62.7258C171.988 62.7558 171.837 62.7704 171.685 62.7693C171.54 62.7765 171.396 62.7537 171.26 62.7024C171.125 62.6512 171.002 62.5725 170.898 62.4713C170.679 62.1849 170.575 61.8264 170.607 61.467V60.0006C170.607 59.9346 170.581 59.8712 170.534 59.8242C170.488 59.7772 170.425 59.7504 170.359 59.7495C170.293 59.7495 170.23 59.7234 170.184 59.6769C170.137 59.6305 170.111 59.5675 170.111 59.5018V59.331C170.111 59.2653 170.137 59.2023 170.184 59.1558C170.23 59.1094 170.293 59.0833 170.359 59.0833C170.425 59.0833 170.488 59.0572 170.534 59.0107C170.581 58.9642 170.607 58.9012 170.607 58.8355V58.5945C170.607 58.5401 170.624 58.4873 170.657 58.4438C170.69 58.4003 170.735 58.3686 170.788 58.3534L171.193 58.2429C171.229 58.2316 171.268 58.2288 171.305 58.2347C171.343 58.2407 171.379 58.2552 171.41 58.2773C171.441 58.2993 171.466 58.3282 171.485 58.3617C171.503 58.3953 171.513 58.4325 171.514 58.4706Z" fill="white"/>
<path d="M173.978 61.1422C173.938 61.1418 173.899 61.1513 173.863 61.1697C173.827 61.1881 173.796 61.2149 173.773 61.2479C173.75 61.2809 173.735 61.3189 173.73 61.3589C173.725 61.3988 173.73 61.4393 173.744 61.477C173.834 61.6752 173.984 61.8402 174.172 61.9483C174.361 62.0565 174.579 62.1025 174.795 62.0796C175.05 62.0814 175.305 62.051 175.552 61.9892C175.584 61.9808 175.618 61.979 175.651 61.984C175.684 61.9889 175.716 62.0005 175.744 62.018C175.773 62.0355 175.797 62.0586 175.817 62.0859C175.836 62.1132 175.85 62.1441 175.857 62.1767L175.887 62.3307C175.901 62.3897 175.892 62.4517 175.862 62.5044C175.832 62.5571 175.784 62.5967 175.726 62.6153C175.384 62.7216 175.027 62.7736 174.668 62.7693C173.496 62.7693 172.803 62.0495 172.803 60.9414C172.803 59.937 173.413 58.9895 174.571 58.9895C175.729 58.9895 176.134 59.9571 176.134 60.7539C176.134 60.8074 176.134 60.8577 176.134 60.9045C176.13 60.9685 176.102 61.0285 176.056 61.0726C176.009 61.1167 175.947 61.1415 175.883 61.1422H173.978ZM174.983 60.4994C175.021 60.4997 175.059 60.4911 175.093 60.4745C175.127 60.4578 175.157 60.4335 175.18 60.4034C175.204 60.3732 175.22 60.3382 175.227 60.3008C175.235 60.2635 175.234 60.2249 175.224 60.1881C175.193 60.023 175.105 59.8743 174.974 59.7692C174.843 59.6641 174.679 59.6096 174.511 59.6156C174.343 59.616 174.179 59.6696 174.043 59.7689C173.907 59.8681 173.806 60.0078 173.754 60.168C173.739 60.2054 173.734 60.2459 173.738 60.2859C173.743 60.3258 173.757 60.3641 173.78 60.3972C173.803 60.4303 173.834 60.4573 173.869 60.4757C173.905 60.4941 173.945 60.5034 173.985 60.5028L174.983 60.4994Z" fill="white"/>
<path d="M176.751 62.1366C176.76 62.1028 176.777 62.0714 176.799 62.0445C176.822 62.0175 176.85 61.9956 176.882 61.9802C176.913 61.9647 176.948 61.956 176.983 61.9547C177.018 61.9534 177.053 61.9595 177.085 61.9726C177.298 62.0607 177.525 62.1095 177.755 62.1165C178.157 62.1165 178.334 61.9458 178.334 61.7081C178.334 61.4704 178.187 61.3432 177.738 61.1791C177.032 60.9414 176.734 60.553 176.734 60.1212C176.734 59.4817 177.259 58.9896 178.1 58.9896C178.357 58.9879 178.613 59.0297 178.856 59.1135C178.915 59.1354 178.963 59.1787 178.991 59.2346C179.019 59.2904 179.025 59.3548 179.007 59.4148L178.963 59.5654C178.954 59.5995 178.938 59.6312 178.915 59.6586C178.893 59.6859 178.865 59.7082 178.834 59.724C178.802 59.7398 178.767 59.7487 178.732 59.7503C178.697 59.7518 178.662 59.7458 178.629 59.7328C178.461 59.6736 178.285 59.6419 178.106 59.6391C177.772 59.6391 177.601 59.8031 177.601 60.0241C177.601 60.2451 177.772 60.3589 178.234 60.5296C178.903 60.7606 179.191 61.0954 179.198 61.6311C179.198 62.3006 178.686 62.7694 177.728 62.7694C177.423 62.7717 177.121 62.7195 176.834 62.6154C176.776 62.5934 176.728 62.5501 176.7 62.4942C176.672 62.4384 176.666 62.374 176.684 62.314L176.751 62.1366Z" fill="white"/>
</svg>
