<svg width="87" height="79" viewBox="0 0 87 79" fill="none" xmlns="http://www.w3.org/2000/svg">
<path d="M77.5741 9.42737C75.5439 7.39011 73.1315 5.77366 70.4753 4.67071C67.819 3.56776 64.9712 3 62.0951 3C59.2189 3 56.3711 3.56776 53.7149 4.67071C51.0586 5.77366 48.6462 7.39011 46.616 9.42737L43.5 12.5839L40.384 9.42737C38.3538 7.39011 35.9414 5.77366 33.2851 4.67071C30.6289 3.56776 27.7811 3 24.9049 3C22.0288 3 19.181 3.56776 16.5247 4.67071C13.8685 5.77366 11.4561 7.39011 9.42591 9.42737C0.846691 18.0066 0.320606 32.4941 11.1256 43.5015L43.5 75.8759L75.8744 43.5015C86.6794 32.4941 86.1533 18.0066 77.5741 9.42737Z" stroke="#0466E1" stroke-width="6" stroke-linecap="round" stroke-linejoin="round"/>
<path d="M43.4999 12.5845L30.8334 25.2914C29.232 26.9059 28.3335 29.0877 28.3335 31.3616C28.3335 33.6356 29.232 35.8174 30.8334 37.4318V37.4318C32.4479 39.0332 34.6297 39.9318 36.9036 39.9318C39.1776 39.9318 41.3594 39.0332 42.9738 37.4318L52.1196 28.4884C54.3925 26.2395 57.4609 24.9781 60.6583 24.9781C63.8558 24.9781 66.9242 26.2395 69.1971 28.4884L78.9094 38.2007" stroke="#0466E1" stroke-width="6" stroke-linecap="round" stroke-linejoin="round"/>
<path d="M67.781 51.5952L59.6874 43.5016" stroke="#0466E1" stroke-width="6" stroke-linecap="round" stroke-linejoin="round"/>
<path d="M55.6405 63.7356L47.5469 55.642" stroke="#0466E1" stroke-width="6" stroke-linecap="round" stroke-linejoin="round"/>
</svg>
