<svg width="176" height="55" viewBox="0 0 176 55" fill="none" xmlns="http://www.w3.org/2000/svg">
<path d="M3.21897 39.9254V31.9477H0.0602188V29.641H9.27208V31.9477H6.12799V39.9254H3.21897ZM17.2316 29.641H20.1406V39.9254H17.2316V29.641ZM13.2648 39.9254H10.3558V29.641H13.2648V39.9254ZM17.4374 35.9145H13.0591V33.5051H17.4374V35.9145ZM24.8666 33.6225H29.6414V35.797H24.8666V33.6225ZM25.0722 37.6776H30.4495V39.9254H22.1926V29.641H30.2585V31.8889H25.0722V37.6776Z" fill="white"/>
<path d="M92.3059 39.9256V29.6412H97.1686C98.3047 29.6412 99.3034 29.8518 100.166 30.2729C101.027 30.6941 101.698 31.2867 102.179 32.0507C102.668 32.8146 102.913 33.7256 102.913 34.7834C102.913 35.8314 102.668 36.7422 102.179 37.5161C101.698 38.2801 101.027 38.8726 100.166 39.2938C99.3034 39.7151 98.3047 39.9256 97.1686 39.9256H92.3059ZM95.2144 37.6042H97.0514C97.6389 37.6042 98.1479 37.4966 98.5786 37.281C99.0194 37.0559 99.3624 36.7326 99.6077 36.3114C99.8521 35.8803 99.9748 35.371 99.9748 34.7834C99.9748 34.1859 99.8521 33.6766 99.6077 33.2554C99.3624 32.8342 99.0194 32.516 98.5786 32.3004C98.1479 32.0751 97.6389 31.9625 97.0514 31.9625H95.2144V37.6042ZM107.117 33.6228H111.892V35.7971H107.117V33.6228ZM107.323 37.6777H112.7V39.9256H104.444V29.6412H112.509V31.8891H107.323V37.6777ZM116.504 39.9256V31.9478H113.345V29.6412H122.556V31.9478H119.413V39.9256H116.504ZM121.89 39.9256L126.429 29.6412H129.295L133.849 39.9256H130.823L127.268 31.0663H128.413L124.858 39.9256H121.89ZM124.373 37.9274L125.122 35.7824H130.147L130.896 37.9274H124.373ZM134.674 39.9256V29.6412H137.583V39.9256H134.674ZM139.653 39.9256V29.6412H142.561V37.6189H147.469V39.9256H139.653ZM148.62 39.9256V29.6412H151.528V39.9256H148.62ZM153.599 39.9256V29.6412H155.994L161.664 36.4876H160.533V29.6412H163.383V39.9256H160.988L155.318 33.0791H156.448V39.9256H153.599ZM170.577 40.1312C169.765 40.1312 169.01 40.0038 168.315 39.7493C167.62 39.4848 167.017 39.1127 166.507 38.6327C166.008 38.1526 165.616 37.5895 165.333 36.9431C165.049 36.2868 164.907 35.5669 164.907 34.7834C164.907 33.9998 165.049 33.2848 165.333 32.6383C165.616 31.9821 166.013 31.414 166.522 30.934C167.031 30.4541 167.634 30.0868 168.33 29.8322C169.034 29.5677 169.803 29.4355 170.636 29.4355C171.605 29.4355 172.472 29.5972 173.237 29.9204C174 30.2436 174.632 30.7088 175.132 31.3161L173.281 32.991C172.928 32.609 172.546 32.325 172.135 32.1388C171.733 31.9429 171.283 31.845 170.783 31.845C170.342 31.845 169.941 31.9136 169.578 32.0507C169.216 32.1877 168.907 32.3886 168.652 32.6531C168.398 32.9077 168.197 33.2163 168.05 33.5787C167.913 33.9312 167.845 34.3328 167.845 34.7834C167.845 35.2144 167.913 35.611 168.05 35.9734C168.197 36.3358 168.398 36.6493 168.652 36.9137C168.907 37.1683 169.211 37.3691 169.564 37.5161C169.926 37.6531 170.323 37.7218 170.753 37.7218C171.185 37.7218 171.605 37.6531 172.018 37.5161C172.429 37.3691 172.845 37.1242 173.266 36.7815L174.897 38.8237C174.309 39.2449 173.629 39.5682 172.855 39.7934C172.08 40.0185 171.322 40.1312 170.577 40.1312ZM172.325 38.4417V34.563H174.897V38.8237L172.325 38.4417Z" fill="white"/>
<path d="M42.1004 40.2323C40.7045 40.2323 39.4205 39.9998 38.2481 39.5345C37.0757 39.0507 36.0802 38.3712 35.2613 37.4966L38.4435 34.3703C38.7785 34.854 39.2717 35.2542 39.923 35.5706C40.593 35.8684 41.2908 36.0172 42.0165 36.0172C42.6307 36.0172 43.1706 35.9148 43.6356 35.7101C44.1198 35.4868 44.4918 35.1798 44.7522 34.7889C45.0313 34.3795 45.171 33.8957 45.171 33.3374C45.171 32.7791 45.0313 32.3046 44.7522 31.9138C44.473 31.5043 44.0731 31.1972 43.5519 30.9926C43.0494 30.7879 42.4449 30.6855 41.7374 30.6855C41.3654 30.6855 40.9746 30.7134 40.565 30.7692C40.1742 30.8064 39.858 30.8716 39.6159 30.9646L41.7933 28.229C42.389 28.0802 42.9286 27.9592 43.4123 27.8661C43.9148 27.7544 44.3614 27.6986 44.7522 27.6986C45.7572 27.6986 46.66 27.9405 47.4599 28.4244C48.2603 28.8896 48.8932 29.5596 49.3581 30.4342C49.8235 31.2904 50.056 32.3046 50.056 33.4769C50.056 34.8169 49.7306 35.9986 49.079 37.0221C48.4277 38.0271 47.4974 38.8179 46.2875 39.3949C45.0967 39.9532 43.701 40.2323 42.1004 40.2323ZM39.6159 30.9646V28.229L44.2218 22.8414H49.6373L44.8918 28.229L39.6159 30.9646ZM36.6291 24.293V20.1337H49.6373V22.8414L45.8688 24.293H36.6291ZM58.9145 40.2323C57.5001 40.2323 56.2252 39.9344 55.0902 39.3391C53.9736 38.7249 53.0803 37.8967 52.4104 36.8546C51.7588 35.7938 51.4334 34.6122 51.4334 33.3095C51.4334 31.6904 51.9917 30.0621 53.1083 28.4244L58.775 20.1337H64.3583L57.9096 29.0385L56.0672 28.871C56.3463 28.4244 56.6255 28.0429 56.9046 27.7265C57.2022 27.3916 57.5651 27.131 57.9933 26.9449C58.4212 26.7588 58.9887 26.6658 59.6962 26.6658C60.9426 26.6658 62.0686 26.9636 63.0737 27.559C64.0974 28.1359 64.907 28.9269 65.5028 29.9318C66.1169 30.9181 66.424 32.0347 66.424 33.2815C66.424 34.6028 66.0884 35.7846 65.4188 36.8267C64.7669 37.8687 63.8742 38.697 62.739 39.3111C61.6222 39.9252 60.3478 40.2323 58.9145 40.2323ZM58.9145 36.0172C59.4541 36.0172 59.9282 35.8962 60.3385 35.6543C60.7471 35.4123 61.0643 35.0774 61.2875 34.6494C61.5291 34.2027 61.6499 33.7095 61.6499 33.1699C61.6499 32.6302 61.5291 32.1463 61.2875 31.7183C61.0643 31.2717 60.7471 30.9274 60.3385 30.6855C59.9282 30.4435 59.4541 30.3226 58.9145 30.3226C58.3933 30.3226 57.928 30.4528 57.5188 30.7134C57.1092 30.9553 56.7834 31.2904 56.5417 31.7183C56.3185 32.1463 56.2068 32.6302 56.2068 33.1699C56.2068 33.7095 56.3185 34.2027 56.5417 34.6494C56.7834 35.0774 57.1092 35.4123 57.5188 35.6543C57.928 35.8962 58.3933 36.0172 58.9145 36.0172ZM76.4196 40.2323C74.7633 40.2323 73.2841 39.8044 71.9811 38.9483C70.679 38.0737 69.6461 36.8638 68.8826 35.3193C68.1384 33.7747 67.7658 31.9975 67.7658 29.9876C67.7658 27.9964 68.1384 26.2377 68.8826 24.7117C69.6268 23.1671 70.6412 21.9668 71.9258 21.1108C73.2279 20.2361 74.6988 19.7988 76.3356 19.7988C78.0103 19.7988 79.4996 20.2361 80.8018 21.1108C82.1048 21.9668 83.1284 23.1671 83.8726 24.7117C84.6178 26.2377 84.9894 28.015 84.9894 30.0435C84.9894 32.0533 84.6178 33.8305 83.8726 35.3752C83.1284 36.9013 82.1048 38.0921 80.8018 38.9483C79.5181 39.8044 78.0574 40.2323 76.4196 40.2323ZM76.3642 35.9335C77.1269 35.9335 77.7779 35.7101 78.3174 35.2635C78.8578 34.7982 79.2673 34.1283 79.5458 33.2536C79.8436 32.379 79.993 31.2996 79.993 30.0155C79.993 28.7501 79.8436 27.68 79.5458 26.8053C79.2673 25.9307 78.8578 25.2701 78.3174 24.8234C77.7779 24.3581 77.1177 24.1256 76.3356 24.1256C75.6099 24.1256 74.9773 24.3488 74.4378 24.7955C73.8983 25.2421 73.4796 25.9028 73.1818 26.7774C72.9024 27.6521 72.7631 28.7222 72.7631 29.9876C72.7631 31.2717 72.9024 32.3604 73.1818 33.2536C73.4796 34.1283 73.8983 34.7982 74.4378 35.2635C74.9773 35.7101 75.62 35.9335 76.3642 35.9335Z" fill="#0466E1"/>
<path d="M44.1335 0.0349581C43.3295 0.0688022 41.7722 0.221146 40.6633 0.365007C40.13 0.441179 39.5797 0.50896 39.4361 0.517352C39.3005 0.53432 39.1059 0.568165 39.013 0.593525C38.9197 0.618977 38.6913 0.661305 38.505 0.686665C38.3188 0.712025 38.0396 0.771321 37.8788 0.813649C37.7179 0.864369 37.557 0.881337 37.5232 0.855977C37.481 0.830525 37.3793 0.855977 37.2863 0.898305C37.2015 0.949025 36.9983 1.00832 36.8459 1.0252C36.6852 1.05065 36.4314 1.10985 36.2705 1.15218C36.1098 1.203 35.9574 1.22835 35.9405 1.20299C35.9151 1.18603 35.839 1.20299 35.7542 1.24532C35.6781 1.28756 35.4835 1.33837 35.3226 1.36373C34.9502 1.41454 34.5694 1.49072 34.3577 1.5584C34.2646 1.59225 34.1546 1.62618 34.1039 1.63458C33.8076 1.71075 33.5707 1.77005 33.3844 1.80389C33.2659 1.82925 33.0967 1.87158 33.0035 1.89703C32.9105 1.93087 32.8088 1.96472 32.775 1.9732C32.7327 1.98159 32.6988 1.99856 32.6903 2.00705C32.6735 2.01553 32.5888 2.04089 32.4957 2.05777C32.318 2.08322 32.0133 2.15091 31.9455 2.17627C31.9201 2.18475 31.8693 2.19323 31.8271 2.18475C31.7932 2.17627 31.7086 2.21011 31.6409 2.26941C31.5816 2.32022 31.4886 2.33709 31.4462 2.31173C31.4039 2.27789 31.3446 2.29477 31.3108 2.33709C31.2854 2.38791 31.2092 2.40478 31.1499 2.37942C31.0822 2.35406 31.0061 2.37094 30.9807 2.42175C30.9468 2.47256 30.8706 2.48944 30.8114 2.46408C30.7437 2.43863 30.6675 2.46408 30.6337 2.50641C30.6082 2.55713 30.5406 2.58258 30.4982 2.54874C30.4559 2.52328 30.3628 2.54874 30.2952 2.59946C30.2274 2.65027 30.1343 2.67563 30.092 2.65027C30.0497 2.61642 29.9904 2.6333 29.9565 2.68411C29.9227 2.73492 29.8719 2.7518 29.8296 2.72644C29.7873 2.70108 29.6688 2.71796 29.5842 2.76877C29.4911 2.81958 29.3048 2.8703 29.1779 2.88727C29.051 2.91263 28.8478 2.94647 28.7293 2.98032C28.6108 3.01425 28.4416 3.0481 28.3484 3.05649C28.2553 3.07346 28.1791 3.09882 28.1791 3.1073C28.1791 3.11579 28.1029 3.14115 28.0099 3.15811C27.5867 3.2258 27.4005 3.26813 27.1297 3.35279C26.9688 3.40351 26.808 3.42047 26.7742 3.39511C26.7318 3.36966 26.6303 3.38663 26.5457 3.43744C26.461 3.47968 26.241 3.53898 26.0548 3.56434C25.877 3.58979 25.2506 3.68284 24.6667 3.77598C22.4831 4.10603 21.1119 4.15684 16.1606 4.07218C9.62656 3.97065 7.33282 3.97904 6.42724 4.11451C6.01253 4.17371 5.58925 4.23301 5.4962 4.24989C5.40306 4.25837 5.3184 4.28382 5.31001 4.29221C5.29304 4.3007 5.25071 4.32606 5.19999 4.33454C5.15767 4.34303 5.10686 4.35999 5.09837 4.36839C5.0815 4.38535 4.96299 4.40223 4.82752 4.4192C4.69215 4.43617 4.54829 4.50386 4.51435 4.56306C4.47212 4.62236 4.43818 4.63923 4.43818 4.60539C4.43818 4.52922 3.73575 4.8932 3.69342 4.99473C3.67646 5.02858 3.63413 5.03706 3.5918 5.0117C3.55796 4.99473 3.42258 5.0709 3.30408 5.18092C3.1771 5.29942 3.05011 5.39256 3.01627 5.39256C2.91473 5.39256 2.15301 6.18813 2.15301 6.29815C2.15301 6.34896 2.09371 6.41665 2.01754 6.4421C1.94985 6.46746 1.91601 6.52666 1.94137 6.57747C1.96682 6.62829 1.93289 6.68749 1.8652 6.71285C1.78903 6.7383 1.72982 6.81448 1.72982 6.88216C1.72982 6.94985 1.68749 7.00066 1.6282 7.00066C1.57748 7.00066 1.55202 7.02602 1.58587 7.05148C1.61132 7.07684 1.56051 7.17837 1.47585 7.27999C1.3828 7.37304 1.33199 7.48306 1.35735 7.52539C1.3828 7.55932 1.35735 7.59317 1.30663 7.59317C1.25582 7.59317 1.23885 7.62701 1.2643 7.67773C1.28966 7.72006 1.27279 7.76239 1.22198 7.76239C1.17116 7.76239 1.15429 7.79623 1.17965 7.84704C1.20501 7.88937 1.19662 7.9317 1.15429 7.9317C1.07812 7.9317 0.925771 8.32944 0.951131 8.45642C0.959615 8.49875 0.925772 8.52411 0.874959 8.52411C0.832631 8.52411 0.807271 8.55805 0.841115 8.60028C0.866475 8.64261 0.849598 8.70191 0.798785 8.73575C0.747973 8.76959 0.731099 8.82889 0.756459 8.87113C0.790303 8.91346 0.764942 8.9473 0.722614 8.9473C0.671802 8.9473 0.637958 8.97275 0.637958 9.0066C0.646442 9.04892 0.637957 9.09974 0.629473 9.13349C0.621081 9.17591 0.59563 9.23511 0.587146 9.28583C0.578754 9.32816 0.553301 9.38746 0.544909 9.41282C0.536425 9.43827 0.510975 9.48899 0.502583 9.5398C0.494099 9.58213 0.468645 9.64133 0.460253 9.66679C0.451769 9.69215 0.42641 9.74296 0.417926 9.79368C0.409442 9.83601 0.392473 9.88682 0.375597 9.8953C0.350237 9.93763 0.282457 10.2592 0.240129 10.5554C0.223253 10.7163 0.180925 10.9109 0.155565 10.9787C-0.0475914 11.5457 -0.0560755 16.2939 0.155565 16.6325C0.172441 16.6663 0.21477 16.9032 0.248614 17.1572C0.33327 17.8682 0.333268 17.8766 0.400956 17.9782C0.4348 18.029 0.434801 18.1306 0.409441 18.1983C0.384081 18.266 0.400956 18.3506 0.451768 18.376C0.50258 18.4099 0.519457 18.4861 0.485613 18.5538C0.460253 18.6215 0.485612 18.6808 0.536424 18.6808C0.587144 18.6808 0.604114 18.7315 0.578754 18.7992C0.553302 18.8669 0.570268 18.9431 0.621081 18.9685C0.671801 19.0023 0.688769 19.0785 0.654925 19.1462C0.629473 19.214 0.654927 19.2732 0.705647 19.2732C0.756459 19.2732 0.773426 19.324 0.747974 19.3917C0.722614 19.4593 0.747975 19.5355 0.790303 19.5694C0.841115 19.5948 0.866475 19.6625 0.841115 19.7048C0.807271 19.7472 0.824147 19.781 0.874959 19.781C0.925772 19.781 0.942646 19.8402 0.917286 19.9079C0.883442 19.9757 0.908802 20.0349 0.968098 20.0349C1.01882 20.0349 1.04427 20.0688 1.01033 20.1111C0.984975 20.1534 1.00194 20.2127 1.05266 20.2465C1.10348 20.2804 1.12044 20.3397 1.09499 20.3819C1.06115 20.4242 1.08651 20.4581 1.12884 20.4581C1.17965 20.4581 1.21349 20.4835 1.20501 20.5174C1.17116 20.6189 1.67901 21.643 1.75518 21.643C1.79751 21.643 1.79751 21.6853 1.77215 21.7276C1.7467 21.7785 1.78054 21.8377 1.84832 21.8631C1.92449 21.8885 1.95834 21.9478 1.93289 21.99C1.90753 22.0323 1.94985 22.0916 2.01754 22.117C2.09371 22.1424 2.13604 22.2016 2.11068 22.244C2.08523 22.2778 2.16149 22.3793 2.2799 22.4555C2.39001 22.5317 2.47458 22.6248 2.44922 22.6587C2.43225 22.6925 2.52539 22.828 2.66086 22.955C2.80472 23.0904 2.91473 23.1665 2.91473 23.1327C2.91473 23.0988 3.03323 23.1834 3.17709 23.3274C3.32096 23.4712 3.4733 23.5727 3.51563 23.5389C3.55796 23.5135 3.5918 23.5389 3.5918 23.5812C3.5918 23.632 3.61725 23.6659 3.65958 23.6659C3.69342 23.6574 3.74424 23.6659 3.78647 23.6744C3.82032 23.6829 3.8881 23.7082 3.93043 23.7167C3.98115 23.7251 4.02347 23.7505 4.04044 23.759C4.04883 23.7674 4.13349 23.7928 4.22663 23.8097C4.31968 23.8267 4.51435 23.8606 4.64982 23.8859C4.79368 23.9114 5.09837 23.9537 5.32689 23.9791C5.56389 24.0044 5.80937 24.0383 5.87706 24.0636C5.94475 24.0891 6.23256 24.1314 6.5118 24.1568C6.79113 24.1737 7.17199 24.2245 7.34979 24.2668C7.53598 24.3091 7.71368 24.3261 7.73913 24.3091C7.77298 24.2922 8.03534 24.3091 8.34002 24.3599C8.63623 24.4022 9.11872 24.453 9.40644 24.4784C9.69425 24.4953 10.5576 24.5715 11.3108 24.6392C13.7568 24.8593 16.0675 25.0455 18.3189 25.1978C19.0383 25.2486 19.8085 25.2994 20.037 25.3248C20.3417 25.3502 20.4348 25.3332 20.4348 25.2401C20.4348 25.1725 20.4094 25.1132 20.3755 25.1048C19.8846 25.0708 19.5038 25.0116 19.3006 24.9439C19.1736 24.9016 19.0383 24.8762 19.0044 24.8931C18.979 24.9101 18.7589 24.8931 18.5304 24.8423C18.2934 24.8 18.0142 24.7493 17.8957 24.7323C17.7772 24.7154 17.591 24.6816 17.4725 24.6561C17.354 24.6308 17.0747 24.5884 16.8377 24.5631C16.6091 24.5376 16.3553 24.4953 16.2875 24.4699C16.2198 24.4446 15.9913 24.4022 15.7797 24.3853C15.5681 24.3599 15.3396 24.3261 15.2719 24.3006C15.2042 24.2753 14.9757 24.2329 14.764 24.2161C14.5524 24.1906 14.324 24.1568 14.2562 24.1229C14.1885 24.0976 13.96 24.0636 13.7653 24.0467C13.5622 24.0214 13.3168 23.9706 13.2321 23.9198C13.139 23.8774 13.0374 23.8521 13.0036 23.8774C12.9613 23.9029 12.7836 23.8775 12.5973 23.8352C12.4196 23.7844 12.1741 23.7336 12.0556 23.7167C11.9371 23.6997 11.7509 23.6659 11.6325 23.6405C11.514 23.6151 11.3193 23.5727 11.1923 23.5474C11.0569 23.522 10.8538 23.4797 10.7268 23.4542C10.5914 23.4289 10.3967 23.395 10.2782 23.3781C10.1598 23.3612 10.0666 23.3442 10.0666 23.3357C10.0666 23.3274 9.99045 23.3104 9.89741 23.2935C9.80427 23.2681 9.62656 23.2342 9.49958 23.2089C9.36411 23.1834 9.17792 23.1496 9.07639 23.1327C8.96637 23.1072 8.73776 23.0734 8.55167 23.0395C8.37387 23.0142 8.16232 22.955 8.07766 22.9126C8.00149 22.8703 7.90835 22.8533 7.88299 22.8872C7.84915 22.9126 7.77298 22.8957 7.71368 22.8449C7.64599 22.7857 7.56982 22.7687 7.54446 22.8025C7.51052 22.828 7.43444 22.8025 7.35827 22.7433C7.2821 22.6841 7.20583 22.6587 7.17199 22.6841C7.14663 22.7179 7.07046 22.701 7.00277 22.6502C6.94347 22.5994 6.89275 22.5825 6.89275 22.6163C6.89275 22.6502 6.83346 22.6333 6.76577 22.574C6.69808 22.5232 6.60494 22.4978 6.56261 22.5232C6.52028 22.5571 6.46108 22.5402 6.42724 22.4978C6.40178 22.4471 6.32561 22.4302 6.25792 22.464C6.19023 22.4895 6.13094 22.464 6.13094 22.4048C6.13094 22.3455 6.07173 22.3201 6.00404 22.354C5.93626 22.3793 5.87706 22.3625 5.87706 22.3117C5.87706 22.2608 5.82625 22.2355 5.75856 22.2608C5.69087 22.2863 5.62318 22.2863 5.60622 22.2525C5.58925 22.2186 5.4369 22.1255 5.26768 22.0323C5.09837 21.9478 4.95451 21.8546 4.96299 21.8208C4.97987 21.7615 4.75984 21.2876 4.69215 21.2199C4.66679 21.1944 4.63285 21.1014 4.62446 21.0082C4.60749 20.9151 4.55668 20.8305 4.52284 20.8136C4.48051 20.7966 4.47211 20.7289 4.49747 20.6612C4.52283 20.5935 4.49748 20.5427 4.43818 20.5427C4.38737 20.5427 4.37049 20.5004 4.39585 20.4581C4.42979 20.4074 4.40433 20.3142 4.35361 20.2465C4.29432 20.1787 4.27744 20.1195 4.31129 20.1195C4.34513 20.1195 4.32816 20.0688 4.27744 20.001C4.22663 19.9418 4.20127 19.8318 4.23511 19.7556C4.26047 19.6879 4.24351 19.6033 4.19279 19.5779C4.14197 19.544 4.12501 19.4678 4.15046 19.4086C4.17582 19.3408 4.15894 19.2647 4.10813 19.2393C4.05732 19.2055 4.04044 19.1293 4.07429 19.0616C4.09965 18.9853 4.08277 18.8838 4.03196 18.8246C3.98963 18.7738 3.9473 18.6638 3.93882 18.5961C3.91346 18.2406 3.87113 17.9444 3.82032 17.792C3.79496 17.6989 3.74424 17.3604 3.71878 17.0387C3.69342 16.7171 3.65958 16.4293 3.63413 16.404C3.58341 16.3108 3.46491 14.0595 3.46491 13.0523C3.46491 12.0196 3.56644 10.3185 3.64261 10.2084C3.66797 10.1661 3.70182 10.0307 3.71878 9.90379C3.77799 9.51444 3.80344 9.4213 3.87113 9.3028C3.91346 9.25208 3.92194 9.16742 3.8881 9.1251C3.86264 9.08277 3.87961 9.02347 3.93043 8.98963C3.98115 8.95578 3.99812 8.90506 3.97266 8.86274C3.9473 8.82041 3.96427 8.76959 4.01499 8.73575C4.0658 8.70191 4.08277 8.64261 4.05732 8.60028C4.02348 8.55805 4.04883 8.52411 4.09965 8.52411C4.15046 8.52411 4.16734 8.48178 4.14198 8.43955C4.11662 8.38873 4.13349 8.35489 4.19279 8.35489C4.25199 8.35489 4.26896 8.32944 4.24351 8.29559C4.20966 8.27023 4.26047 8.18558 4.35361 8.12637C4.44666 8.05859 4.49748 7.96554 4.47212 7.91473C4.43818 7.86392 4.45515 7.84704 4.50596 7.88089C4.55668 7.90634 4.66679 7.83856 4.75984 7.72006C4.85288 7.61004 4.94603 7.54235 4.97987 7.56771C5.00532 7.59317 5.03068 7.5762 5.03068 7.51699C5.03068 7.4577 5.07301 7.44082 5.11534 7.46618C5.16606 7.49154 5.19999 7.47457 5.19999 7.42385C5.19999 7.37304 5.24223 7.35617 5.28456 7.38153C5.33537 7.40689 5.36921 7.39001 5.36921 7.33071C5.36921 7.27151 5.39457 7.25454 5.42851 7.27999C5.45387 7.31384 5.53004 7.29687 5.59773 7.24615C5.65703 7.19534 5.70775 7.17837 5.70775 7.21221C5.70775 7.24615 5.75856 7.22918 5.82625 7.17837C5.89403 7.12765 6.05477 7.05987 6.18175 7.04299C6.31713 7.01754 6.59645 6.96682 6.8081 6.92449C7.67135 6.7383 12.0641 6.89065 12.7158 7.12765C12.7751 7.15301 13.0459 7.19534 13.3083 7.2207C13.5706 7.24615 13.8585 7.30535 13.943 7.34768C14.0192 7.39849 14.1208 7.41537 14.1547 7.39001C14.197 7.36465 14.3747 7.39001 14.5609 7.43234C14.7387 7.47457 14.9672 7.52539 15.0602 7.55084C15.1534 7.56771 15.3227 7.60156 15.4412 7.63549C15.7204 7.71167 16.0421 7.77087 16.2029 7.77936C16.2706 7.77936 16.3721 7.82168 16.4314 7.86392C16.4906 7.90634 16.5753 7.92322 16.6176 7.89786C16.66 7.86392 16.7192 7.88089 16.753 7.92322C16.7785 7.96554 16.8631 8.00787 16.9477 7.99939C17.0238 7.99939 17.1847 8.02475 17.3032 8.05859C17.4217 8.08404 17.5571 8.11789 17.5994 8.12637C17.6502 8.14325 17.7349 8.17709 17.7941 8.21094C17.8449 8.25326 17.9295 8.26175 17.9718 8.2279C18.0142 8.20254 18.0819 8.2279 18.1072 8.27872C18.1411 8.32104 18.2172 8.3464 18.2765 8.32104C18.3357 8.30408 18.4119 8.30408 18.4373 8.33792C18.4712 8.36337 18.5982 8.40561 18.7251 8.42258C18.8436 8.43954 18.9959 8.49027 19.0552 8.54108C19.1144 8.58341 19.1991 8.60028 19.2499 8.56644C19.2921 8.54108 19.3345 8.55805 19.3345 8.60877C19.3345 8.66806 19.3853 8.69342 19.453 8.66806C19.5123 8.64261 19.6053 8.65958 19.6392 8.69342C19.6815 8.73575 19.7916 8.78656 19.8846 8.80344C19.9777 8.81192 20.1047 8.85425 20.164 8.88809C20.2147 8.93042 20.3078 8.93042 20.3502 8.90506C20.401 8.87961 20.4348 8.89658 20.4348 8.9473C20.4348 9.00659 20.494 9.03196 20.5617 8.99811C20.6295 8.97275 20.6887 8.98963 20.6887 9.04044C20.6887 9.09125 20.748 9.11661 20.8157 9.09125C20.8834 9.05741 20.9595 9.07428 20.9849 9.1251C21.0188 9.16742 21.0696 9.1843 21.1119 9.15894C21.1542 9.13349 21.205 9.15046 21.2389 9.20127C21.2727 9.25208 21.332 9.26896 21.3742 9.2436C21.4166 9.20966 21.4504 9.22663 21.4504 9.27744C21.4504 9.34513 21.8059 9.46363 22.0176 9.47211C22.0599 9.47211 22.1361 9.50596 22.1953 9.55668C22.246 9.60749 22.2968 9.61597 22.2968 9.57365C22.2968 9.53132 22.3307 9.54829 22.3645 9.59901C22.3984 9.6583 22.5084 9.7175 22.5931 9.73447C22.6861 9.75135 22.847 9.80216 22.9485 9.86146C23.0501 9.92066 23.2193 9.97996 23.3295 9.99683C23.4395 10.0222 23.541 10.0392 23.5664 10.0476C23.5918 10.0645 23.6341 10.0645 23.6765 10.0561C23.7102 10.0561 23.7357 10.09 23.7357 10.1492C23.7357 10.2 23.761 10.2169 23.7949 10.1915C23.8203 10.1577 23.8965 10.1746 23.9642 10.2254C24.0234 10.2762 24.0742 10.293 24.0742 10.2508C24.0742 10.2084 24.1081 10.2254 24.142 10.2762C24.1757 10.3354 24.3027 10.4031 24.4127 10.42C24.5312 10.437 24.6413 10.4624 24.6667 10.4708C24.6921 10.4877 24.7344 10.4877 24.7767 10.4792C24.8106 10.4792 24.8359 10.5132 24.8359 10.5639C24.8359 10.6147 24.8952 10.6401 24.9629 10.6062C25.0306 10.5809 25.0899 10.5977 25.0899 10.6485C25.0899 10.6994 25.1237 10.7163 25.1661 10.6824C25.2084 10.657 25.2676 10.6739 25.3014 10.7247C25.3353 10.7755 25.3946 10.7924 25.4369 10.767C25.4792 10.7332 25.5131 10.7586 25.5131 10.8179C25.5131 10.8771 25.5385 10.894 25.5723 10.8686C25.5977 10.8347 25.6739 10.8517 25.7416 10.9025C25.8008 10.9532 25.8516 10.9702 25.8516 10.9364C25.8516 10.9025 25.9108 10.9194 25.9786 10.9787C26.0463 11.0379 26.1055 11.0549 26.1055 11.0125C26.1055 10.9702 26.1394 10.9871 26.1733 11.0379C26.2071 11.0971 26.334 11.1649 26.444 11.1817C26.5626 11.1987 26.6726 11.2241 26.698 11.2326C26.7234 11.2495 26.7657 11.2495 26.808 11.241C26.8419 11.241 26.8672 11.2664 26.8672 11.3172C26.8672 11.3679 26.8927 11.3934 26.935 11.3934C26.9688 11.3849 27.0197 11.3934 27.0619 11.4019C27.0958 11.4103 27.1465 11.4272 27.1889 11.4357C27.2227 11.4442 27.3327 11.4949 27.4344 11.5541C27.5359 11.6049 27.7052 11.6727 27.8152 11.6896C27.9252 11.715 28.0269 11.7319 28.0522 11.7404C28.0776 11.7573 28.1199 11.7573 28.1622 11.7488C28.1961 11.7488 28.2215 11.7827 28.2215 11.8335C28.2215 11.8758 28.2553 11.9012 28.2976 11.8673C28.3399 11.8419 28.3992 11.8589 28.4331 11.9097C28.4669 11.9604 28.5177 11.9774 28.5601 11.952C28.6023 11.9266 28.6531 11.9435 28.687 11.9943C28.7208 12.0451 28.7801 12.062 28.8224 12.0366C28.8647 12.0028 28.8986 12.0281 28.8986 12.0789C28.8986 12.1381 28.9578 12.1636 29.0256 12.1297C29.0933 12.1043 29.1525 12.1213 29.1525 12.1721C29.1525 12.2228 29.1863 12.2398 29.2287 12.2059C29.271 12.1806 29.3302 12.1974 29.3641 12.2482C29.398 12.299 29.4572 12.3159 29.4995 12.2905C29.5418 12.2566 29.5757 12.2736 29.5757 12.3244C29.5757 12.3667 29.7027 12.4344 29.855 12.4683C30.2443 12.5613 30.2443 12.5613 30.3205 12.5868C30.3544 12.5953 30.4051 12.6037 30.4475 12.5953C30.4814 12.5953 30.5067 12.6291 30.5067 12.6798C30.5067 12.7306 30.566 12.756 30.6337 12.7222C30.7014 12.6968 30.7607 12.7138 30.7607 12.7645C30.7607 12.8153 30.8199 12.8407 30.8876 12.8068C30.9553 12.7815 31.0146 12.7983 31.0146 12.8491C31.0146 12.9 31.0484 12.9168 31.0907 12.883C31.1331 12.8576 31.1923 12.8745 31.2261 12.9253C31.2599 12.9761 31.3108 12.993 31.3531 12.9676C31.3954 12.9423 31.4462 12.9592 31.48 13.01C31.5139 13.0608 31.5647 13.0777 31.607 13.0523C31.6493 13.0268 31.7001 13.0438 31.7339 13.0945C31.7678 13.1453 31.8271 13.1623 31.8693 13.137C31.9117 13.103 31.9455 13.1285 31.9455 13.1793C31.9455 13.2385 32.0048 13.2638 32.0725 13.23C32.1402 13.2046 32.1995 13.2215 32.1995 13.2723C32.1995 13.3231 32.2587 13.3485 32.3265 13.3147C32.3941 13.2892 32.4533 13.3147 32.4533 13.3654C32.4533 13.4162 32.4788 13.4332 32.5126 13.4077C32.538 13.3739 32.6057 13.3908 32.665 13.4332C32.7158 13.4755 32.8343 13.5262 32.9273 13.5432C33.012 13.5601 33.1559 13.6024 33.232 13.6362C33.3082 13.6702 33.4437 13.7125 33.5282 13.7294C33.6129 13.7463 33.6891 13.7632 33.706 13.7717C33.7145 13.7887 33.7652 13.8055 33.8076 13.814C33.8584 13.8225 33.9092 13.8479 33.9346 13.8564C33.9599 13.8648 34.0022 13.8817 34.0446 13.8987C34.0784 13.9071 34.1716 13.941 34.2477 13.9749C34.3239 14.0087 34.4339 14.0425 34.5016 14.0595C34.5609 14.0679 34.6624 14.1017 34.7217 14.1357C34.7725 14.1779 34.8571 14.1864 34.8994 14.161C34.9418 14.1272 34.9925 14.1526 35.0095 14.2034C35.0263 14.2542 35.1448 14.3049 35.2718 14.3049C35.3988 14.3134 35.5003 14.3557 35.5003 14.398C35.5003 14.4319 35.5511 14.4489 35.6188 14.4234C35.6781 14.398 35.7797 14.4234 35.8305 14.4742C35.8812 14.525 35.9235 14.5334 35.9235 14.4996C35.9235 14.4572 35.9828 14.4742 36.0505 14.5334C36.1182 14.5927 36.1775 14.6096 36.1775 14.5757C36.1775 14.5419 36.2367 14.5588 36.3044 14.6181C36.3722 14.6689 36.4652 14.6942 36.516 14.6604C36.5583 14.635 36.6007 14.6519 36.6007 14.7027C36.6007 14.7619 36.6514 14.7874 36.7192 14.7619C36.7784 14.7366 36.8801 14.7619 36.9308 14.8127C36.9814 14.8636 37.0237 14.872 37.0237 14.8381C37.0237 14.7959 37.0748 14.8127 37.1424 14.8636C37.21 14.9143 37.2948 14.9566 37.3286 14.9481C37.3708 14.9397 37.5147 14.9736 37.6418 15.0243C37.777 15.0836 37.9126 15.109 37.9548 15.0836C37.997 15.0582 38.0481 15.0751 38.0819 15.1259C38.1157 15.1766 38.1664 15.1936 38.2086 15.1682C38.2512 15.1428 38.3019 15.1598 38.3357 15.2021C38.361 15.2529 38.4375 15.2698 38.4966 15.2444C38.5642 15.219 38.6405 15.2444 38.6744 15.2867C38.6997 15.3375 38.7672 15.3629 38.8095 15.3291C38.8521 15.3036 38.945 15.3291 39.013 15.3798C39.0806 15.439 39.1397 15.456 39.1397 15.4221C39.1397 15.3883 39.1988 15.4053 39.2668 15.4645C39.3344 15.5153 39.4277 15.5406 39.47 15.5153C39.5122 15.4814 39.5713 15.4983 39.6054 15.5491C39.6393 15.5999 39.6984 15.6168 39.7406 15.583C39.7828 15.5576 39.8762 15.583 39.9438 15.6337C40.0116 15.6845 40.1046 15.7099 40.1468 15.6845C40.1894 15.6506 40.2485 15.6676 40.2824 15.7184C40.3161 15.7691 40.3756 15.7861 40.418 15.7523C40.4602 15.7268 40.5531 15.7523 40.621 15.803C40.6886 15.8538 40.7819 15.8792 40.8242 15.8538C40.8664 15.82 40.934 15.8453 40.9596 15.8961C40.9935 15.9385 41.0695 15.9638 41.1371 15.9385C41.1966 15.913 41.2726 15.93 41.298 15.9723C41.3233 16.0146 41.4081 16.0485 41.4927 16.0485C41.8482 16.057 41.9837 16.0823 42.0766 16.1585C42.1362 16.2008 42.2206 16.2177 42.2713 16.1838C42.3135 16.1585 42.4068 16.1585 42.4575 16.1923C42.5593 16.2601 42.6775 16.2855 43.1179 16.3447C43.2362 16.3616 43.3295 16.3785 43.3295 16.3955C43.3295 16.4124 43.49 16.4378 44.074 16.5225C44.3028 16.5478 44.582 16.607 44.7006 16.6579C44.8104 16.7002 44.9375 16.7171 44.9713 16.7002C44.9967 16.6832 45.2166 16.7002 45.4451 16.7425C45.6824 16.7933 46.0038 16.844 46.1646 16.861C46.3255 16.8779 46.9349 16.9372 47.5189 16.9964C48.9238 17.1487 52.1318 17.1403 53.3167 16.9964C53.8328 16.9287 54.3238 16.8695 54.4168 16.861C54.5101 16.8525 54.6794 16.8187 54.7976 16.7933C54.9163 16.7594 55.1279 16.7171 55.2633 16.7002C55.4074 16.6748 55.6358 16.624 55.7879 16.5817C55.9318 16.5309 56.0759 16.514 56.1012 16.5394C56.1265 16.5647 56.203 16.5394 56.2789 16.4801C56.3465 16.4209 56.406 16.404 56.406 16.4378C56.406 16.4717 56.4567 16.4547 56.5159 16.404C56.5838 16.3532 56.6599 16.3362 56.6852 16.37C56.719 16.3955 56.7954 16.37 56.8714 16.3108C56.939 16.2516 56.9985 16.2347 56.9985 16.2685C56.9985 16.3023 57.0576 16.2855 57.1252 16.2262C57.1932 16.167 57.2523 16.15 57.2523 16.1838C57.2523 16.2177 57.3114 16.1923 57.3963 16.1331C57.4723 16.0654 57.5483 16.023 57.5657 16.0315C57.5741 16.0485 57.5994 16.057 57.6163 16.0485C57.6248 16.0485 57.7261 16.023 57.8448 16.0061C57.9549 15.9893 58.0817 15.9215 58.1155 15.8623C58.1496 15.8115 58.1834 15.7946 58.1834 15.8368C58.1834 15.8792 58.2341 15.8623 58.2933 15.8115C58.3612 15.7607 58.4372 15.7438 58.4626 15.7776C58.4963 15.803 58.5217 15.7776 58.5217 15.7184C58.5217 15.6591 58.5474 15.6253 58.5728 15.6591C58.6319 15.7184 59.8164 15.1344 59.8589 15.0243C59.8764 14.9905 59.9271 14.9736 59.9695 15.0074C60.011 15.0328 60.0451 15.0074 60.0451 14.9566C60.0451 14.9058 60.0876 14.8889 60.13 14.9143C60.1807 14.9397 60.2148 14.9228 60.2148 14.872C60.2148 14.8212 60.2572 14.8043 60.2997 14.8296C60.3504 14.8551 60.4094 14.8212 60.4343 14.7535C60.4601 14.6773 60.5191 14.6434 60.5616 14.6689C60.604 14.6942 60.6381 14.6689 60.6381 14.6181C60.6381 14.5673 60.6805 14.5504 60.7229 14.5757C60.7737 14.6012 60.8327 14.5673 60.8576 14.4996C60.8834 14.4234 60.9424 14.3896 60.9848 14.4149C61.0273 14.4404 61.0863 14.398 61.1121 14.3304C61.137 14.2542 61.196 14.2202 61.2384 14.2457C61.2809 14.2711 61.3408 14.2287 61.3657 14.161C61.3906 14.0849 61.4505 14.0425 61.4847 14.0679C61.5179 14.0934 61.6027 14.0425 61.6617 13.9579C61.7724 13.8309 61.7632 13.8225 61.6368 13.9325C61.4847 14.0425 61.433 13.9833 61.4754 13.7463C61.4847 13.7125 61.374 13.7379 61.2301 13.814C61.0946 13.8902 60.9765 13.9833 60.9765 14.0341C60.9765 14.0849 60.9424 14.0934 60.8917 14.0679C60.8493 14.0425 60.8069 14.0595 60.8069 14.1102C60.8069 14.161 60.7737 14.1779 60.7229 14.1526C60.6805 14.1272 60.6381 14.1441 60.6381 14.1949C60.6381 14.2457 60.604 14.2626 60.5533 14.2372C60.5108 14.2119 60.4684 14.2202 60.4684 14.2542C60.4684 14.2964 60.3836 14.3387 60.2821 14.3387C60.1724 14.3472 60.0793 14.398 60.0617 14.4489C60.0451 14.4911 59.9944 14.5165 59.952 14.4826C59.9105 14.4572 59.8764 14.4826 59.8764 14.5334C59.8764 14.5842 59.8423 14.6096 59.7998 14.5757C59.7574 14.5504 59.6985 14.5673 59.6644 14.6181C59.6306 14.6689 59.5714 14.6858 59.5292 14.6604C59.4866 14.6266 59.4528 14.6519 59.4528 14.7027C59.4528 14.7535 59.419 14.7789 59.3767 14.7451C59.3345 14.7197 59.275 14.7366 59.2413 14.7874C59.2074 14.8381 59.1568 14.8551 59.1146 14.8296C59.0719 14.8043 59.0212 14.8212 58.9874 14.872C58.9536 14.9228 58.9025 14.9397 58.8603 14.9143C58.8181 14.8889 58.7675 14.9058 58.7336 14.9566C58.6995 15.0074 58.6488 15.0243 58.6065 14.9989C58.5643 14.9736 58.5132 14.9905 58.4795 15.0328C58.4541 15.0836 58.3781 15.1005 58.3101 15.0666C58.2425 15.0413 58.1834 15.0666 58.1834 15.1259C58.1834 15.1851 58.124 15.2106 58.0564 15.1851C57.9888 15.1513 57.9123 15.1683 57.887 15.219C57.8532 15.2613 57.7941 15.2783 57.7519 15.2444C57.7092 15.219 57.6163 15.2444 57.5483 15.2951C57.4807 15.346 57.3879 15.3713 57.3453 15.346C57.303 15.3121 57.2438 15.3291 57.2101 15.3798C57.1763 15.4306 57.1252 15.4475 57.083 15.4221C57.0408 15.3968 56.9306 15.4052 56.8546 15.456C56.7701 15.4983 56.5243 15.5491 56.3043 15.5745C56.0843 15.5999 55.8727 15.6422 55.8305 15.6676C55.7967 15.693 55.5763 15.7268 55.3394 15.7523C55.111 15.7776 54.527 15.8368 54.0363 15.8961C52.8851 16.023 48.7717 15.9468 47.4344 15.7691C46.9011 15.7015 46.2748 15.6168 46.0379 15.5914C45.8091 15.566 45.5385 15.5153 45.4451 15.4898C45.3522 15.4645 45.1829 15.4306 45.0647 15.4136C44.946 15.3968 44.7598 15.3713 44.6411 15.346C44.5229 15.3291 44.2944 15.2867 44.1335 15.2529C43.9726 15.2275 43.7611 15.1851 43.6677 15.1682C43.5749 15.1513 43.3633 15.109 43.2024 15.0836C43.0416 15.0666 42.813 15.0159 42.6945 14.9905C42.5761 14.9566 42.4491 14.9397 42.4068 14.9481C42.3731 14.9566 42.2882 14.9228 42.2375 14.872C42.1784 14.8296 42.102 14.8127 42.0766 14.8466C42.0428 14.872 41.9752 14.8551 41.9158 14.8127C41.8567 14.7619 41.7468 14.7197 41.6789 14.7197C41.6113 14.7197 41.4588 14.6942 41.3402 14.6604C41.2219 14.6266 41.0526 14.5927 40.9596 14.5757C40.8664 14.5588 40.7735 14.5419 40.7477 14.5334C40.7224 14.525 40.6717 14.5165 40.6295 14.525C40.5957 14.5334 40.5108 14.4996 40.4517 14.4489C40.3926 14.398 40.3078 14.3641 40.2739 14.3726C40.2317 14.3811 40.181 14.3726 40.1553 14.3641C40.13 14.3557 40.037 14.3304 39.9438 14.3134C39.8508 14.288 39.7406 14.2626 39.6899 14.2542C39.6477 14.2457 39.5544 14.2034 39.5037 14.1694C39.4446 14.1272 39.3598 14.1187 39.3175 14.1526C39.2753 14.1779 39.2161 14.161 39.182 14.1187C39.1566 14.0679 39.0806 14.051 39.013 14.0849C38.945 14.1102 38.8859 14.0849 38.8859 14.0256C38.8859 13.9664 38.8267 13.941 38.7589 13.9664C38.6913 14.0002 38.6152 13.9833 38.5811 13.9325C38.5557 13.8817 38.4797 13.8648 38.4117 13.8902C38.3442 13.9156 38.2934 13.8987 38.2934 13.8479C38.2934 13.7971 38.2428 13.7717 38.1748 13.7971C38.1156 13.8225 38.0139 13.7971 37.9633 13.7463C37.9126 13.6955 37.8703 13.687 37.8703 13.7209C37.8703 13.7632 37.8109 13.7463 37.7433 13.687C37.6757 13.6278 37.6162 13.6109 37.6162 13.6447C37.6162 13.6786 37.557 13.6617 37.4895 13.6024C37.4215 13.5517 37.3286 13.5262 37.2778 13.5601C37.2352 13.5855 37.193 13.5685 37.193 13.5178C37.193 13.4585 37.1424 13.4332 37.0748 13.4585C37.0153 13.4839 36.9138 13.4585 36.8632 13.4077C36.8121 13.357 36.7699 13.3485 36.7699 13.3824C36.7699 13.4247 36.7107 13.4077 36.643 13.3485C36.5752 13.2892 36.516 13.2723 36.516 13.3062C36.516 13.34 36.4567 13.3231 36.389 13.2638C36.3213 13.2046 36.262 13.1877 36.262 13.2215C36.262 13.2555 36.2028 13.2385 36.1352 13.1793C36.0674 13.12 36.0082 13.103 36.0082 13.137C36.0082 13.1708 35.9489 13.1538 35.8812 13.0945C35.8135 13.0353 35.7542 13.0184 35.7542 13.0523C35.7542 13.0861 35.695 13.0692 35.6273 13.01C35.5595 12.9507 35.5003 12.9338 35.5003 12.9676C35.5003 13.0015 35.4411 12.9846 35.3734 12.9253C35.3057 12.8661 35.2464 12.8491 35.2464 12.883C35.2464 12.9168 35.1872 12.8999 35.1195 12.8407C35.0518 12.7815 34.9925 12.7645 34.9925 12.7983C34.9925 12.8322 34.9333 12.8153 34.8656 12.756C34.7978 12.6968 34.7386 12.6798 34.7386 12.7222C34.7386 12.7645 34.7048 12.7476 34.6624 12.6883C34.6201 12.6206 34.4931 12.5613 34.3662 12.5613C34.2477 12.5529 34.1461 12.5191 34.1461 12.4768C34.1461 12.4429 34.1207 12.426 34.0869 12.426C34.0446 12.4344 33.9938 12.426 33.9599 12.4175C33.9176 12.409 33.8669 12.3921 33.833 12.3751C33.7907 12.3667 33.6299 12.299 33.469 12.2313C33.3082 12.1551 33.1474 12.1128 33.1135 12.1297C33.0712 12.1551 33.0458 12.1297 33.0458 12.0789C33.0458 12.0196 32.9866 11.9943 32.9189 12.0281C32.8512 12.0536 32.792 12.0366 32.792 11.9859C32.792 11.9351 32.7581 11.9181 32.7158 11.952C32.6735 11.9774 32.6142 11.9604 32.5803 11.9097C32.5465 11.8589 32.4872 11.8419 32.445 11.8673C32.4026 11.9012 32.3688 11.8758 32.3688 11.8166C32.3688 11.7573 32.3433 11.7404 32.3095 11.7658C32.2841 11.7996 32.208 11.7827 32.1402 11.7319C32.081 11.6811 32.0302 11.6642 32.0302 11.7066C32.0302 11.7488 31.9963 11.7319 31.954 11.6727C31.9201 11.6134 31.8016 11.5541 31.7086 11.5457C31.607 11.5372 31.5224 11.5034 31.5224 11.4611C31.5224 11.4272 31.4886 11.4103 31.4462 11.4442C31.4039 11.4696 31.3446 11.4526 31.3108 11.4019C31.2769 11.3511 31.2176 11.3341 31.1754 11.3595C31.1331 11.3934 31.0992 11.3679 31.0992 11.3172C31.0992 11.2664 31.0653 11.241 31.023 11.2749C30.9807 11.3002 30.9214 11.2834 30.8876 11.2326C30.8537 11.1817 30.7944 11.1649 30.7522 11.1902C30.7099 11.2241 30.6759 11.1987 30.6759 11.1479C30.6759 11.0971 30.6422 11.0802 30.5914 11.1056C30.549 11.131 30.5067 11.1225 30.5067 11.0802C30.5067 11.004 30.1089 10.8517 29.982 10.8771C29.9397 10.8855 29.9142 10.8517 29.9142 10.8009C29.9142 10.7586 29.8804 10.7332 29.838 10.767C29.7957 10.7924 29.7365 10.7755 29.7027 10.7247C29.6688 10.6739 29.6095 10.657 29.5672 10.6824C29.5249 10.7163 29.4911 10.6909 29.4911 10.6401C29.4911 10.5893 29.4572 10.5724 29.4064 10.5977C29.3641 10.6232 29.3218 10.6062 29.3218 10.5639C29.3218 10.5132 29.2964 10.4792 29.2625 10.4877C29.2203 10.4962 29.1102 10.4624 29.0171 10.4031C28.9155 10.3523 28.8139 10.3354 28.7801 10.3608C28.7547 10.3862 28.7293 10.3693 28.7293 10.31C28.7293 10.2508 28.6954 10.2338 28.6446 10.2592C28.6023 10.2846 28.5601 10.2677 28.5601 10.2169C28.5601 10.1661 28.5261 10.1492 28.4754 10.1746C28.4331 10.2 28.3908 10.183 28.3908 10.1407C28.3908 10.0899 28.3654 10.0561 28.3315 10.0645C28.2892 10.073 28.1453 10.0222 28.0014 9.93763C27.8576 9.86146 27.7137 9.82752 27.6799 9.85297C27.6544 9.88682 27.629 9.86146 27.629 9.80216C27.629 9.74296 27.5951 9.72599 27.5444 9.75135C27.5021 9.7768 27.4597 9.75983 27.4597 9.70911C27.4597 9.6583 27.4259 9.64133 27.3751 9.66679C27.3327 9.69215 27.2905 9.67518 27.2905 9.62446C27.2905 9.57365 27.2566 9.55668 27.2058 9.58213C27.1635 9.60749 27.1212 9.59061 27.1212 9.5398C27.1212 9.48899 27.0873 9.47211 27.0365 9.49747C26.9942 9.52283 26.9519 9.50596 26.9519 9.46363C26.9519 9.41282 26.9265 9.37897 26.8927 9.38746C26.8165 9.40433 25.1153 8.56644 24.9629 8.43955C24.9037 8.38873 24.8359 8.38025 24.8106 8.41409C24.7767 8.43955 24.7514 8.42258 24.7514 8.36337C24.7514 8.30408 24.7174 8.28711 24.6667 8.31256C24.6244 8.33792 24.5821 8.32104 24.5821 8.27023C24.5821 8.21942 24.5482 8.20254 24.4974 8.2279C24.4551 8.25326 24.4127 8.23639 24.4127 8.18558C24.4127 8.13476 24.3789 8.11789 24.3282 8.14325C24.2858 8.1687 24.2435 8.15173 24.2435 8.10101C24.2435 8.0502 24.2097 8.03323 24.1589 8.05859C24.1165 8.08404 24.0742 8.06708 24.0742 8.01626C24.0742 7.96554 24.0404 7.94857 23.9896 7.97403C23.9473 7.99939 23.9049 7.9909 23.9049 7.94009C23.9049 7.88937 23.8118 7.83017 23.6933 7.79623C23.5748 7.77087 23.4818 7.71167 23.4818 7.66085C23.4818 7.61853 23.4479 7.61004 23.3971 7.63549C23.3548 7.66085 23.3125 7.64389 23.3125 7.59317C23.3125 7.54235 23.2786 7.52539 23.2278 7.55084C23.1855 7.5762 23.1432 7.55932 23.1432 7.50003C23.1432 7.44082 23.1178 7.41537 23.0925 7.44921C23.067 7.47457 22.9655 7.42385 22.8639 7.3392C22.7708 7.24615 22.6608 7.19534 22.6185 7.2207C22.5846 7.24615 22.5508 7.2207 22.5508 7.16998C22.5508 7.11916 22.5168 7.1022 22.4661 7.12765C22.4238 7.15301 22.3815 7.14452 22.3815 7.0938C22.3815 7.04299 22.2884 6.9837 22.1698 6.94985C22.0514 6.92449 21.9583 6.8568 21.9583 6.80599C21.9583 6.75518 21.9329 6.7383 21.9074 6.77215C21.8821 6.79751 21.7806 6.74669 21.6789 6.66213C21.5859 6.56899 21.4759 6.51818 21.4335 6.54363C21.3997 6.56899 21.3658 6.54363 21.3658 6.48433C21.3658 6.42513 21.3404 6.39968 21.315 6.43361C21.2896 6.45897 21.1711 6.39968 21.0527 6.29815C20.9427 6.19661 20.7649 6.0866 20.6633 6.05275C20.5448 6.01042 20.5872 6.00194 20.7733 6.03578C20.9342 6.05275 21.9836 6.09508 23.1008 6.12044C24.7344 6.16277 25.3691 6.1458 26.3595 6.0273C27.0365 5.94264 27.6629 5.86647 27.756 5.85808C27.8491 5.8496 28.0606 5.81575 28.2215 5.78191C28.3823 5.74806 28.6193 5.70573 28.7547 5.68028C28.8816 5.66341 29.0763 5.62956 29.1948 5.60411C29.3133 5.57875 29.4911 5.54491 29.601 5.52794C29.7027 5.50258 29.8804 5.46873 29.9989 5.43489C30.1174 5.40095 30.2697 5.37559 30.3374 5.37559C30.4051 5.37559 30.5067 5.33327 30.566 5.29103C30.6252 5.24861 30.7099 5.23173 30.7522 5.25709C30.7944 5.29103 30.8537 5.27406 30.8876 5.22325C30.9214 5.17253 30.9807 5.15556 31.023 5.1894C31.0653 5.21476 31.1584 5.18941 31.2261 5.13859C31.2939 5.08787 31.3869 5.06242 31.4293 5.08787C31.4716 5.12172 31.5308 5.10475 31.5647 5.06242C31.5901 5.0117 31.6663 4.99473 31.7255 5.02019C31.7932 5.04555 31.8693 5.02019 31.9033 4.97786C31.9286 4.92704 31.9963 4.90168 32.0386 4.92704C32.081 4.96089 32.1656 4.9524 32.2248 4.91008C32.2756 4.87623 32.3772 4.8339 32.4365 4.82551C32.6311 4.7747 32.8343 4.73237 32.8765 4.7154C32.902 4.70701 32.9527 4.69853 32.995 4.70701C33.029 4.7154 33.1135 4.68156 33.1728 4.63084C33.2405 4.58003 33.4097 4.52921 33.5537 4.52921C33.6976 4.52073 33.833 4.48689 33.8584 4.44456C33.8837 4.41071 33.9346 4.39384 33.9769 4.4192C34.0192 4.44456 34.0699 4.42768 34.1039 4.38535C34.1292 4.33454 34.2054 4.31767 34.2646 4.34303C34.3324 4.36839 34.4085 4.34303 34.4424 4.3007C34.4678 4.24989 34.5354 4.22453 34.5778 4.24989C34.6201 4.28382 34.7048 4.27534 34.764 4.23301C34.8148 4.19917 34.9164 4.15684 34.9756 4.14835C35.1703 4.09754 35.3734 4.05521 35.4157 4.03834C35.4411 4.02985 35.4918 4.02146 35.5342 4.02985C35.5681 4.03834 35.6527 4.00449 35.7204 3.9452C35.7797 3.89448 35.8728 3.87751 35.9151 3.90287C35.9574 3.93671 36.0167 3.91984 36.0505 3.86902C36.0843 3.8183 36.1436 3.80134 36.186 3.83518C36.2282 3.86054 36.3213 3.83518 36.389 3.78437C36.4567 3.73365 36.5499 3.7082 36.5922 3.73365C36.6345 3.76749 36.6937 3.75062 36.7276 3.6998C36.7614 3.64899 36.8206 3.63202 36.8632 3.66596C36.9055 3.69132 36.9983 3.67435 37.0579 3.62363C37.1255 3.56434 37.21 3.53049 37.2437 3.53898C37.2863 3.54746 37.337 3.53897 37.3623 3.53049C37.3877 3.52201 37.481 3.50513 37.5739 3.48816C37.7264 3.4628 38.0055 3.39511 38.2512 3.32733C38.5895 3.23429 38.7926 3.18347 39.013 3.14963C39.1566 3.13266 39.4107 3.08194 39.5797 3.03961C39.7491 2.99729 39.9099 2.97193 39.9353 2.99729C39.9522 3.02265 40.0455 2.99729 40.1384 2.94647C40.2317 2.89575 40.4771 2.83646 40.6801 2.81958C40.8748 2.79413 41.3997 2.71796 41.8397 2.65027C44.1419 2.27789 48.2807 2.18475 50.6083 2.4556C52.2842 2.65875 52.4448 2.67563 52.6821 2.73492C52.8003 2.76877 52.9865 2.80261 53.1052 2.81958C53.2234 2.83646 53.4349 2.86182 53.5705 2.88727C53.7145 2.91263 53.9598 2.94647 54.1208 2.97193C54.2816 2.99729 54.5101 3.03961 54.6287 3.07346C54.747 3.09882 54.9923 3.14115 55.1701 3.1666C55.3563 3.18347 55.5763 3.24277 55.6697 3.28501C55.7541 3.33582 55.8474 3.36127 55.8643 3.33582C55.8896 3.31046 56.0505 3.32733 56.2198 3.36966C56.3891 3.41199 56.6599 3.47129 56.8207 3.49665C56.9816 3.51362 57.1421 3.55585 57.1932 3.58979C57.2438 3.61515 57.3625 3.64899 57.4555 3.66596C57.5572 3.68284 57.7261 3.71668 57.8448 3.74213C57.9634 3.77598 58.124 3.80134 58.2003 3.80134C58.2848 3.79285 58.3696 3.83518 58.395 3.87751C58.4287 3.91984 58.4879 3.93671 58.5305 3.90287C58.5728 3.87751 58.6656 3.89448 58.7252 3.9452C58.7927 4.00449 58.8773 4.03834 58.911 4.02985C58.9536 4.02146 59.0044 4.02985 59.0296 4.03834C59.1398 4.07218 59.4275 4.13987 59.563 4.14835C59.639 4.15684 59.707 4.19068 59.707 4.23301C59.707 4.27534 59.7657 4.29221 59.834 4.26685C59.9013 4.23301 59.9778 4.24989 60.011 4.3007C60.0368 4.35151 60.1134 4.36839 60.1724 4.34303C60.2314 4.32606 60.3753 4.35999 60.5025 4.4192C60.6206 4.48689 60.7229 4.51234 60.7229 4.48689C60.7229 4.46153 60.782 4.48689 60.8493 4.54618C60.9175 4.5969 61.0097 4.62236 61.0605 4.58851C61.1038 4.56306 61.1453 4.58003 61.1453 4.63084C61.1453 4.69004 61.2052 4.7154 61.2726 4.69004C61.3408 4.6562 61.4164 4.67308 61.4413 4.72389C61.4754 4.76622 61.5262 4.78318 61.5686 4.75773C61.611 4.73237 61.6617 4.74934 61.6958 4.80006C61.73 4.85087 61.7807 4.86775 61.8222 4.84239C61.8655 4.81703 61.9162 4.8339 61.9494 4.88472C61.9836 4.93544 62.0343 4.9524 62.0767 4.92704C62.1191 4.90168 62.1698 4.91856 62.203 4.96937C62.2381 5.02018 62.2971 5.03706 62.3386 5.0117C62.381 4.97786 62.4151 5.00322 62.4151 5.04554C62.4151 5.09636 62.441 5.13011 62.4834 5.13011C62.5166 5.12172 62.5673 5.13011 62.6097 5.13859C62.6439 5.14708 62.6946 5.16404 62.737 5.17253C62.7702 5.18092 62.8809 5.23173 62.9906 5.29103C63.092 5.35023 63.1769 5.37559 63.1769 5.35023C63.1769 5.32478 63.2617 5.35872 63.3714 5.43489C63.4821 5.50258 63.6001 5.53642 63.626 5.50258C63.6592 5.47713 63.685 5.49409 63.685 5.55339C63.685 5.61259 63.7274 5.62956 63.7689 5.60411C63.8206 5.57875 63.8538 5.59563 63.8538 5.64644C63.8538 5.69725 63.8962 5.71413 63.9386 5.68877C63.9893 5.66341 64.0234 5.68028 64.0234 5.7311C64.0234 5.78191 64.0575 5.80727 64.099 5.78191C64.1415 5.75646 64.218 5.7903 64.277 5.85808C64.3361 5.92577 64.4126 5.95961 64.455 5.93425C64.4974 5.9088 64.5306 5.93425 64.5306 5.98497C64.5306 6.03578 64.5731 6.05275 64.6155 6.0273C64.6662 6.00194 64.7003 6.01891 64.7003 6.06963C64.7003 6.12044 64.7427 6.13732 64.7852 6.11196C64.8359 6.0866 64.87 6.10347 64.87 6.1458C64.87 6.19661 64.929 6.23894 64.9973 6.23894C65.0646 6.23894 65.1236 6.28127 65.1236 6.33199C65.1236 6.37432 65.166 6.39129 65.2084 6.36593C65.2592 6.34047 65.3182 6.37432 65.344 6.4421C65.3689 6.51818 65.4196 6.57747 65.462 6.57747C65.5552 6.57747 66.4608 7.50003 66.41 7.55084C66.3851 7.5762 66.41 7.59317 66.4691 7.59317C66.529 7.59317 66.5456 7.62701 66.5198 7.67773C66.4949 7.72006 66.5115 7.76239 66.5622 7.76239C66.6129 7.76239 66.6387 7.79623 66.6046 7.83856C66.5797 7.88089 66.5963 7.94009 66.647 7.97403C66.766 8.0502 66.7577 8.71878 66.6304 8.84577C66.5714 8.90506 66.5539 8.9473 66.588 8.9473C66.6221 8.9473 66.5797 9.01499 66.5032 9.09974C66.4183 9.19278 66.3252 9.2436 66.2911 9.22663C66.2496 9.20966 66.173 9.21814 66.1223 9.26047C66.0633 9.29432 65.9785 9.32816 65.9277 9.32816C65.8853 9.33665 65.6741 9.38746 65.4703 9.44666C65.2758 9.50596 65.0895 9.53132 65.0646 9.50596C65.0388 9.4805 64.9539 9.49747 64.87 9.5398C64.7934 9.58213 64.5399 9.63294 64.3112 9.6583C64.0825 9.67518 63.6675 9.73447 63.388 9.78528C61.256 10.1407 57.371 10.09 54.0785 9.6583C53.5199 9.58213 52.8936 9.50596 52.6905 9.4805C52.4874 9.46363 52.2248 9.40433 52.1149 9.3621C51.9962 9.31977 51.8776 9.3028 51.8523 9.31977C51.8185 9.33665 51.6239 9.31977 51.4122 9.27744C51.2007 9.22663 50.9385 9.17591 50.8198 9.15894C50.7012 9.14197 50.5149 9.10813 50.3967 9.08277C50.278 9.0658 49.9989 9.02347 49.762 8.98963C49.5332 8.96427 49.2794 8.89658 49.1949 8.85425C49.1101 8.80344 49.0002 8.79495 48.9576 8.82041C48.9154 8.84577 48.7207 8.81192 48.5261 8.74414C48.3229 8.67645 48.1367 8.63422 48.0945 8.65958C48.0606 8.68494 47.9758 8.67645 47.9252 8.64261C47.866 8.60028 47.7643 8.56644 47.6883 8.54956C47.5358 8.52411 47.1634 8.45642 46.9096 8.39722C46.7994 8.38025 46.5709 8.33792 46.3847 8.31256C46.2069 8.28711 45.9784 8.2279 45.894 8.17709C45.8006 8.12637 45.7078 8.1094 45.6824 8.12637C45.6655 8.15173 45.5215 8.13476 45.3775 8.08404C45.2251 8.04172 45.0304 7.9909 44.9375 7.97403C44.8442 7.95706 44.7682 7.94009 44.7682 7.9317C44.7682 7.91473 44.6922 7.89786 44.5989 7.88089C44.4464 7.86392 44.1335 7.78775 43.922 7.72854C43.8794 7.71167 43.7695 7.67773 43.6935 7.64389C43.6171 7.61004 43.5157 7.60156 43.4647 7.62701C43.4224 7.66085 43.3548 7.63549 43.3295 7.58468C43.2953 7.54235 43.2193 7.51699 43.1602 7.54235C43.1007 7.55932 43.0246 7.55932 42.9908 7.52539C42.957 7.49154 42.8384 7.46618 42.7286 7.46618C42.5846 7.4577 42.5255 7.50851 42.5255 7.61853C42.5255 7.70318 42.5678 7.74542 42.61 7.72006C42.6606 7.6947 42.6945 7.71167 42.6945 7.76239C42.6945 7.8132 42.7371 7.83017 42.7793 7.80471C42.8299 7.77935 42.8638 7.79623 42.8638 7.84704C42.8638 7.89785 42.8975 7.92322 42.9401 7.89786C42.9824 7.86392 43.0331 7.88089 43.05 7.92322C43.0922 8.03323 44.2775 8.60877 44.3366 8.54956C44.3619 8.51572 44.3873 8.54108 44.3873 8.59189C44.3873 8.65109 44.4127 8.68494 44.4549 8.67645C44.489 8.66806 44.5989 8.70191 44.6922 8.76111C44.7935 8.81192 44.8952 8.82889 44.9291 8.80344C44.9544 8.77808 44.9797 8.79496 44.9797 8.85425C44.9797 8.91346 45.0136 8.93882 45.0558 8.90506C45.0984 8.87961 45.1575 8.89658 45.1914 8.9473C45.2251 8.99811 45.2846 9.01499 45.3268 8.98963C45.3691 8.95578 45.4029 8.98124 45.4029 9.04044C45.4029 9.09974 45.4283 9.11661 45.4624 9.09125C45.4877 9.05741 45.5637 9.07428 45.6313 9.1251C45.6908 9.17591 45.7415 9.19278 45.7415 9.15046C45.7415 9.10813 45.7753 9.1251 45.8091 9.17591C45.8432 9.23511 45.9531 9.29432 46.0379 9.31128C46.1309 9.31977 46.258 9.3621 46.3171 9.39594C46.3678 9.43827 46.4185 9.43827 46.4185 9.39594C46.4185 9.3621 46.4526 9.37897 46.4864 9.42979C46.5202 9.48899 46.6473 9.54829 46.7571 9.55668C46.8757 9.57365 46.994 9.61597 47.0198 9.64982C47.0535 9.69215 47.1718 9.73447 47.2989 9.73447C47.4175 9.74296 47.5189 9.78529 47.5189 9.82752C47.5189 9.86146 47.5696 9.87833 47.6375 9.85297C47.6967 9.82752 47.7984 9.85297 47.8491 9.90379C47.8998 9.95451 47.942 9.96299 47.942 9.92915C47.942 9.88682 48.0015 9.90379 48.0691 9.96299C48.1367 10.0222 48.1962 10.0392 48.1962 10.0053C48.1962 9.97148 48.2469 9.98835 48.3144 10.0392C48.3824 10.09 48.4669 10.1323 48.5007 10.1238C48.5429 10.1153 48.5939 10.1238 48.6193 10.1323C48.6447 10.1407 48.7207 10.1577 48.7886 10.1746C49.0594 10.2423 49.3047 10.3015 49.4909 10.3523C49.5927 10.3777 49.7451 10.4031 49.8211 10.4031C49.9056 10.3947 49.9905 10.437 50.0158 10.4792C50.0496 10.5216 50.1087 10.5385 50.1513 10.5047C50.1936 10.4792 50.278 10.4962 50.3375 10.5385C50.3967 10.5809 50.4981 10.6232 50.566 10.6232C50.6336 10.6317 50.7861 10.657 50.9043 10.6824C51.023 10.7078 51.2683 10.7417 51.4545 10.767C51.6407 10.7924 51.886 10.8347 52.0047 10.8686C52.1233 10.894 52.2927 10.9364 52.3856 10.9447C52.4789 10.9532 52.7073 10.9871 52.8936 11.0209C53.4523 11.1056 53.5874 11.1225 55.3057 11.2749C57.0492 11.4357 60.1641 11.4187 65.166 11.2326C69.0678 11.0887 77.7686 11.0379 80.9934 11.1394C85.928 11.3002 90.0244 11.5796 92.7577 11.9604C93.2741 12.0366 93.8413 12.1043 94.0276 12.1213C94.2138 12.1466 94.5016 12.189 94.662 12.2143C94.8225 12.2483 95.0346 12.2905 95.1277 12.299C95.2209 12.3159 95.4237 12.3413 95.5759 12.3667C95.7207 12.3921 95.966 12.4344 96.1098 12.4513C96.2537 12.4683 96.5073 12.5106 96.677 12.5529C96.854 12.5868 97.0495 12.6206 97.1169 12.6375C97.1851 12.646 97.3363 12.6798 97.4553 12.7053C97.5743 12.7306 97.8021 12.773 97.9634 12.7983C98.1239 12.8237 98.3185 12.8661 98.3867 12.8915C98.454 12.9253 98.5896 12.9592 98.6827 12.9761C98.7759 12.9846 98.9456 13.0268 99.0636 13.0523C99.1816 13.0861 99.3347 13.12 99.402 13.1285C99.4777 13.137 99.58 13.1708 99.639 13.213C99.6898 13.247 99.7746 13.2555 99.817 13.2215C99.8585 13.1962 99.9268 13.2215 99.9526 13.2723C99.9858 13.3147 100.062 13.34 100.13 13.3147C100.19 13.2892 100.265 13.3062 100.29 13.357C100.325 13.3993 100.375 13.4162 100.417 13.3908C100.46 13.3654 100.52 13.3908 100.545 13.4416C100.579 13.4839 100.654 13.5093 100.723 13.4839C100.782 13.4585 100.857 13.4755 100.883 13.5178C100.909 13.5601 100.985 13.577 101.053 13.5432C101.12 13.5178 101.179 13.5432 101.179 13.6024C101.179 13.6617 101.23 13.687 101.298 13.6617C101.365 13.6362 101.442 13.6362 101.476 13.6702C101.509 13.704 101.56 13.7294 101.586 13.7379C101.62 13.7379 101.713 13.7717 101.789 13.8055C101.865 13.8394 101.975 13.8732 102.042 13.8902C102.102 13.8987 102.204 13.9325 102.263 13.9664C102.313 14.0087 102.406 14.0087 102.449 13.9833C102.5 13.9579 102.534 13.9749 102.534 14.0341C102.534 14.0934 102.559 14.1102 102.593 14.0849C102.618 14.051 102.694 14.0679 102.762 14.1187C102.821 14.1694 102.872 14.1864 102.872 14.1526C102.872 14.1187 102.931 14.1357 102.999 14.1949C103.067 14.2542 103.126 14.2711 103.126 14.2287C103.126 14.1864 103.16 14.2034 103.194 14.2542C103.228 14.3134 103.338 14.3726 103.423 14.3896C103.515 14.4065 103.676 14.4572 103.769 14.5165C103.871 14.5673 103.972 14.5842 104.006 14.5588C104.031 14.5334 104.057 14.5419 104.057 14.5927C104.057 14.6773 104.446 14.8296 104.59 14.8043C104.624 14.7959 104.649 14.8296 104.649 14.8804C104.649 14.9228 104.692 14.9397 104.734 14.9143C104.785 14.8889 104.819 14.9058 104.819 14.9566C104.819 15.0074 104.861 15.0243 104.904 14.9989C104.954 14.9736 104.989 14.9905 104.989 15.0413C104.989 15.0921 105.03 15.109 105.073 15.0836C105.123 15.0582 105.157 15.0751 105.157 15.1259C105.157 15.1766 105.2 15.1936 105.242 15.1682C105.293 15.1428 105.326 15.1513 105.326 15.2021C105.326 15.2444 105.462 15.3291 105.623 15.3883C105.784 15.4475 105.919 15.5321 105.919 15.5745C105.919 15.6083 105.953 15.6253 105.996 15.5999C106.038 15.5745 106.097 15.6083 106.122 15.6845C106.148 15.7523 106.207 15.7861 106.258 15.7607C106.3 15.7353 106.342 15.7523 106.342 15.7946C106.342 15.8453 106.393 15.8876 106.46 15.8876C106.529 15.8876 106.605 15.9468 106.63 16.023C106.664 16.0992 106.706 16.1415 106.741 16.1162C106.766 16.0823 106.841 16.1246 106.901 16.2093C106.96 16.2855 107.037 16.3532 107.078 16.3616C107.189 16.37 108.416 17.6396 108.543 17.8766C108.602 17.9951 108.721 18.1559 108.806 18.249C108.89 18.3337 108.933 18.4353 108.907 18.4606C108.873 18.4861 108.907 18.5114 108.966 18.5114C109.025 18.5114 109.051 18.5368 109.025 18.5622C109 18.5961 109.017 18.6976 109.067 18.7992C109.127 18.8923 109.178 19.0023 109.186 19.0362C109.195 19.0785 109.211 19.1208 109.22 19.1462C109.229 19.1716 109.254 19.2223 109.262 19.2732C109.27 19.3155 109.288 19.3663 109.304 19.3747C109.364 19.4593 109.406 19.9503 109.406 20.7544C109.414 21.8123 109.398 21.9816 109.288 22.1255C109.245 22.1847 109.229 22.2693 109.254 22.3117C109.288 22.354 109.27 22.4133 109.22 22.4471C109.169 22.481 109.152 22.5317 109.178 22.574C109.203 22.6163 109.186 22.6672 109.136 22.701C109.085 22.7348 109.067 22.7857 109.093 22.828C109.118 22.8702 109.102 22.921 109.051 22.955C109 22.9887 108.983 23.048 109.008 23.0904C109.043 23.1327 109.025 23.1665 108.983 23.1665C108.907 23.1665 108.755 23.5644 108.78 23.6912C108.788 23.7336 108.755 23.759 108.704 23.759C108.662 23.759 108.644 23.7928 108.67 23.8436C108.696 23.8859 108.678 23.9282 108.628 23.9282C108.577 23.9282 108.56 23.9621 108.585 24.0129C108.611 24.0552 108.593 24.0976 108.543 24.0976C108.492 24.0976 108.475 24.1314 108.501 24.1821C108.526 24.2245 108.51 24.2668 108.45 24.2668C108.391 24.2668 108.366 24.2922 108.399 24.3176C108.425 24.343 108.391 24.4276 108.323 24.5038C108.255 24.5884 108.213 24.6646 108.221 24.69C108.23 24.7154 108.17 24.8085 108.095 24.9016C108.018 24.9947 107.951 25.1048 107.959 25.147C107.959 25.1893 107.917 25.2486 107.858 25.291C107.799 25.3248 107.739 25.4348 107.722 25.5279C107.704 25.6548 107.748 25.7057 107.866 25.7057C107.959 25.7057 108.035 25.6633 108.035 25.6125C108.035 25.5703 108.077 25.5533 108.119 25.5787C108.17 25.604 108.204 25.5872 108.204 25.5279C108.204 25.4687 108.23 25.4433 108.255 25.4771C108.289 25.5025 108.433 25.4687 108.577 25.3925C108.721 25.3163 108.89 25.2401 108.958 25.2317C109.025 25.2148 109.102 25.164 109.136 25.1132C109.169 25.054 109.22 25.0201 109.254 25.0201C109.355 25.0286 109.897 24.7408 109.897 24.6731C109.897 24.6308 109.931 24.6138 109.965 24.6392C110.007 24.6646 110.117 24.6138 110.21 24.5207C110.312 24.4361 110.405 24.3853 110.439 24.4107C110.465 24.4361 110.507 24.3938 110.54 24.3176C110.566 24.2414 110.625 24.2076 110.667 24.2329C110.71 24.2583 110.769 24.2161 110.794 24.1483C110.82 24.0721 110.879 24.0299 110.921 24.0552C110.955 24.0806 111.031 24.0214 111.082 23.9282C111.133 23.8352 111.209 23.7759 111.251 23.8013C111.294 23.8267 111.395 23.7505 111.472 23.632C111.547 23.522 111.632 23.4374 111.666 23.4627C111.751 23.5135 112.454 22.7941 112.385 22.7264C112.36 22.6925 112.42 22.6333 112.513 22.574C112.614 22.5232 112.673 22.4471 112.648 22.4133C112.622 22.371 112.665 22.3117 112.74 22.2863C112.809 22.2608 112.843 22.2016 112.817 22.1508C112.792 22.1085 112.8 22.0662 112.843 22.0662C112.927 22.0662 113.164 21.5584 113.131 21.4483C113.121 21.4146 113.155 21.3891 113.206 21.3891C113.257 21.3891 113.283 21.3299 113.257 21.2621C113.224 21.1944 113.24 21.1183 113.283 21.0929C113.376 21.0336 113.368 19.4509 113.274 19.3917C113.24 19.3747 113.224 19.2985 113.249 19.2393C113.274 19.1716 113.249 19.0955 113.206 19.0616C113.155 19.0362 113.131 18.9685 113.155 18.9261C113.19 18.8838 113.164 18.85 113.121 18.85C113.071 18.85 113.037 18.8246 113.037 18.7823C113.062 18.6638 112.843 18.1729 112.758 18.1729C112.716 18.1729 112.707 18.1306 112.732 18.0882C112.758 18.0374 112.74 18.0036 112.699 18.0036C112.648 18.0036 112.606 17.9444 112.606 17.8766C112.606 17.8089 112.572 17.7497 112.521 17.7497C112.479 17.7497 112.436 17.6904 112.436 17.6227C112.436 17.5634 112.369 17.4619 112.292 17.4196C112.207 17.3688 112.183 17.3265 112.225 17.3265C112.276 17.3265 112.098 17.1234 111.836 16.8779C111.581 16.6409 111.446 16.497 111.539 16.5647C111.683 16.6663 111.683 16.6494 111.514 16.4632C111.403 16.3362 111.285 16.2516 111.243 16.2685C111.209 16.2939 111.057 16.1585 110.913 15.9723C110.769 15.7861 110.599 15.6337 110.548 15.6337C110.489 15.6337 110.396 15.5576 110.337 15.4645C110.278 15.3713 110.185 15.2951 110.117 15.2951C110.05 15.2951 109.981 15.2359 109.948 15.1682C109.922 15.1005 109.846 15.0413 109.778 15.0413C109.719 15.0413 109.635 14.9821 109.61 14.9058C109.584 14.8381 109.525 14.8043 109.474 14.8296C109.432 14.8551 109.389 14.8466 109.389 14.8043C109.389 14.7112 108.712 14.2457 108.712 14.3387C108.712 14.3811 108.67 14.3387 108.619 14.2542C108.569 14.1779 108.501 14.1272 108.45 14.1526C108.407 14.1864 108.374 14.161 108.374 14.1187C108.374 14.0679 108.315 14.0256 108.247 14.0256C108.179 14.0256 108.119 13.9833 108.119 13.924C108.119 13.8732 108.095 13.8479 108.069 13.8817C108.044 13.9071 107.942 13.8564 107.84 13.7717C107.748 13.6786 107.637 13.6278 107.595 13.6532C107.562 13.6786 107.527 13.6532 107.527 13.6024C107.527 13.5517 107.493 13.5347 107.443 13.5601C107.4 13.5855 107.358 13.577 107.358 13.5262C107.358 13.4755 107.265 13.4162 107.147 13.3824C107.028 13.357 106.935 13.2977 106.935 13.247C106.935 13.2046 106.901 13.1962 106.851 13.2215C106.808 13.247 106.766 13.23 106.766 13.1793C106.766 13.1285 106.732 13.1115 106.681 13.137C106.638 13.1623 106.596 13.1453 106.596 13.0945C106.596 13.0438 106.563 13.0268 106.511 13.0523C106.47 13.0777 106.427 13.0608 106.427 13.01C106.427 12.9592 106.393 12.9423 106.342 12.9676C106.3 12.993 106.258 12.9761 106.258 12.9253C106.258 12.8745 106.223 12.8576 106.174 12.883C106.13 12.9084 106.089 12.8915 106.089 12.8407C106.089 12.7899 106.055 12.773 106.004 12.7983C105.953 12.8237 105.919 12.8068 105.919 12.756C105.919 12.7053 105.877 12.6883 105.834 12.7138C105.793 12.7391 105.749 12.7222 105.749 12.6714C105.749 12.6206 105.716 12.5953 105.674 12.6291C105.631 12.6545 105.572 12.6375 105.538 12.5868C105.504 12.536 105.445 12.5191 105.403 12.5445C105.36 12.5783 105.326 12.5529 105.326 12.5021C105.326 12.4513 105.293 12.4344 105.242 12.4598C105.2 12.4852 105.157 12.4683 105.157 12.4175C105.157 12.3667 105.123 12.3498 105.073 12.3751C105.03 12.4006 104.989 12.3836 104.989 12.3328C104.989 12.2821 104.954 12.2566 104.912 12.2905C104.87 12.3159 104.811 12.299 104.777 12.2482C104.742 12.1974 104.683 12.1806 104.641 12.2059C104.599 12.2398 104.564 12.2143 104.564 12.1721C104.564 12.1213 104.54 12.0874 104.505 12.0958C104.463 12.1043 104.353 12.0705 104.252 12.0112C104.142 11.952 104.057 11.9266 104.057 11.9604C104.057 11.9859 104.006 11.9689 103.947 11.9181C103.879 11.8673 103.803 11.8504 103.778 11.8843C103.744 11.9097 103.719 11.8927 103.719 11.8335C103.719 11.7742 103.685 11.7488 103.642 11.7827C103.6 11.8081 103.541 11.7912 103.507 11.7404C103.473 11.6896 103.423 11.6727 103.38 11.6981C103.338 11.7234 103.287 11.7066 103.253 11.6557C103.219 11.6049 103.16 11.5881 103.118 11.6134C103.075 11.6473 103.042 11.6219 103.042 11.5711C103.042 11.5119 102.982 11.4864 102.915 11.5204C102.847 11.5457 102.787 11.5288 102.787 11.478C102.787 11.4272 102.728 11.4019 102.661 11.4272C102.593 11.4611 102.517 11.4442 102.491 11.3934C102.457 11.3511 102.407 11.3341 102.364 11.3595C102.322 11.3849 102.263 11.3595 102.237 11.3087C102.204 11.2664 102.127 11.241 102.06 11.2664C102.001 11.2918 101.924 11.2749 101.89 11.2241C101.865 11.1734 101.789 11.1564 101.73 11.1817C101.671 11.1987 101.594 11.1987 101.569 11.1649C101.509 11.1056 101.365 11.0717 100.934 11.0125C100.773 10.9871 100.579 10.9364 100.502 10.894C100.417 10.8517 100.333 10.8347 100.308 10.8602C100.282 10.8855 100.206 10.8771 100.147 10.8432C100.087 10.8094 99.9858 10.767 99.9102 10.7501C99.8419 10.7417 99.6815 10.7078 99.5542 10.6824C99.4186 10.657 99.2158 10.6232 99.0885 10.5977C98.9539 10.5724 98.6827 10.53 98.4706 10.5047C98.2678 10.4792 98.0224 10.42 97.9459 10.3777C97.862 10.327 97.7605 10.31 97.7264 10.3354C97.684 10.3608 97.506 10.3354 97.3197 10.293C97.1418 10.2508 96.8208 10.1915 96.6087 10.1746C96.3976 10.1492 95.788 10.073 95.255 9.99683C94.722 9.92915 94.1124 9.85297 93.9003 9.83601C93.6891 9.81065 92.8767 9.74296 92.0891 9.67518C89.2451 9.4213 85.3692 9.33664 81.7044 9.44666C77.8617 9.55668 72.5379 9.86146 69.4827 10.1323C68.3402 10.2338 68.2295 10.2338 68.2894 10.1407C68.3319 10.0815 68.721 9.98835 69.2282 9.92066C69.2799 9.91218 69.4062 9.87834 69.5252 9.84449C69.6432 9.81913 69.8553 9.7768 69.9899 9.75984C70.1338 9.74296 70.3035 9.70911 70.3708 9.67518C70.4391 9.64982 70.6336 9.60749 70.7941 9.58213C70.9555 9.55668 71.1667 9.51444 71.2598 9.49747C71.4378 9.45515 71.8352 9.37897 72.0639 9.34513C72.1405 9.32816 72.2419 9.29432 72.3009 9.25208C72.3517 9.21814 72.4448 9.21814 72.4872 9.2436C72.5379 9.27744 72.6228 9.26047 72.6818 9.21814C72.7408 9.16742 72.9529 9.10813 73.1641 9.07428C73.6298 9.01499 73.7571 8.98963 73.9424 8.91346C74.1038 8.83728 74.0531 8.60877 73.8751 8.60877C73.8078 8.60877 73.7571 8.56644 73.7571 8.51572C73.7571 8.47339 73.7229 8.45642 73.6722 8.48178C73.6298 8.50723 73.5874 8.49875 73.5874 8.44794C73.5874 8.39722 73.4942 8.33792 73.3762 8.30408C73.2572 8.27872 73.1641 8.21942 73.1641 8.1687C73.1641 8.12637 73.13 8.11789 73.0793 8.14325C73.0378 8.1687 72.9953 8.16022 72.9953 8.1094C72.9953 8.05859 72.9022 7.99939 72.7832 7.96554C72.6652 7.94009 72.5721 7.88089 72.5721 7.83017C72.5721 7.78775 72.5379 7.77935 72.4872 7.80471C72.4448 7.83017 72.4024 7.82168 72.4024 7.77087C72.4024 7.72854 72.2668 7.64389 72.1064 7.58468C71.945 7.52539 71.8103 7.44082 71.8103 7.39849C71.8103 7.36465 71.7762 7.35617 71.7255 7.38153C71.6831 7.40689 71.6407 7.39001 71.6407 7.3392C71.6407 7.28848 71.6075 7.27151 71.5558 7.29687C71.5134 7.32232 71.4719 7.31384 71.4719 7.26303C71.4719 7.2207 71.3363 7.13604 71.175 7.07684C71.0145 7.01754 70.8789 6.93298 70.8789 6.89065C70.8789 6.8568 70.8457 6.84832 70.7941 6.87368C70.7517 6.89913 70.7102 6.88216 70.7102 6.83135C70.7102 6.78063 70.6761 6.76366 70.6253 6.78902C70.5829 6.81448 70.5405 6.79751 70.5405 6.7467C70.5405 6.69598 70.5064 6.67901 70.4557 6.70446C70.4132 6.72982 70.3708 6.71285 70.3708 6.66213C70.3708 6.61132 70.3376 6.59435 70.2869 6.6198C70.2445 6.64516 70.2021 6.63677 70.2021 6.59435C70.2021 6.5606 69.965 6.40816 69.6773 6.27278C69.3813 6.13732 69.1268 6.00194 69.1185 5.95961C69.1019 5.92577 69.0502 5.91728 69.0087 5.95113C68.9663 5.97658 68.9322 5.95113 68.9322 5.89192C68.9322 5.83263 68.9073 5.80727 68.8815 5.84111C68.8474 5.86647 68.7717 5.83263 68.7035 5.76494C68.6362 5.69725 68.5431 5.66341 68.5006 5.68877C68.4582 5.72261 68.4241 5.69725 68.4241 5.64644C68.4241 5.59563 68.3909 5.57875 68.3402 5.60411C68.2977 5.62956 68.2553 5.6126 68.2553 5.56178C68.2553 5.51106 68.2212 5.49409 68.1705 5.51945C68.1281 5.54491 68.0857 5.52794 68.0857 5.47713C68.0857 5.42641 68.0524 5.40944 68.0017 5.43489C67.9593 5.46025 67.9169 5.44328 67.9169 5.39256C67.9169 5.34175 67.8828 5.32478 67.8321 5.35023C67.7896 5.37559 67.7472 5.35872 67.7472 5.30791C67.7472 5.25709 67.714 5.24022 67.6624 5.26558C67.6209 5.29103 67.5785 5.27406 67.5785 5.23173C67.5785 5.18092 67.5526 5.14708 67.5194 5.15556C67.4761 5.16405 67.2566 5.0709 67.0196 4.94392C66.7826 4.82551 66.5622 4.74934 66.529 4.7747C66.5032 4.80854 66.4774 4.78318 66.4774 4.72389C66.4774 4.66459 66.4442 4.64771 66.3934 4.67307C66.351 4.69853 66.3086 4.68156 66.3086 4.63084C66.3086 4.58003 66.2745 4.56306 66.2238 4.58851C66.1813 4.61387 66.1398 4.5969 66.1398 4.55467C66.1398 4.50385 66.114 4.47001 66.0799 4.47849C66.0375 4.48689 65.8936 4.43617 65.7498 4.35151C65.6059 4.27534 65.462 4.24149 65.4288 4.26685C65.403 4.3007 65.3781 4.27534 65.3781 4.21613C65.3781 4.15684 65.344 4.13987 65.2933 4.16532C65.2509 4.19068 65.2084 4.17371 65.2084 4.13139C65.2084 4.08067 65.1826 4.04682 65.1485 4.05521C65.107 4.0637 64.9973 4.02985 64.9032 3.97065C64.8018 3.91984 64.7003 3.90287 64.6662 3.92832C64.6413 3.95368 64.6155 3.93671 64.6155 3.87751C64.6155 3.8183 64.5823 3.79285 64.5399 3.8183C64.4974 3.85215 64.4467 3.82679 64.4301 3.78437C64.4126 3.73365 64.3195 3.68284 64.2097 3.67435C64.1083 3.67435 64.0234 3.63202 64.0234 3.59818C64.0234 3.56434 63.9985 3.53898 63.9644 3.54746C63.922 3.55585 63.8122 3.52201 63.7182 3.4628C63.6177 3.41199 63.5153 3.39512 63.4821 3.42048C63.4563 3.44584 63.4314 3.42896 63.4314 3.36966C63.4314 3.31046 63.3973 3.28501 63.3549 3.31894C63.3124 3.3443 63.2534 3.32733 63.2193 3.27661C63.1852 3.2258 63.1261 3.20883 63.0837 3.23429C63.0413 3.26813 63.0072 3.24277 63.0072 3.19196C63.0072 3.14115 62.974 3.11579 62.9316 3.14963C62.8892 3.17499 62.8301 3.15811 62.796 3.1073C62.7619 3.05649 62.7029 3.03961 62.6604 3.06497C62.618 3.09882 62.5848 3.07346 62.5848 3.02264C62.5848 2.97192 62.5507 2.94647 62.5083 2.98032C62.4659 3.00577 62.4068 2.9888 62.3727 2.93808C62.3386 2.88727 62.2796 2.8703 62.2381 2.89575C62.1947 2.9296 62.1615 2.90414 62.1615 2.85342C62.1615 2.80261 62.1274 2.77725 62.085 2.8111C62.0426 2.83646 61.9836 2.81958 61.9494 2.76877C61.9162 2.71796 61.8655 2.70108 61.8222 2.72644C61.7807 2.7518 61.73 2.73492 61.6958 2.68411C61.6617 2.6333 61.6027 2.61642 61.5603 2.64178C61.5179 2.67563 61.4847 2.65027 61.4847 2.59946C61.4847 2.54025 61.4247 2.5148 61.3574 2.54874C61.2901 2.5741 61.2301 2.54874 61.2301 2.49792C61.2301 2.44711 61.2052 2.43024 61.1711 2.4556C61.1453 2.48944 61.0697 2.47256 61.0014 2.42175C60.9424 2.37094 60.8917 2.35406 60.8917 2.38791C60.8917 2.42175 60.8327 2.40478 60.7644 2.34558C60.6971 2.28628 60.6381 2.26941 60.6381 2.30325C60.6381 2.33709 60.5782 2.32022 60.5108 2.26092C60.4426 2.20172 60.3836 2.18475 60.3836 2.21859C60.3836 2.25244 60.3246 2.23556 60.2572 2.17627C60.189 2.11706 60.13 2.10009 60.13 2.13394C60.13 2.16787 60.071 2.15091 60.0027 2.0917C59.9354 2.03241 59.8764 2.01553 59.8764 2.04937C59.8764 2.08322 59.8164 2.06625 59.7492 2.00705C59.6812 1.94775 59.6221 1.93087 59.6221 1.96472C59.6221 1.99856 59.563 1.98159 59.4951 1.92239C59.4275 1.87158 59.3345 1.84622 59.2835 1.88006C59.2413 1.90542 59.199 1.88854 59.199 1.83773C59.199 1.77853 59.1398 1.75308 59.072 1.77853C59.0044 1.81237 58.9283 1.79541 58.8942 1.74469C58.8688 1.69387 58.7927 1.6769 58.7252 1.70236C58.6656 1.72772 58.5897 1.71075 58.5643 1.66003C58.5305 1.6177 58.4795 1.60073 58.4372 1.62618C58.395 1.65154 58.3359 1.62618 58.3101 1.57537C58.2763 1.53304 58.2003 1.50768 58.1323 1.53304C58.0732 1.5584 57.9972 1.54153 57.9719 1.49071C57.9377 1.44839 57.8786 1.43151 57.8363 1.46536C57.7941 1.49072 57.7092 1.47384 57.6501 1.43151C57.5909 1.38918 57.4892 1.34685 57.4216 1.34685C57.354 1.34685 57.2016 1.3215 57.083 1.28756C56.9647 1.25372 56.7612 1.21987 56.6177 1.19451C56.4821 1.17754 56.3043 1.13521 56.2367 1.10985C56.1687 1.07601 56.0252 1.04217 55.9234 1.0252C55.8136 1.00832 55.6443 0.974478 55.5426 0.949026C55.4327 0.93215 55.1955 0.889822 55.0092 0.864369C54.8234 0.839009 54.6115 0.796681 54.5439 0.771321C54.4763 0.745869 54.2478 0.703633 54.0363 0.686665C53.8243 0.661305 53.5959 0.627461 53.5283 0.602008C53.4607 0.576648 53.2487 0.53432 53.0629 0.517352C52.8766 0.491992 52.2842 0.424304 51.7509 0.356616C51.2176 0.288836 50.6251 0.212663 50.4389 0.187303C49.1185 0.0264748 45.97 -0.0496982 44.1335 0.0349581ZM107.908 16.9879C107.993 17.081 108.044 17.1572 108.018 17.1572C107.993 17.1572 107.908 17.081 107.823 16.9879C107.739 16.8949 107.688 16.8187 107.714 16.8187C107.739 16.8187 107.823 16.8949 107.908 16.9879Z" fill="#0466E1"/>
<path d="M61.6111 13.6025C61.5862 13.6533 61.6194 13.6617 61.6876 13.6364C61.8398 13.5771 61.8656 13.5179 61.7466 13.5179C61.6959 13.5179 61.6369 13.5517 61.6111 13.6025Z" fill="#0466E1"/>
<path d="M61.8986 13.7463C61.7889 13.8818 61.7972 13.8901 61.9328 13.7802C62.0683 13.6701 62.1107 13.6024 62.0425 13.6024C62.0259 13.6024 61.9577 13.6701 61.8986 13.7463Z" fill="#0466E1"/>
<path d="M79.552 53.9561V50.3566H81.1972C81.5264 50.3566 81.8095 50.4099 82.0456 50.516C82.2863 50.6222 82.4707 50.7764 82.6007 50.9788C82.7317 51.1775 82.7962 51.414 82.7962 51.6885C82.7962 51.9591 82.7317 52.1942 82.6007 52.3929C82.4707 52.5917 82.2863 52.7458 82.0456 52.8557C81.8095 52.9618 81.5264 53.0151 81.1972 53.0151H80.1173L80.5701 52.5728V53.9561H79.552ZM80.5701 52.6808L80.1173 52.2129H81.1354C81.3484 52.2129 81.5061 52.1666 81.6085 52.0741C81.7154 51.9815 81.768 51.853 81.768 51.6885C81.768 51.5205 81.7154 51.3901 81.6085 51.2977C81.5061 51.2051 81.3484 51.1588 81.1354 51.1588H80.1173L80.5701 50.6909V52.6808ZM84.7024 54.0024C84.3732 54.0024 84.0845 53.9407 83.8383 53.8173C83.5949 53.6905 83.4049 53.519 83.2675 53.303C83.1338 53.0838 83.0664 52.8351 83.0664 52.5574C83.0664 52.2798 83.1319 52.033 83.2619 51.817C83.3957 51.5977 83.5792 51.428 83.8125 51.3079C84.0458 51.1845 84.3077 51.1228 84.5991 51.1228C84.8739 51.1228 85.1238 51.1793 85.3498 51.2925C85.5757 51.4023 85.7565 51.565 85.8902 51.781C86.0239 51.9969 86.0903 52.2592 86.0903 52.5678C86.0903 52.6019 86.0884 52.6415 86.0857 52.686C86.082 52.7304 86.0783 52.7716 86.0746 52.8094H83.8687V52.2952H85.5554L85.1856 52.4392C85.1893 52.3124 85.1644 52.2027 85.1137 52.1101C85.0657 52.0175 84.9966 51.9456 84.908 51.8941C84.8223 51.8427 84.7208 51.817 84.6046 51.817C84.4875 51.817 84.3852 51.8427 84.2957 51.8941C84.2099 51.9456 84.1436 52.0194 84.0956 52.1153C84.0477 52.2078 84.0227 52.3176 84.0227 52.4443V52.5934C84.0227 52.7304 84.0504 52.8488 84.1057 52.9483C84.1638 53.0478 84.2459 53.125 84.352 53.1796C84.4589 53.2311 84.5853 53.2568 84.7328 53.2568C84.8702 53.2568 84.9864 53.2381 85.0823 53.2002C85.1819 53.1591 85.2797 53.0974 85.3756 53.0151L85.8902 53.5499C85.7565 53.6972 85.5914 53.8103 85.3959 53.8893C85.2004 53.9646 84.9689 54.0024 84.7024 54.0024ZM86.5412 53.9561V51.1691H87.4717V51.9815L87.3334 51.7502C87.4155 51.5411 87.5492 51.3851 87.7336 51.2822C87.919 51.176 88.144 51.1228 88.4077 51.1228V52.0021C88.3625 51.9951 88.3238 51.9918 88.2897 51.9918C88.2583 51.9886 88.2242 51.9867 88.1864 51.9867C87.9872 51.9867 87.8268 52.0414 87.7032 52.1512C87.5796 52.2574 87.5178 52.4322 87.5178 52.6758V53.9561H86.5412ZM88.9343 53.9561V51.1999C88.9343 50.8639 89.033 50.5964 89.2322 50.3978C89.4341 50.1954 89.7218 50.0944 90.0962 50.0944C90.2161 50.0944 90.3342 50.1065 90.4513 50.1304C90.5675 50.1542 90.6652 50.1902 90.7436 50.2383L90.502 50.9274C90.4614 50.9035 90.4153 50.8844 90.3637 50.8709C90.312 50.8535 90.2604 50.8451 90.2097 50.8451C90.1064 50.8451 90.0252 50.8759 89.9671 50.9376C89.9127 50.9961 89.8851 51.0867 89.8851 51.2102V51.4107L89.9109 51.817V53.9561H88.9343ZM88.5276 52.0021V51.2719H90.549V52.0021H88.5276ZM92.3399 54.0024C92.0107 54.0024 91.723 53.9407 91.4758 53.8173C91.2333 53.6905 91.0424 53.519 90.905 53.303C90.7713 53.0838 90.7049 52.8351 90.7049 52.5574C90.7049 52.2798 90.7704 52.033 90.9004 51.817C91.0341 51.5977 91.2176 51.428 91.45 51.3079C91.6833 51.1845 91.9461 51.1228 92.2375 51.1228C92.5114 51.1228 92.7613 51.1793 92.9882 51.2925C93.2141 51.4023 93.394 51.565 93.5277 51.781C93.6614 51.9969 93.7287 52.2592 93.7287 52.5678C93.7287 52.6019 93.7269 52.6415 93.7232 52.686C93.7195 52.7304 93.7167 52.7716 93.713 52.8094H91.5072V52.2952H93.1938L92.8231 52.4392C92.8268 52.3124 92.8028 52.2027 92.7512 52.1101C92.7033 52.0175 92.635 51.9456 92.5456 51.8941C92.4598 51.8427 92.3593 51.817 92.2422 51.817C92.126 51.817 92.0227 51.8427 91.9342 51.8941C91.8484 51.9456 91.7811 52.0194 91.7331 52.1153C91.6852 52.2078 91.6612 52.3176 91.6612 52.4443V52.5934C91.6612 52.7304 91.6888 52.8488 91.7433 52.9483C91.8023 53.0478 91.8844 53.125 91.9904 53.1796C92.0965 53.2311 92.2237 53.2568 92.3703 53.2568C92.5078 53.2568 92.6249 53.2381 92.7208 53.2002C92.8204 53.1591 92.9181 53.0974 93.014 53.0151L93.5277 53.5499C93.394 53.6972 93.2298 53.8103 93.0343 53.8893C92.8388 53.9646 92.6073 54.0024 92.3399 54.0024ZM95.6035 54.0024C95.2946 54.0024 95.0188 53.9407 94.7754 53.8173C94.5356 53.6938 94.3466 53.5242 94.2101 53.3082C94.0727 53.0889 94.0044 52.8384 94.0044 52.5574C94.0044 52.2765 94.0727 52.0278 94.2101 51.8119C94.3466 51.5959 94.5356 51.428 94.7754 51.3079C95.0188 51.1845 95.2946 51.1228 95.6035 51.1228C95.9189 51.1228 96.1909 51.1897 96.4206 51.3233C96.6502 51.457 96.8134 51.6455 96.9093 51.889L96.1541 52.2746C96.0886 52.1442 96.0074 52.0502 95.9115 51.9918C95.8156 51.9301 95.7114 51.8993 95.598 51.8993C95.4855 51.8993 95.3822 51.925 95.29 51.9764C95.1968 52.0278 95.1231 52.1031 95.0687 52.2027C95.017 52.2985 94.9912 52.4168 94.9912 52.5574C94.9912 52.7014 95.017 52.823 95.0687 52.9225C95.1231 53.0221 95.1968 53.0974 95.29 53.1488C95.3822 53.2002 95.4855 53.2259 95.598 53.2259C95.7114 53.2259 95.8156 53.1969 95.9115 53.1385C96.0074 53.0768 96.0886 52.9809 96.1541 52.8506L96.9093 53.2363C96.8134 53.4797 96.6502 53.6682 96.4206 53.8018C96.1909 53.9356 95.9189 54.0024 95.6035 54.0024ZM98.5665 54.0024C98.2105 54.0024 97.933 53.915 97.7338 53.7401C97.5346 53.562 97.4359 53.2946 97.4359 52.9379V50.5469H98.4125V52.9277C98.4125 53.0272 98.4402 53.1059 98.4946 53.1642C98.5499 53.2189 98.62 53.2465 98.7057 53.2465C98.8229 53.2465 98.9215 53.2174 99.0036 53.1591L99.2452 53.843C99.1631 53.8977 99.0626 53.9374 98.9418 53.9613C98.8229 53.9889 98.6974 54.0024 98.5665 54.0024ZM97.0292 52.0021V51.2719H99.0497V52.0021H97.0292ZM101.165 53.9561V50.3566H102.183V53.1488H103.9V53.9561H101.165ZM105.646 54.0024C105.341 54.0024 105.07 53.9407 104.834 53.8173C104.597 53.6938 104.41 53.5242 104.273 53.3082C104.139 53.0889 104.073 52.8384 104.073 52.5574C104.073 52.2765 104.139 52.0278 104.273 51.8119C104.41 51.5959 104.597 51.428 104.834 51.3079C105.07 51.1845 105.341 51.1228 105.646 51.1228C105.951 51.1228 106.222 51.1845 106.459 51.3079C106.698 51.428 106.885 51.5959 107.019 51.8119C107.153 52.0278 107.219 52.2765 107.219 52.5574C107.219 52.8384 107.153 53.0889 107.019 53.3082C106.885 53.5242 106.698 53.6938 106.459 53.8173C106.222 53.9407 105.951 54.0024 105.646 54.0024ZM105.646 53.2259C105.76 53.2259 105.858 53.2002 105.944 53.1488C106.033 53.0974 106.103 53.0221 106.155 52.9225C106.207 52.8197 106.233 52.6982 106.233 52.5574C106.233 52.4168 106.207 52.2985 106.155 52.2027C106.103 52.1031 106.033 52.0278 105.944 51.9764C105.858 51.925 105.76 51.8993 105.646 51.8993C105.536 51.8993 105.437 51.925 105.348 51.9764C105.262 52.0278 105.191 52.1031 105.137 52.2027C105.085 52.2985 105.06 52.4168 105.06 52.5574C105.06 52.6982 105.085 52.8197 105.137 52.9225C105.191 53.0221 105.262 53.0974 105.348 53.1488C105.437 53.2002 105.536 53.2259 105.646 53.2259ZM109.097 54.0024C108.788 54.0024 108.512 53.9407 108.269 53.8173C108.029 53.6938 107.84 53.5242 107.703 53.3082C107.566 53.0889 107.497 52.8384 107.497 52.5574C107.497 52.2765 107.566 52.0278 107.703 51.8119C107.84 51.5959 108.029 51.428 108.269 51.3079C108.512 51.1845 108.788 51.1228 109.097 51.1228C109.412 51.1228 109.684 51.1897 109.914 51.3233C110.144 51.457 110.307 51.6455 110.403 51.889L109.647 52.2746C109.582 52.1442 109.501 52.0502 109.405 51.9918C109.309 51.9301 109.205 51.8993 109.091 51.8993C108.978 51.8993 108.876 51.925 108.782 51.9764C108.69 52.0278 108.616 52.1031 108.562 52.2027C108.51 52.2985 108.485 52.4168 108.485 52.5574C108.485 52.7014 108.51 52.823 108.562 52.9225C108.616 53.0221 108.69 53.0974 108.782 53.1488C108.876 53.2002 108.978 53.2259 109.091 53.2259C109.205 53.2259 109.309 53.1969 109.405 53.1385C109.501 53.0768 109.582 52.9809 109.647 52.8506L110.403 53.2363C110.307 53.4797 110.144 53.6682 109.914 53.8018C109.684 53.9356 109.412 54.0024 109.097 54.0024ZM112.473 53.9561V53.4367L112.406 53.3082V52.3518C112.406 52.1975 112.358 52.0792 112.262 51.9969C112.17 51.9114 112.02 51.8684 111.815 51.8684C111.681 51.8684 111.545 51.8908 111.408 51.9352C111.27 51.9764 111.154 52.0348 111.058 52.1101L110.729 51.4468C110.887 51.3439 111.076 51.2649 111.295 51.2102C111.518 51.1518 111.739 51.1228 111.958 51.1228C112.411 51.1228 112.761 51.2275 113.008 51.4364C113.258 51.6422 113.383 51.9661 113.383 52.4083V53.9561H112.473ZM111.649 54.0024C111.427 54.0024 111.238 53.9646 111.084 53.8893C110.93 53.814 110.812 53.7112 110.729 53.5808C110.651 53.4504 110.611 53.3049 110.611 53.1437C110.611 52.9721 110.654 52.8249 110.74 52.7014C110.829 52.5747 110.964 52.4785 111.146 52.4135C111.328 52.3448 111.563 52.3107 111.851 52.3107H112.509V52.8197H111.984C111.827 52.8197 111.715 52.8454 111.649 52.8968C111.589 52.9483 111.557 53.017 111.557 53.1025C111.557 53.1881 111.59 53.2568 111.655 53.3082C111.72 53.3597 111.809 53.3854 111.922 53.3854C112.029 53.3854 112.124 53.3597 112.21 53.3082C112.3 53.2535 112.365 53.1713 112.406 53.0614L112.539 53.4213C112.488 53.6134 112.386 53.7589 112.236 53.8585C112.088 53.9543 111.893 54.0024 111.649 54.0024ZM115.244 54.0024C114.887 54.0024 114.61 53.915 114.411 53.7401C114.212 53.562 114.113 53.2946 114.113 52.9379V50.5469H115.089V52.9277C115.089 53.0272 115.117 53.1059 115.172 53.1642C115.227 53.2189 115.297 53.2465 115.382 53.2465C115.5 53.2465 115.599 53.2174 115.681 53.1591L115.923 53.843C115.841 53.8977 115.739 53.9374 115.619 53.9613C115.5 53.9889 115.374 54.0024 115.244 54.0024ZM113.707 52.0021V51.2719H115.727V52.0021H113.707ZM116.299 53.9561V51.1691H117.277V53.9561H116.299ZM116.788 50.8605C116.61 50.8605 116.465 50.8109 116.355 50.7114C116.247 50.6119 116.191 50.4884 116.191 50.3412C116.191 50.1939 116.247 50.0705 116.355 49.9709C116.465 49.8714 116.61 49.8218 116.788 49.8218C116.966 49.8218 117.111 49.8699 117.219 49.9658C117.329 50.0583 117.385 50.1785 117.385 50.3258C117.385 50.48 117.329 50.6086 117.219 50.7114C117.113 50.8109 116.97 50.8605 116.788 50.8605ZM119.31 54.0024C119.005 54.0024 118.734 53.9407 118.498 53.8173C118.261 53.6938 118.074 53.5242 117.937 53.3082C117.803 53.0889 117.737 52.8384 117.737 52.5574C117.737 52.2765 117.803 52.0278 117.937 51.8119C118.074 51.5959 118.261 51.428 118.498 51.3079C118.734 51.1845 119.005 51.1228 119.31 51.1228C119.615 51.1228 119.885 51.1845 120.122 51.3079C120.362 51.428 120.549 51.5959 120.683 51.8119C120.817 52.0278 120.883 52.2765 120.883 52.5574C120.883 52.8384 120.817 53.0889 120.683 53.3082C120.549 53.5242 120.362 53.6938 120.122 53.8173C119.885 53.9407 119.615 54.0024 119.31 54.0024ZM119.31 53.2259C119.423 53.2259 119.522 53.2002 119.608 53.1488C119.697 53.0974 119.767 53.0221 119.819 52.9225C119.871 52.8197 119.897 52.6982 119.897 52.5574C119.897 52.4168 119.871 52.2985 119.819 52.2027C119.767 52.1031 119.697 52.0278 119.608 51.9764C119.522 51.925 119.423 51.8993 119.31 51.8993C119.2 51.8993 119.101 51.925 119.011 51.9764C118.926 52.0278 118.855 52.1031 118.801 52.2027C118.749 52.2985 118.724 52.4168 118.724 52.5574C118.724 52.6982 118.749 52.8197 118.801 52.9225C118.855 53.0221 118.926 53.0974 119.011 53.1488C119.101 53.2002 119.2 53.2259 119.31 53.2259ZM123.151 51.1228C123.367 51.1228 123.562 51.1673 123.737 51.2565C123.912 51.3421 124.049 51.4757 124.149 51.6576C124.252 51.8394 124.303 52.0741 124.303 52.362V53.9561H123.326V52.5215C123.326 52.3227 123.285 52.1788 123.203 52.0895C123.123 51.9969 123.013 51.9506 122.869 51.9506C122.765 51.9506 122.671 51.9745 122.586 52.0227C122.5 52.0671 122.433 52.1377 122.385 52.2335C122.337 52.3294 122.313 52.4546 122.313 52.6089V53.9561H121.336V51.1691H122.267V51.961L122.087 51.7296C122.193 51.5272 122.339 51.3766 122.524 51.2771C122.709 51.1742 122.918 51.1228 123.151 51.1228ZM127.405 51.9352H129.066V52.722H127.405V51.9352ZM127.477 53.9561H126.459V50.3566H129.283V51.1434H127.477V53.9561ZM131.05 54.0024C130.745 54.0024 130.475 53.9407 130.238 53.8173C130.002 53.6938 129.815 53.5242 129.677 53.3082C129.544 53.0889 129.477 52.8384 129.477 52.5574C129.477 52.2765 129.544 52.0278 129.677 51.8119C129.815 51.5959 130.002 51.428 130.238 51.3079C130.475 51.1845 130.745 51.1228 131.05 51.1228C131.356 51.1228 131.627 51.1845 131.863 51.3079C132.103 51.428 132.29 51.5959 132.423 51.8119C132.557 52.0278 132.625 52.2765 132.625 52.5574C132.625 52.8384 132.557 53.0889 132.423 53.3082C132.29 53.5242 132.103 53.6938 131.863 53.8173C131.627 53.9407 131.356 54.0024 131.05 54.0024ZM131.05 53.2259C131.164 53.2259 131.263 53.2002 131.349 53.1488C131.438 53.0974 131.509 53.0221 131.559 52.9225C131.611 52.8197 131.637 52.6982 131.637 52.5574C131.637 52.4168 131.611 52.2985 131.559 52.2027C131.509 52.1031 131.438 52.0278 131.349 51.9764C131.263 51.925 131.164 51.8993 131.05 51.8993C130.941 51.8993 130.841 51.925 130.752 51.9764C130.667 52.0278 130.597 52.1031 130.541 52.2027C130.491 52.2985 130.465 52.4168 130.465 52.5574C130.465 52.6982 130.491 52.8197 130.541 52.9225C130.597 53.0221 130.667 53.0974 130.752 53.1488C130.841 53.2002 130.941 53.2259 131.05 53.2259ZM133.076 53.9561V51.1691H134.008V51.9815L133.869 51.7502C133.951 51.5411 134.084 51.3851 134.27 51.2822C134.455 51.176 134.679 51.1228 134.943 51.1228V52.0021C134.899 51.9951 134.859 51.9918 134.825 51.9918C134.794 51.9886 134.76 51.9867 134.722 51.9867C134.523 51.9867 134.362 52.0414 134.238 52.1512C134.116 52.2574 134.054 52.4322 134.054 52.6758V53.9561H133.076ZM137.809 53.9561V52.4341L138.046 53.0459L136.436 50.3566H137.511L138.673 52.3055H138.051L139.218 50.3566H140.206L138.601 53.0459L138.827 52.4341V53.9561H137.809ZM141.511 54.0024C141.205 54.0024 140.934 53.9407 140.698 53.8173C140.461 53.6938 140.275 53.5242 140.138 53.3082C140.004 53.0889 139.937 52.8384 139.937 52.5574C139.937 52.2765 140.004 52.0278 140.138 51.8119C140.275 51.5959 140.461 51.428 140.698 51.3079C140.934 51.1845 141.205 51.1228 141.511 51.1228C141.816 51.1228 142.086 51.1845 142.323 51.3079C142.563 51.428 142.75 51.5959 142.884 51.8119C143.018 52.0278 143.084 52.2765 143.084 52.5574C143.084 52.8384 143.018 53.0889 142.884 53.3082C142.75 53.5242 142.563 53.6938 142.323 53.8173C142.086 53.9407 141.816 54.0024 141.511 54.0024ZM141.511 53.2259C141.624 53.2259 141.724 53.2002 141.809 53.1488C141.898 53.0974 141.968 53.0221 142.02 52.9225C142.071 52.8197 142.097 52.6982 142.097 52.5574C142.097 52.4168 142.071 52.2985 142.02 52.2027C141.968 52.1031 141.898 52.0278 141.809 51.9764C141.724 51.925 141.624 51.8993 141.511 51.8993C141.401 51.8993 141.301 51.925 141.212 51.9764C141.127 52.0278 141.057 52.1031 141.002 52.2027C140.95 52.2985 140.924 52.4168 140.924 52.5574C140.924 52.6982 140.95 52.8197 141.002 52.9225C141.057 53.0221 141.127 53.0974 141.212 53.1488C141.301 53.2002 141.401 53.2259 141.511 53.2259ZM144.71 54.0024C144.483 54.0024 144.279 53.958 144.097 53.8687C143.918 53.7794 143.778 53.6406 143.676 53.4522C143.576 53.2601 143.527 53.0184 143.527 52.7271V51.1691H144.504V52.5678C144.504 52.7837 144.543 52.9379 144.622 53.0305C144.704 53.1231 144.819 53.1694 144.966 53.1694C145.062 53.1694 145.15 53.147 145.229 53.1025C145.307 53.0581 145.371 52.9876 145.419 52.8917C145.467 52.7921 145.491 52.6654 145.491 52.5112V51.1691H146.468V53.9561H145.537V53.1694L145.718 53.3905C145.621 53.5962 145.483 53.7505 145.301 53.8533C145.119 53.9528 144.922 54.0024 144.71 54.0024ZM147.097 53.9561V51.1691H148.028V51.9815L147.889 51.7502C147.971 51.5411 148.105 51.3851 148.291 51.2822C148.475 51.176 148.7 51.1228 148.964 51.1228V52.0021C148.919 51.9951 148.88 51.9918 148.846 51.9918C148.814 51.9886 148.78 51.9867 148.742 51.9867C148.544 51.9867 148.383 52.0414 148.259 52.1512C148.136 52.2574 148.074 52.4322 148.074 52.6758V53.9561H147.097Z" fill="white"/>
<path d="M150.92 53.9561V50.3566H152.622C153.02 50.3566 153.369 50.4304 153.671 50.5777C153.972 50.725 154.207 50.9326 154.375 51.1999C154.547 51.4673 154.633 51.7861 154.633 52.1564C154.633 52.5233 154.547 52.8421 154.375 53.1128C154.207 53.3802 153.972 53.5877 153.671 53.735C153.369 53.8823 153.02 53.9561 152.622 53.9561H150.92ZM151.938 53.1437H152.581C152.786 53.1437 152.964 53.1059 153.116 53.0305C153.27 52.9516 153.39 52.8384 153.475 52.6912C153.561 52.5402 153.604 52.362 153.604 52.1564C153.604 51.9473 153.561 51.7689 153.475 51.6216C153.39 51.4742 153.27 51.3627 153.116 51.2873C152.964 51.2084 152.786 51.1691 152.581 51.1691H151.938V53.1437ZM156.582 54.0024C156.254 54.0024 155.965 53.9407 155.719 53.8173C155.475 53.6905 155.285 53.519 155.148 53.303C155.014 53.0838 154.947 52.8351 154.947 52.5574C154.947 52.2798 155.012 52.033 155.142 51.817C155.276 51.5977 155.46 51.428 155.693 51.3079C155.925 51.1845 156.188 51.1228 156.48 51.1228C156.754 51.1228 157.004 51.1793 157.23 51.2925C157.456 51.4023 157.637 51.565 157.771 51.781C157.904 51.9969 157.971 52.2592 157.971 52.5678C157.971 52.6019 157.969 52.6415 157.965 52.686C157.962 52.7304 157.959 52.7716 157.955 52.8094H155.749V52.2952H157.436L157.066 52.4392C157.069 52.3124 157.045 52.2027 156.994 52.1101C156.945 52.0175 156.877 51.9456 156.789 51.8941C156.702 51.8427 156.601 51.817 156.485 51.817C156.368 51.817 156.265 51.8427 156.176 51.8941C156.09 51.9456 156.023 52.0194 155.975 52.1153C155.927 52.2078 155.903 52.3176 155.903 52.4443V52.5934C155.903 52.7304 155.931 52.8488 155.986 52.9483C156.044 53.0478 156.126 53.125 156.233 53.1796C156.339 53.2311 156.466 53.2568 156.613 53.2568C156.75 53.2568 156.867 53.2381 156.963 53.2002C157.062 53.1591 157.16 53.0974 157.256 53.0151L157.771 53.5499C157.637 53.6972 157.472 53.8103 157.276 53.8893C157.081 53.9646 156.849 54.0024 156.582 54.0024ZM159.666 54.0024C159.309 54.0024 159.031 53.915 158.832 53.7401C158.634 53.562 158.534 53.2946 158.534 52.9379V50.5469H159.511V52.9277C159.511 53.0272 159.539 53.1059 159.594 53.1642C159.648 53.2189 159.718 53.2465 159.804 53.2465C159.921 53.2465 160.02 53.2174 160.103 53.1591L160.345 53.843C160.262 53.8977 160.161 53.9374 160.041 53.9613C159.921 53.9889 159.796 54.0024 159.666 54.0024ZM158.128 52.0021V51.2719H160.149V52.0021H158.128ZM162.423 53.9561V53.4367L162.357 53.3082V52.3518C162.357 52.1975 162.308 52.0792 162.212 51.9969C162.12 51.9114 161.97 51.8684 161.765 51.8684C161.631 51.8684 161.495 51.8908 161.359 51.9352C161.222 51.9764 161.105 52.0348 161.009 52.1101L160.68 51.4468C160.838 51.3439 161.026 51.2649 161.245 51.2102C161.469 51.1518 161.689 51.1228 161.909 51.1228C162.361 51.1228 162.711 51.2275 162.958 51.4364C163.208 51.6422 163.333 51.9661 163.333 52.4083V53.9561H162.423ZM161.601 54.0024C161.377 54.0024 161.189 53.9646 161.035 53.8893C160.88 53.814 160.762 53.7112 160.68 53.5808C160.601 53.4504 160.562 53.3049 160.562 53.1437C160.562 52.9721 160.605 52.8249 160.69 52.7014C160.779 52.5747 160.914 52.4785 161.096 52.4135C161.278 52.3448 161.513 52.3107 161.801 52.3107H162.459V52.8197H161.934C161.777 52.8197 161.665 52.8454 161.601 52.8968C161.539 52.9483 161.508 53.017 161.508 53.1025C161.508 53.1881 161.541 53.2568 161.606 53.3082C161.671 53.3597 161.76 53.3854 161.873 53.3854C161.98 53.3854 162.075 53.3597 162.161 53.3082C162.25 53.2535 162.315 53.1713 162.357 53.0614L162.49 53.4213C162.439 53.6134 162.337 53.7589 162.187 53.8585C162.039 53.9543 161.844 54.0024 161.601 54.0024ZM163.95 53.9561V51.1691H164.927V53.9561H163.95ZM164.439 50.8605C164.26 50.8605 164.116 50.8109 164.006 50.7114C163.897 50.6119 163.842 50.4884 163.842 50.3412C163.842 50.1939 163.897 50.0705 164.006 49.9709C164.116 49.8714 164.26 49.8218 164.439 49.8218C164.617 49.8218 164.761 49.8699 164.871 49.9658C164.98 50.0583 165.035 50.1785 165.035 50.3258C165.035 50.48 164.98 50.6086 164.871 50.7114C164.764 50.8109 164.62 50.8605 164.439 50.8605ZM165.562 53.9561V50.1406H166.539V53.9561H165.562ZM167.174 53.9561V51.1691H168.151V53.9561H167.174ZM167.662 50.8605C167.484 50.8605 167.34 50.8109 167.23 50.7114C167.121 50.6119 167.066 50.4884 167.066 50.3412C167.066 50.1939 167.121 50.0705 167.23 49.9709C167.34 49.8714 167.484 49.8218 167.662 49.8218C167.841 49.8218 167.985 49.8699 168.095 49.9658C168.204 50.0583 168.259 50.1785 168.259 50.3258C168.259 50.48 168.204 50.6086 168.095 50.7114C167.988 50.8109 167.845 50.8605 167.662 50.8605ZM170.601 51.1228C170.817 51.1228 171.012 51.1673 171.188 51.2565C171.362 51.3421 171.499 51.4757 171.599 51.6576C171.701 51.8394 171.753 52.0741 171.753 52.362V53.9561H170.776V52.5215C170.776 52.3227 170.735 52.1788 170.653 52.0895C170.573 51.9969 170.463 51.9506 170.318 51.9506C170.216 51.9506 170.121 51.9745 170.036 52.0227C169.95 52.0671 169.883 52.1377 169.835 52.2335C169.787 52.3294 169.763 52.4546 169.763 52.6089V53.9561H168.786V51.1691H169.717V51.961L169.537 51.7296C169.643 51.5272 169.789 51.3766 169.974 51.2771C170.159 51.1742 170.368 51.1228 170.601 51.1228ZM173.764 55C173.497 55 173.241 54.9691 172.998 54.9074C172.758 54.8458 172.552 54.755 172.381 54.6349L172.736 53.951C172.852 54.0435 172.996 54.1156 173.167 54.1669C173.343 54.2217 173.512 54.2492 173.677 54.2492C173.94 54.2492 174.131 54.1908 174.247 54.0744C174.364 53.9613 174.423 53.7949 174.423 53.5756V53.2465L174.473 52.4649L174.469 51.6781V51.1691H175.399V53.4471C175.399 53.9748 175.257 54.3657 174.972 54.6194C174.688 54.8733 174.285 55 173.764 55ZM173.594 53.8122C173.347 53.8122 173.12 53.7574 172.91 53.6476C172.705 53.5345 172.539 53.3784 172.411 53.1796C172.288 52.9773 172.227 52.7393 172.227 52.4649C172.227 52.1905 172.288 51.954 172.411 51.7552C172.539 51.5529 172.705 51.3972 172.91 51.2873C173.12 51.1775 173.347 51.1228 173.594 51.1228C173.831 51.1228 174.033 51.1709 174.201 51.2668C174.369 51.3593 174.496 51.5051 174.581 51.7039C174.671 51.9026 174.715 52.1564 174.715 52.4649C174.715 52.7734 174.671 53.0272 174.581 53.2259C174.496 53.4247 174.369 53.5723 174.201 53.6682C174.033 53.764 173.831 53.8122 173.594 53.8122ZM173.826 53.0357C173.942 53.0357 174.045 53.0118 174.134 52.9637C174.227 52.9155 174.299 52.8488 174.35 52.7632C174.405 52.6776 174.433 52.578 174.433 52.4649C174.433 52.3518 174.405 52.2522 174.35 52.1666C174.299 52.081 174.227 52.0157 174.134 51.9712C174.045 51.9232 173.942 51.8993 173.826 51.8993C173.709 51.8993 173.605 51.9232 173.512 51.9712C173.419 52.0157 173.346 52.081 173.291 52.1666C173.239 52.2522 173.214 52.3518 173.214 52.4649C173.214 52.578 173.239 52.6776 173.291 52.7632C173.346 52.8488 173.419 52.9155 173.512 52.9637C173.605 53.0118 173.709 53.0357 173.826 53.0357Z" fill="#0466E1"/>
</svg>
