<svg width="71" height="71" viewBox="0 0 71 71" fill="none" xmlns="http://www.w3.org/2000/svg">
<path d="M11.8088 4.93063C11.8088 6.23832 11.2893 7.49244 10.3646 8.41711C9.43996 9.34179 8.18583 9.86126 6.87815 9.86126C5.57046 9.86126 4.31634 9.34179 3.39166 8.41711C2.46699 7.49244 1.94752 6.23832 1.94752 4.93063C1.94752 3.62295 2.46699 2.36882 3.39166 1.44415C4.31634 0.519476 5.57046 0 6.87815 0C8.18583 0 9.43996 0.519476 10.3646 1.44415C11.2893 2.36882 11.8088 3.62295 11.8088 4.93063ZM15.7533 4.93063C15.7561 6.84803 15.1352 8.71433 13.9842 10.2478C19.1732 11.9282 24.3779 14.0188 27.8097 17.7463C27.856 17.7973 27.9121 17.8384 27.9747 17.8671C28.0373 17.8959 28.105 17.9118 28.1739 17.9138C28.2427 17.9158 28.3113 17.9039 28.3754 17.8789C28.4396 17.8539 28.498 17.8161 28.5473 17.768C30.1747 16.1706 31.993 14.7802 33.9611 13.6283C34.0238 13.5923 34.0777 13.5429 34.1191 13.4837C34.1605 13.4245 34.1883 13.3569 34.2005 13.2857C34.2127 13.2144 34.2091 13.1414 34.1899 13.0718C34.1707 13.0021 34.1363 12.9376 34.0893 12.8828C29.4545 7.61289 22.7094 5.34875 15.6665 3.6822C15.7237 4.09045 15.7533 4.5066 15.7533 4.93063ZM9.30796 13.4705C8.53484 13.6874 7.7203 13.8058 6.87815 13.8058C5.11495 13.8058 3.47207 13.293 2.09149 12.4055L0.166572 34.4197L0.00484668 39.0348C-0.0644552 41.0118 0.611529 42.9427 1.89882 44.4448C3.18611 45.9469 4.99075 46.9105 6.95507 47.1447L7.31204 47.1881C8.84507 47.3704 10.3979 47.0989 11.7781 46.4072C13.1583 45.7155 14.3053 44.6341 15.0768 43.2969L19.4079 35.7905C19.456 35.7069 19.4787 35.6111 19.473 35.5149C19.4673 35.4186 19.4335 35.3262 19.3757 35.2489C19.318 35.1717 19.2389 35.1131 19.1482 35.0803C19.0575 35.0476 18.9592 35.0421 18.8655 35.0647L15.3667 35.9127C15.3179 35.9256 15.2673 35.9309 15.2168 35.9285L9.95881 35.5853L6.54681 35.1791C6.48127 35.1713 6.41795 35.1505 6.3606 35.1179C6.30325 35.0852 6.25304 35.0414 6.21294 34.989C6.17285 34.9365 6.14368 34.8766 6.12718 34.8127C6.11067 34.7488 6.10716 34.6823 6.11686 34.617L9.30599 13.4685L9.30796 13.4705Z" fill="#0466E1"/>
<path fill-rule="evenodd" clip-rule="evenodd" d="M49.5064 13.8057C36.9452 13.8057 26.5731 23.6177 25.8749 36.1592L25.2615 47.2236C25.2465 47.4914 25.2863 47.7594 25.3784 48.0114C25.4705 48.2633 25.613 48.4937 25.7973 48.6887C25.9815 48.8836 26.2036 49.0389 26.4499 49.1451C26.6962 49.2513 26.9616 49.3062 27.2298 49.3063H69.9291C70.0654 49.3062 70.2001 49.2779 70.3249 49.2231C70.4497 49.1683 70.5617 49.0883 70.654 48.988C70.7463 48.8878 70.8168 48.7695 70.8611 48.6406C70.9054 48.5117 70.9225 48.3751 70.9113 48.2393L69.7477 34.2678C69.6858 33.5284 69.3484 32.8392 68.8022 32.3369C68.2561 31.8346 67.5411 31.5559 66.7991 31.556H59.2533C59.2294 31.5562 59.2062 31.5478 59.188 31.5322C59.1699 31.5166 59.158 31.4949 59.1547 31.4712L57.1745 17.2079C57.0436 16.2647 56.576 15.4008 55.8579 14.7755C55.1398 14.1502 54.2197 13.8057 53.2675 13.8057H49.5064ZM50.3545 22.1188C50.3407 21.8704 50.2297 21.6375 50.0456 21.4703C49.8614 21.3031 49.6189 21.2151 49.3703 21.2253C40.9567 21.6513 34.1958 27.9034 33.6771 36.4787L33.6081 37.6207C33.5989 37.7745 33.6259 37.9283 33.6869 38.0698C33.7478 38.2113 33.8411 38.3366 33.9592 38.4355C34.0774 38.5345 34.217 38.6043 34.367 38.6396C34.517 38.6748 34.6732 38.6744 34.823 38.6384L46.2719 35.8733C47.0036 35.6267 47.7768 35.4985 48.5558 35.4985H50.7489C50.8164 35.4987 50.8832 35.4849 50.9452 35.4582C51.0072 35.4315 51.063 35.3923 51.1092 35.3431C51.1555 35.294 51.1911 35.2358 51.2139 35.1723C51.2368 35.1088 51.2463 35.0413 51.242 34.9739L50.3545 22.1188ZM21.6937 62.1259C21.6937 59.7721 22.6288 57.5147 24.2932 55.8502C25.9576 54.1858 28.215 53.2508 30.5689 53.2508H62.1249C63.2904 53.2508 64.4445 53.4803 65.5213 53.9263C66.598 54.3724 67.5764 55.0261 68.4006 55.8502C69.2247 56.6744 69.8784 57.6528 70.3245 58.7295C70.7705 59.8063 71 60.9604 71 62.1259C71 63.2914 70.7705 64.4455 70.3245 65.5223C69.8784 66.5991 69.2247 67.5774 68.4006 68.4016C67.5764 69.2257 66.598 69.8794 65.5213 70.3255C64.4445 70.7715 63.2904 71.001 62.1249 71.001H30.5689C28.215 71.001 25.9576 70.066 24.2932 68.4016C22.6288 66.7372 21.6937 64.4797 21.6937 62.1259ZM37.4717 62.1259C37.4717 62.5144 37.3952 62.8991 37.2465 63.258C37.0979 63.617 36.88 63.9431 36.6053 64.2178C36.3305 64.4925 36.0044 64.7104 35.6455 64.8591C35.2866 65.0078 34.9019 65.0843 34.5134 65.0843C34.1249 65.0843 33.7402 65.0078 33.3812 64.8591C33.0223 64.7104 32.6962 64.4925 32.4215 64.2178C32.1468 63.9431 31.9289 63.617 31.7802 63.258C31.6315 62.8991 31.555 62.5144 31.555 62.1259C31.555 61.3413 31.8667 60.5888 32.4215 60.034C32.9763 59.4792 33.7288 59.1675 34.5134 59.1675C35.298 59.1675 36.0505 59.4792 36.6053 60.034C37.1601 60.5888 37.4717 61.3413 37.4717 62.1259ZM46.3469 65.0843C47.1315 65.0843 47.884 64.7726 48.4388 64.2178C48.9936 63.663 49.3053 62.9105 49.3053 62.1259C49.3053 61.3413 48.9936 60.5888 48.4388 60.034C47.884 59.4792 47.1315 59.1675 46.3469 59.1675C45.5623 59.1675 44.8098 59.4792 44.255 60.034C43.7002 60.5888 43.3885 61.3413 43.3885 62.1259C43.3885 62.9105 43.7002 63.663 44.255 64.2178C44.8098 64.7726 45.5623 65.0843 46.3469 65.0843ZM61.1388 62.1259C61.1388 62.9105 60.8271 63.663 60.2723 64.2178C59.7175 64.7726 58.965 65.0843 58.1804 65.0843C57.3958 65.0843 56.6433 64.7726 56.0885 64.2178C55.5337 63.663 55.222 62.9105 55.222 62.1259C55.222 61.3413 55.5337 60.5888 56.0885 60.034C56.6433 59.4792 57.3958 59.1675 58.1804 59.1675C58.965 59.1675 59.7175 59.4792 60.2723 60.034C60.8271 60.5888 61.1388 61.3413 61.1388 62.1259Z" fill="#0466E1"/>
</svg>
