<svg width="68" height="64" viewBox="0 0 68 64" fill="none" xmlns="http://www.w3.org/2000/svg">
<path d="M11.6875 0C8.58778 0 5.61502 1.23136 3.42319 3.42319C1.23136 5.61502 0 8.58778 0 11.6875V39.3125C0 42.4122 1.23136 45.385 3.42319 47.5768C5.61502 49.7686 8.58778 51 11.6875 51H34.2125C34.5312 49.4275 35.1942 47.9825 36.125 46.75H11.6875C9.71495 46.75 7.8232 45.9664 6.42839 44.5716C5.03359 43.1768 4.25 41.285 4.25 39.3125V21.25H68V11.6875C68 8.58778 66.7686 5.61502 64.5768 3.42319C62.385 1.23136 59.4122 0 56.3125 0H11.6875ZM4.25 11.6875C4.25 7.582 7.582 4.25 11.6875 4.25H56.3125C60.418 4.25 63.75 7.582 63.75 11.6875V17H4.25V11.6875ZM61.625 34C61.625 36.2543 60.7295 38.4163 59.1354 40.0104C57.5413 41.6045 55.3793 42.5 53.125 42.5C50.8707 42.5 48.7087 41.6045 47.1146 40.0104C45.5205 38.4163 44.625 36.2543 44.625 34C44.625 31.7457 45.5205 29.5837 47.1146 27.9896C48.7087 26.3955 50.8707 25.5 53.125 25.5C55.3793 25.5 57.5413 26.3955 59.1354 27.9896C60.7295 29.5837 61.625 31.7457 61.625 34ZM68 53.125C68 58.4162 63.75 63.75 53.125 63.75C42.5 63.75 38.25 58.4375 38.25 53.125C38.25 51.4342 38.9216 49.8127 40.1172 48.6172C41.3127 47.4216 42.9342 46.75 44.625 46.75H61.625C63.3158 46.75 64.9373 47.4216 66.1328 48.6172C67.3283 49.8127 68 51.4342 68 53.125Z" fill="#0466E1"/>
</svg>
