<svg width="72" height="72" viewBox="0 0 72 72" fill="none" xmlns="http://www.w3.org/2000/svg">
<path d="M36.3667 3C31.9667 3 27.5667 5.2 25.3667 9.23333C23.1711 8.67121 20.8677 8.68388 18.6785 9.2701C16.4892 9.85632 14.4877 10.9964 12.8668 12.5804C11.2459 14.1645 10.0602 16.1392 9.42382 18.3144C8.78743 20.4896 8.72183 22.7921 9.23333 25C5.56667 27.2 3 31.6 3 36C3 40.4 5.56667 44.8 9.23333 47C8.13333 51.4 9.23333 56.1667 12.9 59.4667C15.8333 62.4 20.6 63.8667 25 63.1333C27.2 66.8 31.6 69 36 69C40.4 69 44.8 66.8 47 62.7667C51.4 63.8667 56.1667 62.7667 59.4667 59.1C62.4 56.1667 63.8667 51.7667 63.1333 47C66.8 44.8 69 40.4 69 36C69 31.6 66.8 27.2 62.7667 25C63.8667 20.6 62.7667 15.8333 59.1 12.5333C57.5324 10.9857 55.6114 9.84313 53.5032 9.20428C51.3951 8.56544 49.163 8.44956 47 8.86667C44.8 5.2 40.4 3 36 3H36.3667Z" stroke="#0466E1" stroke-width="6" stroke-linecap="round" stroke-linejoin="round"/>
<path d="M25.3667 36.0001L32.7 43.3334L47.3667 28.6667" stroke="#0466E1" stroke-width="6" stroke-linecap="round" stroke-linejoin="round"/>
</svg>
