<svg width="16" height="16" viewBox="0 0 16 16" fill="none" xmlns="http://www.w3.org/2000/svg">
<path d="M6.40005 1.64498C4.32028 3.72476 4.23759 7.02719 6.10212 9.2349L5.34137 9.99565C4.82221 9.74103 4.18478 9.79578 3.72834 10.1942L0.623531 12.8925C-0.161374 13.5568 -0.214124 14.7544 0.515719 15.4843C1.24981 16.2184 2.44806 16.155 3.10328 15.382L5.80543 12.272C6.20415 11.8153 6.2589 11.1777 6.00434 10.6586L6.76502 9.8979C8.97277 11.7624 12.2752 11.6797 14.355 9.59997C16.5483 7.40666 16.5483 3.83832 14.355 1.64501C12.1617 -0.5483 8.59336 -0.548362 6.40005 1.64498V1.64498ZM13.0291 8.27406C11.567 9.73615 9.18799 9.73615 7.72583 8.27406C6.26374 6.81197 6.26374 4.43285 7.72583 2.97076C9.18799 1.50867 11.567 1.50867 13.0291 2.97076C14.4912 4.43285 14.4913 6.81197 13.0291 8.27406Z" fill="#BABABA"/>
</svg>
