<svg width="71" height="71" viewBox="0 0 71 71" fill="none" xmlns="http://www.w3.org/2000/svg">
<path d="M69.3214 45.472L49.7152 38.4258L41.5198 28.1367C40.8072 27.2655 39.9095 26.5639 38.892 26.0828C37.8744 25.6017 36.7625 25.3531 35.6369 25.3552H15.3614C14.1213 25.3548 12.9 25.6577 11.8039 26.2375C10.7078 26.8174 9.77016 27.6565 9.07279 28.6818L2.19593 38.7808C0.763641 40.8826 -0.00163722 43.3673 2.62992e-06 45.9107V60.8525C2.62992e-06 61.525 0.267157 62.1699 0.742696 62.6454C1.21823 63.1209 1.8632 63.388 2.53572 63.388H7.96722C8.51882 65.5641 9.78033 67.4942 11.5521 68.8728C13.324 70.2515 15.5049 71 17.75 71C19.9951 71 22.176 70.2515 23.9479 68.8728C25.7197 67.4942 26.9812 65.5641 27.5328 63.388H43.4672C44.0188 65.5641 45.2803 67.4942 47.0522 68.8728C48.824 70.2515 51.0049 71 53.25 71C55.4951 71 57.676 70.2515 59.4479 68.8728C61.2197 67.4942 62.4812 65.5641 63.0328 63.388H68.4643C69.1368 63.388 69.7818 63.1209 70.2573 62.6454C70.7328 62.1699 71 61.525 71 60.8525V47.858C70.9999 47.3358 70.8386 46.8265 70.5382 46.3994C70.2378 45.9724 69.8128 45.6485 69.3214 45.472ZM17.75 65.9236C16.747 65.9236 15.7665 65.6262 14.9325 65.0689C14.0985 64.5117 13.4485 63.7197 13.0646 62.7931C12.6808 61.8665 12.5803 60.8469 12.776 59.8632C12.9717 58.8795 13.4547 57.976 14.164 57.2668C14.8732 56.5576 15.7769 56.0746 16.7606 55.8789C17.7444 55.6833 18.7641 55.7837 19.6908 56.1675C20.6174 56.5513 21.4095 57.2013 21.9667 58.0352C22.524 58.8691 22.8214 59.8496 22.8214 60.8525C22.8194 62.1968 22.2845 63.4855 21.3338 64.4361C20.3832 65.3866 19.0944 65.9216 17.75 65.9236ZM53.25 65.9236C52.247 65.9236 51.2665 65.6262 50.4325 65.0689C49.5985 64.5117 48.9485 63.7197 48.5646 62.7931C48.1808 61.8665 48.0803 60.8469 48.276 59.8632C48.4717 58.8795 48.9547 57.976 49.664 57.2668C50.3732 56.5576 51.2769 56.0746 52.2606 55.8789C53.2444 55.6833 54.2641 55.7837 55.1908 56.1675C56.1174 56.5513 56.9095 57.2013 57.4667 58.0352C58.024 58.8691 58.3214 59.8496 58.3214 60.8525C58.3201 62.197 57.7853 63.4861 56.8346 64.4368C55.8838 65.3875 54.5946 65.9222 53.25 65.9236ZM65.9286 58.317H63.0328C62.4812 56.1409 61.2197 54.2109 59.4479 52.8322C57.676 51.4536 55.4951 50.705 53.25 50.705C51.0049 50.705 48.824 51.4536 47.0522 52.8322C45.2803 54.2109 44.0188 56.1409 43.4672 58.317H27.5328C26.9812 56.1409 25.7197 54.2109 23.9479 52.8322C22.176 51.4536 19.9951 50.705 17.75 50.705C15.5049 50.705 13.324 51.4536 11.5521 52.8322C9.78033 54.2109 8.51882 56.1409 7.96722 58.317H5.07143V45.9107C5.07116 44.384 5.53062 42.8926 6.39 41.6307L13.2643 31.5368C13.4968 31.1947 13.8094 30.9147 14.1749 30.7211C14.5404 30.5275 14.9477 30.4263 15.3614 30.4263H35.6369C36.0059 30.4248 36.3707 30.5045 36.7054 30.6596C37.0402 30.8147 37.3368 31.0414 37.5742 31.3238L46.1956 42.148C46.4888 42.516 46.8787 42.7952 47.3215 42.9543L65.9286 49.6404V58.317ZM65.9286 0H55.7857C54.4411 0.0013425 53.1519 0.536043 52.2012 1.48676C51.2504 2.43747 50.7156 3.72653 50.7143 5.07104V25.3552C50.7156 26.6997 51.2504 27.9888 52.2012 28.9395C53.1519 29.8902 54.4411 30.4249 55.7857 30.4263H65.9286C67.2732 30.4249 68.5623 29.8902 69.5131 28.9395C70.4639 27.9888 70.9987 26.6997 71 25.3552V5.07104C70.9987 3.72653 70.4639 2.43747 69.5131 1.48676C68.5623 0.536043 67.2732 0.0013425 65.9286 0ZM65.9286 5.07104V10.1421H55.7857V5.07104H65.9286ZM55.7857 25.3552V15.2131H65.9286V25.3552H55.7857Z" fill="#0466E1"/>
</svg>
