<svg width="63" height="69" viewBox="0 0 63 69" fill="none" xmlns="http://www.w3.org/2000/svg">
<path d="M31.5 0C20.9548 0 12.3778 8.57706 12.3778 19.1222C12.3778 29.6674 20.9548 38.2445 31.5 38.2445C42.0452 38.2445 50.6222 29.6674 50.6222 19.1222C50.6222 8.57706 42.0452 0 31.5 0ZM30.2747 4.5786L28.5428 9.76308L36.213 8.9595L35.4502 6.39168L37.6013 6.98727V9.83604L40.9614 10.0552L40.3042 7.49871L42.0703 6.47582C45.6813 9.49537 47.9745 14.0353 47.9745 19.1222C47.9745 21.574 47.4413 23.8985 46.4852 25.9874L42.6416 26.6379V31.2681C41.9084 31.9409 41.1158 32.5459 40.2736 33.0759L38.6238 30.5094L35.4095 31.3861L36.3126 34.8848C34.7523 35.3583 33.1305 35.5982 31.5 35.5968C26.9382 35.5968 22.816 33.753 19.8359 30.7683L22.7719 30.3635L24.7444 26.4917L18.4617 23.3506L22.9179 19.5518L19.0464 16.3377L15.0906 17.6562C15.5484 12.442 18.4227 7.93279 22.5915 5.25347L23.4294 11.9545L30.2747 4.5786ZM35.9937 14.0245L30.6733 17.4336L35.3224 21.5659L38.6801 20.5845L38.37 24.6136L44.5171 23.0639L42.1924 17.7953L38.4734 17.8469L41.7794 15.006L35.9939 14.0245H35.9937ZM30.467 19.9646L27.6258 21.2042L29.6403 22.7022L30.467 19.9646ZM23.7945 20.4286L21.8222 22.7659L27.2863 26.6062L23.7945 20.4286ZM32.5848 21.7208L30.5704 25.4919L35.4259 28.7976L33.7211 26.3697L35.839 23.8387L32.5848 21.7208ZM2.69456 25.7504C1.39748 25.7303 0.0699588 27.3822 0.0623099 31.6169C0.0508366 38.1115 -0.578432 39.9447 2.42714 47.2899C4.63105 52.6762 5.61938 56.8161 12.672 60.1615C13.5074 63.1066 13.174 63.7991 12.6072 66.3159C12.0783 68.6656 17.5236 69.0975 21.5114 67.118C25.7905 64.7839 25.4315 58.3575 24.667 53.9996C23.778 48.9316 20.9809 47.8783 18.5563 45.7135C16.0388 42.1133 15.4529 35.5915 11.3699 32.9606C10.5172 32.4112 6.16716 31.8534 12.1439 46.7789C4.26391 44.8272 5.69925 35.7802 5.12941 29.082C4.95966 27.0872 3.83895 25.768 2.69456 25.7503V25.7504ZM60.3054 25.7504C59.161 25.7681 58.0403 27.0872 57.8706 29.0821C57.3007 35.7802 58.7361 44.8272 50.8561 46.7789C56.833 31.8532 52.4828 32.4112 51.6301 32.9606C47.5471 35.5915 46.9614 42.1133 44.4437 45.7136C42.0193 47.8783 39.2219 48.9316 38.333 53.9996C37.5685 58.3575 37.2095 64.7839 41.4886 67.118C45.4764 69.0973 50.9217 68.6656 50.3926 66.3159C49.826 63.7991 49.4925 63.1066 50.328 60.1615C57.3806 56.8161 58.3689 52.6762 60.5729 47.2899C63.5784 39.9447 62.9492 38.1115 62.9377 31.617C62.93 27.3822 61.6025 25.7303 60.3054 25.7504Z" fill="#0466E1"/>
</svg>
