<svg width="76" height="69" viewBox="0 0 76 69" fill="none" xmlns="http://www.w3.org/2000/svg">
<path d="M52 66.0001V59.0001C52 55.287 50.525 51.7261 47.8995 49.1006C45.274 46.4751 41.713 45.0001 38 45.0001H17C13.287 45.0001 9.72601 46.4751 7.10051 49.1006C4.475 51.7261 3 55.287 3 59.0001V66.0001" stroke="#0466E1" stroke-width="6" stroke-linecap="round" stroke-linejoin="round"/>
<path d="M27.5 31C35.232 31 41.5 24.732 41.5 17C41.5 9.26801 35.232 3 27.5 3C19.768 3 13.5 9.26801 13.5 17C13.5 24.732 19.768 31 27.5 31Z" stroke="#0466E1" stroke-width="6" stroke-linecap="round" stroke-linejoin="round"/>
<path d="M73 65.9995V58.9995C72.9977 55.8976 71.9652 52.8842 70.0648 50.4326C68.1643 47.981 65.5035 46.23 62.5 45.4545" stroke="#0466E1" stroke-width="6" stroke-linecap="round" stroke-linejoin="round"/>
<path d="M52 3.45465C55.0115 4.2257 57.6806 5.9771 59.5867 8.43274C61.4928 10.8884 62.5275 13.9086 62.5275 17.0172C62.5275 20.1257 61.4928 23.1459 59.5867 25.6016C57.6806 28.0572 55.0115 29.8086 52 30.5797" stroke="#0466E1" stroke-width="6" stroke-linecap="round" stroke-linejoin="round"/>
</svg>
